<svg width="604" height="287" viewBox="0 0 604 287" fill="none" xmlns="http://www.w3.org/2000/svg">
<path d="M10.6705 4.36364V16H9.05682L3.14205 7.46591H3.03409V16H1.27841V4.36364H2.90341L8.82386 12.9091H8.93182V4.36364H10.6705ZM13.2315 16V4.36364H20.4474V5.875H14.9872V9.42045H19.9304V10.9261H14.9872V16H13.2315ZM26.3736 16H22.6065V4.36364H26.4929C27.633 4.36364 28.6122 4.59659 29.4304 5.0625C30.2486 5.52462 30.8755 6.18939 31.3111 7.05682C31.7505 7.92045 31.9702 8.95644 31.9702 10.1648C31.9702 11.3769 31.7486 12.4186 31.3054 13.2898C30.866 14.161 30.2296 14.8314 29.3963 15.3011C28.563 15.767 27.5554 16 26.3736 16ZM24.3622 14.4659H26.277C27.1634 14.4659 27.9001 14.2992 28.4872 13.9659C29.0743 13.6288 29.5137 13.142 29.8054 12.5057C30.0971 11.8655 30.2429 11.0852 30.2429 10.1648C30.2429 9.25189 30.0971 8.47727 29.8054 7.84091C29.5175 7.20455 29.0876 6.72159 28.5156 6.39205C27.9437 6.0625 27.2334 5.89773 26.3849 5.89773H24.3622V14.4659ZM37.8082 3.81818L34.0582 17.75H32.5412L36.2912 3.81818H37.8082ZM39.3878 16V4.36364H46.6832V5.875H41.1435V9.42045H46.3026V10.9261H41.1435V14.4886H46.7514V16H39.3878ZM49.0284 16V4.36364H53.2898C54.1155 4.36364 54.7992 4.5 55.3409 4.77273C55.8826 5.04167 56.2879 5.4072 56.5568 5.86932C56.8258 6.32765 56.9602 6.8447 56.9602 7.42045C56.9602 7.9053 56.8712 8.31439 56.6932 8.64773C56.5152 8.97727 56.2765 9.24242 55.9773 9.44318C55.6818 9.64015 55.3561 9.78409 55 9.875V9.98864C55.3864 10.0076 55.7633 10.1326 56.1307 10.3636C56.5019 10.5909 56.8087 10.9148 57.0511 11.3352C57.2936 11.7557 57.4148 12.267 57.4148 12.8693C57.4148 13.464 57.2746 13.9981 56.9943 14.4716C56.7178 14.9413 56.2898 15.3144 55.7102 15.5909C55.1307 15.8636 54.3902 16 53.4886 16H49.0284ZM50.7841 14.4943H53.3182C54.1591 14.4943 54.7614 14.3314 55.125 14.0057C55.4886 13.6799 55.6705 13.2727 55.6705 12.7841C55.6705 12.4167 55.5777 12.0795 55.392 11.7727C55.2064 11.4659 54.9413 11.2216 54.5966 11.0398C54.2557 10.858 53.8504 10.767 53.3807 10.767H50.7841V14.4943ZM50.7841 9.39773H53.1364C53.5303 9.39773 53.8845 9.32197 54.1989 9.17045C54.517 9.01894 54.7689 8.80682 54.9545 8.53409C55.1439 8.25758 55.2386 7.93182 55.2386 7.55682C55.2386 7.07576 55.0701 6.67235 54.733 6.34659C54.3958 6.02083 53.8788 5.85795 53.1818 5.85795H50.7841V9.39773ZM61.2528 4.36364V16H59.4972V4.36364H61.2528ZM63.2358 5.875V4.36364H72.2415V5.875H68.6108V16H66.8608V5.875H63.2358ZM77.9986 16H74.2315V4.36364H78.1179C79.258 4.36364 80.2372 4.59659 81.0554 5.0625C81.8736 5.52462 82.5005 6.18939 82.9361 7.05682C83.3755 7.92045 83.5952 8.95644 83.5952 10.1648C83.5952 11.3769 83.3736 12.4186 82.9304 13.2898C82.491 14.161 81.8546 14.8314 81.0213 15.3011C80.188 15.767 79.1804 16 77.9986 16ZM75.9872 14.4659H77.902C78.7884 14.4659 79.5251 14.2992 80.1122 13.9659C80.6993 13.6288 81.1387 13.142 81.4304 12.5057C81.7221 11.8655 81.8679 11.0852 81.8679 10.1648C81.8679 9.25189 81.7221 8.47727 81.4304 7.84091C81.1425 7.20455 80.7126 6.72159 80.1406 6.39205C79.5687 6.0625 78.8584 5.89773 78.0099 5.89773H75.9872V14.4659ZM86.1832 16H84.3196L88.5071 4.36364H90.5355L94.723 16H92.8594L89.5696 6.47727H89.4787L86.1832 16ZM86.4957 11.4432H92.5412V12.9205H86.4957V11.4432ZM103.041 16.1932C102.488 16.1932 101.988 16.0909 101.541 15.8864C101.094 15.678 100.74 15.3769 100.479 14.983C100.221 14.589 100.092 14.1061 100.092 13.5341C100.092 13.0417 100.187 12.6364 100.376 12.3182C100.566 12 100.821 11.7481 101.143 11.5625C101.465 11.3769 101.825 11.2367 102.223 11.142C102.621 11.0473 103.026 10.9754 103.439 10.9261C103.962 10.8655 104.386 10.8163 104.712 10.7784C105.037 10.7367 105.274 10.6705 105.422 10.5795C105.57 10.4886 105.643 10.3409 105.643 10.1364V10.0966C105.643 9.60038 105.503 9.21591 105.223 8.94318C104.946 8.67045 104.534 8.53409 103.984 8.53409C103.412 8.53409 102.962 8.66098 102.632 8.91477C102.306 9.16477 102.081 9.44318 101.956 9.75L100.359 9.38636C100.549 8.85606 100.825 8.42803 101.189 8.10227C101.556 7.77273 101.979 7.53409 102.456 7.38636C102.933 7.23485 103.435 7.15909 103.962 7.15909C104.31 7.15909 104.679 7.20076 105.07 7.28409C105.464 7.36364 105.831 7.51136 106.172 7.72727C106.517 7.94318 106.799 8.25189 107.018 8.65341C107.238 9.05114 107.348 9.56818 107.348 10.2045V16H105.689V14.8068H105.621C105.511 15.0265 105.346 15.2424 105.126 15.4545C104.907 15.6667 104.625 15.8428 104.28 15.983C103.935 16.1231 103.522 16.1932 103.041 16.1932ZM103.411 14.8295C103.88 14.8295 104.282 14.7367 104.615 14.5511C104.952 14.3655 105.208 14.1231 105.382 13.8239C105.56 13.5208 105.649 13.197 105.649 12.8523V11.7273C105.589 11.7879 105.471 11.8447 105.297 11.8977C105.126 11.947 104.931 11.9905 104.712 12.0284C104.492 12.0625 104.278 12.0947 104.07 12.125C103.861 12.1515 103.687 12.1742 103.547 12.1932C103.217 12.2348 102.916 12.3049 102.643 12.4034C102.375 12.5019 102.159 12.6439 101.996 12.8295C101.837 13.0114 101.757 13.2538 101.757 13.5568C101.757 13.9773 101.912 14.2955 102.223 14.5114C102.534 14.7235 102.929 14.8295 103.411 14.8295ZM111.31 10.8182V16H109.611V7.27273H111.241V8.69318H111.349C111.55 8.23106 111.865 7.85985 112.293 7.57955C112.724 7.29924 113.268 7.15909 113.923 7.15909C114.518 7.15909 115.039 7.28409 115.486 7.53409C115.933 7.7803 116.279 8.14773 116.526 8.63636C116.772 9.125 116.895 9.72917 116.895 10.4489V16H115.196V10.6534C115.196 10.0208 115.031 9.52652 114.702 9.17045C114.372 8.81061 113.92 8.63068 113.344 8.63068C112.95 8.63068 112.599 8.71591 112.293 8.88636C111.99 9.05682 111.749 9.30682 111.571 9.63636C111.397 9.96212 111.31 10.3561 111.31 10.8182ZM122.44 16.1705C121.736 16.1705 121.107 15.9905 120.554 15.6307C120.005 15.267 119.573 14.75 119.259 14.0795C118.948 13.4053 118.793 12.5966 118.793 11.6534C118.793 10.7102 118.95 9.90341 119.264 9.23295C119.582 8.5625 120.018 8.04924 120.571 7.69318C121.124 7.33712 121.751 7.15909 122.452 7.15909C122.993 7.15909 123.429 7.25 123.759 7.43182C124.092 7.60985 124.349 7.81818 124.531 8.05682C124.717 8.29545 124.861 8.50568 124.963 8.6875H125.065V4.36364H126.764V16H125.105V14.642H124.963C124.861 14.8277 124.713 15.0398 124.52 15.2784C124.33 15.517 124.069 15.7254 123.736 15.9034C123.402 16.0814 122.971 16.1705 122.44 16.1705ZM122.815 14.7216C123.304 14.7216 123.717 14.5928 124.054 14.3352C124.395 14.0739 124.652 13.7121 124.827 13.25C125.005 12.7879 125.094 12.25 125.094 11.6364C125.094 11.0303 125.007 10.5 124.832 10.0455C124.658 9.59091 124.402 9.23674 124.065 8.98295C123.728 8.72917 123.312 8.60227 122.815 8.60227C122.304 8.60227 121.878 8.73485 121.537 9C121.196 9.26515 120.938 9.62689 120.764 10.0852C120.594 10.5436 120.509 11.0606 120.509 11.6364C120.509 12.2197 120.596 12.7443 120.77 13.2102C120.944 13.6761 121.202 14.0455 121.543 14.3182C121.887 14.5871 122.312 14.7216 122.815 14.7216ZM143.224 8.14773H141.452C141.384 7.76894 141.257 7.43561 141.071 7.14773C140.885 6.85985 140.658 6.61553 140.389 6.41477C140.12 6.21401 139.819 6.0625 139.486 5.96023C139.156 5.85795 138.806 5.80682 138.435 5.80682C137.764 5.80682 137.164 5.97538 136.634 6.3125C136.107 6.64962 135.69 7.14394 135.384 7.79545C135.08 8.44697 134.929 9.24242 134.929 10.1818C134.929 11.1288 135.08 11.928 135.384 12.5795C135.69 13.2311 136.109 13.7235 136.639 14.0568C137.17 14.3902 137.766 14.5568 138.429 14.5568C138.796 14.5568 139.145 14.5076 139.474 14.4091C139.808 14.3068 140.109 14.1572 140.378 13.9602C140.647 13.7633 140.874 13.5227 141.06 13.2386C141.249 12.9508 141.38 12.6212 141.452 12.25L143.224 12.2557C143.13 12.8277 142.946 13.3542 142.673 13.8352C142.404 14.3125 142.058 14.7254 141.634 15.0739C141.213 15.4186 140.732 15.6856 140.19 15.875C139.649 16.0644 139.058 16.1591 138.418 16.1591C137.41 16.1591 136.512 15.9205 135.724 15.4432C134.937 14.9621 134.315 14.2746 133.861 13.3807C133.41 12.4867 133.185 11.4205 133.185 10.1818C133.185 8.93939 133.412 7.87311 133.866 6.98295C134.321 6.08901 134.942 5.40341 135.73 4.92614C136.518 4.44508 137.414 4.20455 138.418 4.20455C139.035 4.20455 139.611 4.29356 140.145 4.47159C140.683 4.64583 141.166 4.90341 141.594 5.24432C142.022 5.58144 142.376 5.99432 142.656 6.48295C142.937 6.9678 143.126 7.52273 143.224 8.14773ZM146.23 16H144.366L148.554 4.36364H150.582L154.77 16H152.906L149.616 6.47727H149.526L146.23 16ZM146.543 11.4432H152.588V12.9205H146.543V11.4432ZM156.45 16V4.36364H160.598C161.503 4.36364 162.253 4.52841 162.848 4.85795C163.443 5.1875 163.888 5.63826 164.183 6.21023C164.479 6.77841 164.626 7.41856 164.626 8.13068C164.626 8.84659 164.477 9.49053 164.178 10.0625C163.882 10.6307 163.435 11.0814 162.837 11.4148C162.242 11.7443 161.494 11.9091 160.592 11.9091H157.74V10.4205H160.433C161.005 10.4205 161.469 10.322 161.825 10.125C162.181 9.92424 162.443 9.65152 162.609 9.30682C162.776 8.96212 162.859 8.57008 162.859 8.13068C162.859 7.69129 162.776 7.30114 162.609 6.96023C162.443 6.61932 162.179 6.35227 161.82 6.15909C161.464 5.96591 160.994 5.86932 160.411 5.86932H158.206V16H156.45ZM166.685 16V4.36364H173.98V5.875H168.44V9.42045H173.599V10.9261H168.44V14.4886H174.048V16H166.685ZM177.547 4.36364L180.331 8.91477H180.422L183.206 4.36364H185.24L181.615 10.1818L185.263 16H183.217L180.422 11.5114H180.331L177.536 16H175.49L179.2 10.1818L175.513 4.36364H177.547ZM191.277 3.81818L187.527 17.75H186.01L189.76 3.81818H191.277ZM192.857 16V4.36364H200.152V5.875H194.612V9.42045H199.771V10.9261H194.612V14.4886H200.22V16H192.857ZM202.497 16V4.36364H206.759C207.584 4.36364 208.268 4.5 208.81 4.77273C209.351 5.04167 209.757 5.4072 210.026 5.86932C210.295 6.32765 210.429 6.8447 210.429 7.42045C210.429 7.9053 210.34 8.31439 210.162 8.64773C209.984 8.97727 209.745 9.24242 209.446 9.44318C209.151 9.64015 208.825 9.78409 208.469 9.875V9.98864C208.855 10.0076 209.232 10.1326 209.599 10.3636C209.971 10.5909 210.277 10.9148 210.52 11.3352C210.762 11.7557 210.884 12.267 210.884 12.8693C210.884 13.464 210.743 13.9981 210.463 14.4716C210.187 14.9413 209.759 15.3144 209.179 15.5909C208.599 15.8636 207.859 16 206.957 16H202.497ZM204.253 14.4943H206.787C207.628 14.4943 208.23 14.3314 208.594 14.0057C208.957 13.6799 209.139 13.2727 209.139 12.7841C209.139 12.4167 209.046 12.0795 208.861 11.7727C208.675 11.4659 208.41 11.2216 208.065 11.0398C207.724 10.858 207.319 10.767 206.849 10.767H204.253V14.4943ZM204.253 9.39773H206.605C206.999 9.39773 207.353 9.32197 207.668 9.17045C207.986 9.01894 208.238 8.80682 208.423 8.53409C208.613 8.25758 208.707 7.93182 208.707 7.55682C208.707 7.07576 208.539 6.67235 208.202 6.34659C207.865 6.02083 207.348 5.85795 206.651 5.85795H204.253V9.39773ZM214.722 4.36364V16H212.966V4.36364H214.722ZM216.705 5.875V4.36364H225.71V5.875H222.08V16H220.33V5.875H216.705ZM231.467 16H227.7V4.36364H231.587C232.727 4.36364 233.706 4.59659 234.524 5.0625C235.342 5.52462 235.969 6.18939 236.405 7.05682C236.844 7.92045 237.064 8.95644 237.064 10.1648C237.064 11.3769 236.842 12.4186 236.399 13.2898C235.96 14.161 235.323 14.8314 234.49 15.3011C233.657 15.767 232.649 16 231.467 16ZM229.456 14.4659H231.371C232.257 14.4659 232.994 14.2992 233.581 13.9659C234.168 13.6288 234.607 13.142 234.899 12.5057C235.191 11.8655 235.337 11.0852 235.337 10.1648C235.337 9.25189 235.191 8.47727 234.899 7.84091C234.611 7.20455 234.181 6.72159 233.609 6.39205C233.037 6.0625 232.327 5.89773 231.479 5.89773H229.456V14.4659ZM239.652 16H237.788L241.976 4.36364H244.004L248.192 16H246.328L243.038 6.47727H242.947L239.652 16ZM239.964 11.4432H246.01V12.9205H239.964V11.4432Z" fill="#18181B"/>
<rect x="216" y="276" width="8" height="8" rx="2" fill="#D8D8D9"/>
<rect x="216" y="276" width="8" height="8" rx="2" stroke="#BADDCF"/>
<path d="M234.669 276.727V284H233.661L229.964 278.666H229.896V284H228.799V276.727H229.815L233.515 282.068H233.582V276.727H234.669ZM236.27 284V276.727H240.78V277.672H237.367V279.888H240.456V280.829H237.367V284H236.27ZM244.483 284H242.129V276.727H244.558C245.271 276.727 245.883 276.873 246.394 277.164C246.905 277.453 247.297 277.868 247.569 278.411C247.844 278.95 247.981 279.598 247.981 280.353C247.981 281.111 247.843 281.762 247.566 282.306C247.291 282.851 246.894 283.27 246.373 283.563C245.852 283.854 245.222 284 244.483 284ZM243.226 283.041H244.423C244.977 283.041 245.438 282.937 245.805 282.729C246.171 282.518 246.446 282.214 246.628 281.816C246.811 281.416 246.902 280.928 246.902 280.353C246.902 279.782 246.811 279.298 246.628 278.901C246.448 278.503 246.18 278.201 245.822 277.995C245.465 277.789 245.021 277.686 244.491 277.686H243.226V283.041ZM251.63 276.386L249.286 285.094H248.338L250.682 276.386H251.63ZM252.617 284V276.727H257.177V277.672H253.715V279.888H256.939V280.829H253.715V283.055H257.22V284H252.617ZM258.643 284V276.727H261.306C261.822 276.727 262.25 276.812 262.588 276.983C262.927 277.151 263.18 277.379 263.348 277.668C263.516 277.955 263.6 278.278 263.6 278.638C263.6 278.941 263.545 279.196 263.433 279.405C263.322 279.611 263.173 279.777 262.986 279.902C262.801 280.025 262.598 280.115 262.375 280.172V280.243C262.616 280.255 262.852 280.333 263.082 280.477C263.314 280.619 263.505 280.822 263.657 281.085C263.808 281.347 263.884 281.667 263.884 282.043C263.884 282.415 263.797 282.749 263.621 283.045C263.449 283.338 263.181 283.571 262.819 283.744C262.457 283.915 261.994 284 261.43 284H258.643ZM259.74 283.059H261.324C261.849 283.059 262.226 282.957 262.453 282.754C262.68 282.55 262.794 282.295 262.794 281.99C262.794 281.76 262.736 281.55 262.62 281.358C262.504 281.166 262.338 281.013 262.123 280.9C261.91 280.786 261.656 280.729 261.363 280.729H259.74V283.059ZM259.74 279.874H261.21C261.456 279.874 261.678 279.826 261.874 279.732C262.073 279.637 262.231 279.504 262.347 279.334C262.465 279.161 262.524 278.957 262.524 278.723C262.524 278.422 262.419 278.17 262.208 277.967C261.997 277.763 261.674 277.661 261.239 277.661H259.74V279.874ZM266.283 276.727V284H265.186V276.727H266.283ZM267.522 277.672V276.727H273.151V277.672H270.882V284H269.788V277.672H267.522ZM276.749 284H274.395V276.727H276.824C277.536 276.727 278.148 276.873 278.66 277.164C279.171 277.453 279.563 277.868 279.835 278.411C280.11 278.95 280.247 279.598 280.247 280.353C280.247 281.111 280.108 281.762 279.831 282.306C279.557 282.851 279.159 283.27 278.638 283.563C278.117 283.854 277.488 284 276.749 284ZM275.492 283.041H276.689C277.243 283.041 277.703 282.937 278.07 282.729C278.437 282.518 278.712 282.214 278.894 281.816C279.076 281.416 279.167 280.928 279.167 280.353C279.167 279.782 279.076 279.298 278.894 278.901C278.714 278.503 278.445 278.201 278.088 277.995C277.73 277.789 277.287 277.686 276.756 277.686H275.492V283.041ZM281.865 284H280.7L283.317 276.727H284.585L287.202 284H286.037L283.981 278.048H283.924L281.865 284ZM282.06 281.152H285.838V282.075H282.06V281.152Z" fill="#8F8F91"/>
<rect x="304" y="276" width="8" height="8" rx="2" fill="#58585A"/>
<path d="M322.839 279.092H321.732C321.689 278.856 321.61 278.647 321.494 278.467C321.378 278.287 321.236 278.135 321.067 278.009C320.899 277.884 320.711 277.789 320.503 277.725C320.297 277.661 320.078 277.629 319.846 277.629C319.427 277.629 319.052 277.735 318.72 277.945C318.391 278.156 318.131 278.465 317.939 278.872C317.75 279.279 317.655 279.777 317.655 280.364C317.655 280.955 317.75 281.455 317.939 281.862C318.131 282.269 318.392 282.577 318.724 282.786C319.055 282.994 319.428 283.098 319.842 283.098C320.072 283.098 320.29 283.067 320.496 283.006C320.704 282.942 320.892 282.848 321.06 282.725C321.228 282.602 321.371 282.452 321.487 282.274C321.605 282.094 321.687 281.888 321.732 281.656L322.839 281.66C322.78 282.017 322.665 282.346 322.495 282.647C322.327 282.945 322.11 283.203 321.845 283.421C321.582 283.637 321.282 283.804 320.943 283.922C320.605 284.04 320.235 284.099 319.835 284.099C319.205 284.099 318.644 283.95 318.152 283.652C317.66 283.351 317.271 282.922 316.987 282.363C316.705 281.804 316.565 281.138 316.565 280.364C316.565 279.587 316.707 278.921 316.991 278.364C317.275 277.806 317.663 277.377 318.156 277.079C318.648 276.778 319.208 276.628 319.835 276.628C320.221 276.628 320.581 276.683 320.915 276.795C321.251 276.904 321.553 277.065 321.82 277.278C322.088 277.488 322.309 277.746 322.484 278.052C322.66 278.355 322.778 278.702 322.839 279.092ZM324.718 284H323.553L326.17 276.727H327.438L330.055 284H328.891L326.835 278.048H326.778L324.718 284ZM324.913 281.152H328.692V282.075H324.913V281.152ZM331.106 284V276.727H333.698C334.264 276.727 334.733 276.83 335.104 277.036C335.476 277.242 335.754 277.524 335.939 277.881C336.123 278.237 336.216 278.637 336.216 279.082C336.216 279.529 336.122 279.932 335.935 280.289C335.751 280.644 335.471 280.926 335.097 281.134C334.725 281.34 334.258 281.443 333.694 281.443H331.912V280.513H333.595C333.952 280.513 334.242 280.451 334.465 280.328C334.688 280.203 334.851 280.032 334.955 279.817C335.059 279.601 335.111 279.356 335.111 279.082C335.111 278.807 335.059 278.563 334.955 278.35C334.851 278.137 334.686 277.97 334.461 277.849C334.239 277.729 333.945 277.668 333.581 277.668H332.203V284H331.106ZM337.502 284V276.727H342.062V277.672H338.599V279.888H341.824V280.829H338.599V283.055H342.104V284H337.502ZM344.291 276.727L346.031 279.572H346.088L347.828 276.727H349.099L346.834 280.364L349.113 284H347.835L346.088 281.195H346.031L344.284 284H343.006L345.324 280.364L343.02 276.727H344.291ZM352.872 276.386L350.529 285.094H349.58L351.924 276.386H352.872ZM353.86 284V276.727H358.419V277.672H354.957V279.888H358.181V280.829H354.957V283.055H358.462V284H353.86ZM359.885 284V276.727H362.548C363.064 276.727 363.492 276.812 363.83 276.983C364.169 277.151 364.422 277.379 364.59 277.668C364.758 277.955 364.842 278.278 364.842 278.638C364.842 278.941 364.787 279.196 364.675 279.405C364.564 279.611 364.415 279.777 364.228 279.902C364.043 280.025 363.84 280.115 363.617 280.172V280.243C363.859 280.255 364.094 280.333 364.324 280.477C364.556 280.619 364.748 280.822 364.899 281.085C365.051 281.347 365.126 281.667 365.126 282.043C365.126 282.415 365.039 282.749 364.864 283.045C364.691 283.338 364.423 283.571 364.061 283.744C363.699 283.915 363.236 284 362.673 284H359.885ZM360.982 283.059H362.566C363.092 283.059 363.468 282.957 363.695 282.754C363.923 282.55 364.036 282.295 364.036 281.99C364.036 281.76 363.978 281.55 363.862 281.358C363.746 281.166 363.58 281.013 363.365 280.9C363.152 280.786 362.899 280.729 362.605 280.729H360.982V283.059ZM360.982 279.874H362.452C362.699 279.874 362.92 279.826 363.116 279.732C363.315 279.637 363.473 279.504 363.589 279.334C363.707 279.161 363.766 278.957 363.766 278.723C363.766 278.422 363.661 278.17 363.45 277.967C363.24 277.763 362.916 277.661 362.481 277.661H360.982V279.874ZM367.525 276.727V284H366.428V276.727H367.525ZM368.765 277.672V276.727H374.393V277.672H372.124V284H371.03V277.672H368.765ZM377.991 284H375.637V276.727H378.066C378.778 276.727 379.39 276.873 379.902 277.164C380.413 277.453 380.805 277.868 381.077 278.411C381.352 278.95 381.489 279.598 381.489 280.353C381.489 281.111 381.351 281.762 381.074 282.306C380.799 282.851 380.401 283.27 379.881 283.563C379.36 283.854 378.73 284 377.991 284ZM376.734 283.041H377.931C378.485 283.041 378.945 282.937 379.312 282.729C379.679 282.518 379.954 282.214 380.136 281.816C380.318 281.416 380.41 280.928 380.41 280.353C380.41 279.782 380.318 279.298 380.136 278.901C379.956 278.503 379.688 278.201 379.33 277.995C378.973 277.789 378.529 277.686 377.998 277.686H376.734V283.041ZM383.107 284H381.942L384.559 276.727H385.827L388.444 284H387.279L385.223 278.048H385.166L383.107 284ZM383.302 281.152H387.08V282.075H383.302V281.152Z" fill="#8F8F91"/>
<path d="M29 109L604 109" stroke="#E6E6E6"/>
<path d="M29 174L604 174" stroke="#E6E6E6"/>
<path d="M2.38184 40L4.44434 43.3281H4.50684L6.56934 40H7.70996L5.19434 44L7.70996 48H6.56934L4.50684 44.7344H4.44434L2.38184 48H1.24121L3.81934 44L1.24121 40H2.38184ZM9.43945 40L11.502 43.3281H11.5645L13.627 40H14.7676L12.252 44L14.7676 48H13.627L11.5645 44.7344H11.502L9.43945 48H8.29883L10.877 44L8.29883 40H9.43945ZM16.5908 42L18.0283 44.4531L19.4658 42H20.5283L18.5908 45L20.5283 48H19.4658L18.0283 45.6719L16.5908 48H15.5283L17.4346 45L15.5283 42H16.5908Z" fill="#8F8F91"/>
<path d="M2.38184 105L4.44434 108.328H4.50684L6.56934 105H7.70996L5.19434 109L7.70996 113H6.56934L4.50684 109.734H4.44434L2.38184 113H1.24121L3.81934 109L1.24121 105H2.38184ZM9.43945 105L11.502 108.328H11.5645L13.627 105H14.7676L12.252 109L14.7676 113H13.627L11.5645 109.734H11.502L9.43945 113H8.29883L10.877 109L8.29883 105H9.43945ZM16.5908 107L18.0283 109.453L19.4658 107H20.5283L18.5908 110L20.5283 113H19.4658L18.0283 110.672L16.5908 113H15.5283L17.4346 110L15.5283 107H16.5908Z" fill="#8F8F91"/>
<path d="M2.38184 170L4.44434 173.328H4.50684L6.56934 170H7.70996L5.19434 174L7.70996 178H6.56934L4.50684 174.734H4.44434L2.38184 178H1.24121L3.81934 174L1.24121 170H2.38184ZM9.43945 170L11.502 173.328H11.5645L13.627 170H14.7676L12.252 174L14.7676 178H13.627L11.5645 174.734H11.502L9.43945 178H8.29883L10.877 174L8.29883 170H9.43945ZM16.5908 172L18.0283 174.453L19.4658 172H20.5283L18.5908 175L20.5283 178H19.4658L18.0283 175.672L16.5908 178H15.5283L17.4346 175L15.5283 172H16.5908Z" fill="#8F8F91"/>
<path d="M2.38184 235L4.44434 238.328H4.50684L6.56934 235H7.70996L5.19434 239L7.70996 243H6.56934L4.50684 239.734H4.44434L2.38184 243H1.24121L3.81934 239L1.24121 235H2.38184ZM9.43945 235L11.502 238.328H11.5645L13.627 235H14.7676L12.252 239L14.7676 243H13.627L11.5645 239.734H11.502L9.43945 243H8.29883L10.877 239L8.29883 235H9.43945ZM16.5908 237L18.0283 239.453L19.4658 237H20.5283L18.5908 240L20.5283 243H19.4658L18.0283 240.672L16.5908 243H15.5283L17.4346 240L15.5283 237H16.5908Z" fill="#8F8F91"/>
<path d="M30.5742 258V257.297L33.2148 254.406C33.5247 254.068 33.7799 253.773 33.9805 253.523C34.181 253.271 34.3294 253.034 34.4258 252.812C34.5247 252.589 34.5742 252.354 34.5742 252.109C34.5742 251.828 34.5065 251.585 34.3711 251.379C34.2383 251.173 34.056 251.014 33.8242 250.902C33.5924 250.79 33.332 250.734 33.043 250.734C32.7357 250.734 32.4674 250.798 32.2383 250.926C32.0117 251.051 31.8359 251.227 31.7109 251.453C31.5885 251.68 31.5273 251.945 31.5273 252.25H30.6055C30.6055 251.781 30.7135 251.37 30.9297 251.016C31.1458 250.661 31.4401 250.385 31.8125 250.187C32.1875 249.99 32.6081 249.891 33.0742 249.891C33.543 249.891 33.9583 249.99 34.3203 250.187C34.6823 250.385 34.9661 250.652 35.1719 250.988C35.3776 251.324 35.4805 251.698 35.4805 252.109C35.4805 252.404 35.4271 252.691 35.3203 252.973C35.2161 253.251 35.0339 253.562 34.7734 253.906C34.5156 254.247 34.1576 254.664 33.6992 255.156L31.9023 257.078V257.141H35.6211V258H30.5742ZM40.1963 258.109C39.6077 258.109 39.1064 257.949 38.6924 257.629C38.2783 257.306 37.9619 256.839 37.7432 256.227C37.5244 255.612 37.415 254.87 37.415 254C37.415 253.135 37.5244 252.397 37.7432 251.785C37.9645 251.171 38.2822 250.702 38.6963 250.379C39.113 250.053 39.613 249.891 40.1963 249.891C40.7796 249.891 41.2783 250.053 41.6924 250.379C42.109 250.702 42.4268 251.171 42.6455 251.785C42.8669 252.397 42.9775 253.135 42.9775 254C42.9775 254.87 42.8682 255.612 42.6494 256.227C42.4307 256.839 42.1143 257.306 41.7002 257.629C41.2861 257.949 40.7848 258.109 40.1963 258.109ZM40.1963 257.25C40.7796 257.25 41.2327 256.969 41.5557 256.406C41.8786 255.844 42.04 255.042 42.04 254C42.04 253.307 41.9658 252.717 41.8174 252.23C41.6715 251.743 41.4606 251.372 41.1846 251.117C40.9111 250.862 40.5817 250.734 40.1963 250.734C39.6182 250.734 39.1663 251.02 38.8408 251.59C38.5153 252.158 38.3525 252.961 38.3525 254C38.3525 254.693 38.4255 255.281 38.5713 255.766C38.7171 256.25 38.9268 256.618 39.2002 256.871C39.4762 257.124 39.8083 257.25 40.1963 257.25ZM48.3965 250V258H47.4277V251.016H47.3809L45.4277 252.312V251.328L47.4277 250H48.3965ZM51.9404 258V257.297L54.5811 254.406C54.891 254.068 55.1462 253.773 55.3467 253.523C55.5472 253.271 55.6956 253.034 55.792 252.812C55.891 252.589 55.9404 252.354 55.9404 252.109C55.9404 251.828 55.8727 251.585 55.7373 251.379C55.6045 251.173 55.4222 251.014 55.1904 250.902C54.9587 250.79 54.6982 250.734 54.4092 250.734C54.1019 250.734 53.8337 250.798 53.6045 250.926C53.3779 251.051 53.2021 251.227 53.0771 251.453C52.9548 251.68 52.8936 251.945 52.8936 252.25H51.9717C51.9717 251.781 52.0798 251.37 52.2959 251.016C52.512 250.661 52.8063 250.385 53.1787 250.187C53.5537 249.99 53.9743 249.891 54.4404 249.891C54.9092 249.891 55.3245 249.99 55.6865 250.187C56.0485 250.385 56.3324 250.652 56.5381 250.988C56.7438 251.324 56.8467 251.698 56.8467 252.109C56.8467 252.404 56.7933 252.691 56.6865 252.973C56.5824 253.251 56.4001 253.562 56.1396 253.906C55.8818 254.247 55.5238 254.664 55.0654 255.156L53.2686 257.078V257.141H56.9873V258H51.9404Z" fill="#8F8F91"/>
<path d="M85.1742 258V257.297L87.8148 254.406C88.1247 254.068 88.3799 253.773 88.5804 253.523C88.781 253.271 88.9294 253.034 89.0258 252.812C89.1247 252.589 89.1742 252.354 89.1742 252.109C89.1742 251.828 89.1065 251.585 88.9711 251.379C88.8383 251.173 88.656 251.014 88.4242 250.902C88.1924 250.79 87.932 250.734 87.6429 250.734C87.3357 250.734 87.0674 250.798 86.8383 250.926C86.6117 251.051 86.4359 251.227 86.3109 251.453C86.1885 251.68 86.1273 251.945 86.1273 252.25H85.2054C85.2054 251.781 85.3135 251.37 85.5297 251.016C85.7458 250.661 86.0401 250.385 86.4125 250.187C86.7875 249.99 87.208 249.891 87.6742 249.891C88.1429 249.891 88.5583 249.99 88.9203 250.187C89.2823 250.385 89.5661 250.652 89.7719 250.988C89.9776 251.324 90.0804 251.698 90.0804 252.109C90.0804 252.404 90.0271 252.691 89.9203 252.973C89.8161 253.251 89.6338 253.562 89.3734 253.906C89.1156 254.247 88.7575 254.664 88.2992 255.156L86.5023 257.078V257.141H90.2211V258H85.1742ZM94.7963 258.109C94.2077 258.109 93.7064 257.949 93.2924 257.629C92.8783 257.306 92.5619 256.839 92.3431 256.227C92.1244 255.612 92.015 254.87 92.015 254C92.015 253.135 92.1244 252.397 92.3431 251.785C92.5645 251.171 92.8822 250.702 93.2963 250.379C93.7129 250.053 94.2129 249.891 94.7963 249.891C95.3796 249.891 95.8783 250.053 96.2924 250.379C96.709 250.702 97.0267 251.171 97.2455 251.785C97.4668 252.397 97.5775 253.135 97.5775 254C97.5775 254.87 97.4681 255.612 97.2494 256.227C97.0306 256.839 96.7142 257.306 96.3002 257.629C95.8861 257.949 95.3848 258.109 94.7963 258.109ZM94.7963 257.25C95.3796 257.25 95.8327 256.969 96.1556 256.406C96.4786 255.844 96.64 255.042 96.64 254C96.64 253.307 96.5658 252.717 96.4174 252.23C96.2715 251.743 96.0606 251.372 95.7845 251.117C95.5111 250.862 95.1817 250.734 94.7963 250.734C94.2181 250.734 93.7663 251.02 93.4408 251.59C93.1153 252.158 92.9525 252.961 92.9525 254C92.9525 254.693 93.0254 255.281 93.1713 255.766C93.3171 256.25 93.5267 256.618 93.8002 256.871C94.0762 257.124 94.4082 257.25 94.7963 257.25ZM102.996 250V258H102.028V251.016H101.981L100.028 252.312V251.328L102.028 250H102.996ZM109.072 258.109C108.556 258.109 108.096 258.021 107.693 257.844C107.292 257.667 106.973 257.421 106.736 257.105C106.501 256.788 106.374 256.419 106.353 256H107.337C107.358 256.258 107.447 256.48 107.603 256.668C107.759 256.853 107.964 256.996 108.216 257.098C108.469 257.199 108.749 257.25 109.056 257.25C109.4 257.25 109.704 257.19 109.97 257.07C110.236 256.951 110.444 256.784 110.595 256.57C110.746 256.357 110.822 256.109 110.822 255.828C110.822 255.534 110.749 255.275 110.603 255.051C110.457 254.824 110.244 254.647 109.962 254.52C109.681 254.392 109.337 254.328 108.931 254.328H108.29V253.469H108.931C109.249 253.469 109.527 253.411 109.767 253.297C110.009 253.182 110.198 253.021 110.333 252.812C110.471 252.604 110.54 252.359 110.54 252.078C110.54 251.807 110.481 251.572 110.361 251.371C110.241 251.171 110.072 251.014 109.853 250.902C109.637 250.79 109.382 250.734 109.087 250.734C108.811 250.734 108.551 250.785 108.306 250.887C108.064 250.986 107.866 251.13 107.712 251.32C107.559 251.508 107.475 251.734 107.462 252H106.525C106.54 251.581 106.667 251.214 106.904 250.898C107.141 250.581 107.451 250.333 107.833 250.156C108.219 249.979 108.642 249.891 109.103 249.891C109.598 249.891 110.022 249.991 110.376 250.191C110.731 250.389 111.003 250.651 111.193 250.977C111.383 251.302 111.478 251.654 111.478 252.031C111.478 252.482 111.359 252.866 111.122 253.184C110.888 253.501 110.569 253.721 110.165 253.844V253.906C110.671 253.99 111.065 254.204 111.349 254.551C111.633 254.895 111.775 255.32 111.775 255.828C111.775 256.263 111.656 256.654 111.419 257C111.185 257.344 110.865 257.615 110.458 257.812C110.052 258.01 109.59 258.109 109.072 258.109Z" fill="#8F8F91"/>
<path d="M139.774 258V257.297L142.415 254.406C142.725 254.068 142.98 253.773 143.18 253.523C143.381 253.271 143.529 253.034 143.626 252.812C143.725 252.589 143.774 252.354 143.774 252.109C143.774 251.828 143.707 251.585 143.571 251.379C143.438 251.173 143.256 251.014 143.024 250.902C142.792 250.79 142.532 250.734 142.243 250.734C141.936 250.734 141.667 250.798 141.438 250.926C141.212 251.051 141.036 251.227 140.911 251.453C140.789 251.68 140.727 251.945 140.727 252.25H139.805C139.805 251.781 139.914 251.37 140.13 251.016C140.346 250.661 140.64 250.385 141.013 250.187C141.388 249.99 141.808 249.891 142.274 249.891C142.743 249.891 143.158 249.99 143.52 250.187C143.882 250.385 144.166 250.652 144.372 250.988C144.578 251.324 144.68 251.698 144.68 252.109C144.68 252.404 144.627 252.691 144.52 252.973C144.416 253.251 144.234 253.562 143.973 253.906C143.716 254.247 143.358 254.664 142.899 255.156L141.102 257.078V257.141H144.821V258H139.774ZM149.396 258.109C148.808 258.109 148.306 257.949 147.892 257.629C147.478 257.306 147.162 256.839 146.943 256.227C146.724 255.612 146.615 254.87 146.615 254C146.615 253.135 146.724 252.397 146.943 251.785C147.165 251.171 147.482 250.702 147.896 250.379C148.313 250.053 148.813 249.891 149.396 249.891C149.98 249.891 150.478 250.053 150.892 250.379C151.309 250.702 151.627 251.171 151.846 251.785C152.067 252.397 152.178 253.135 152.178 254C152.178 254.87 152.068 255.612 151.849 256.227C151.631 256.839 151.314 257.306 150.9 257.629C150.486 257.949 149.985 258.109 149.396 258.109ZM149.396 257.25C149.98 257.25 150.433 256.969 150.756 256.406C151.079 255.844 151.24 255.042 151.24 254C151.24 253.307 151.166 252.717 151.017 252.23C150.872 251.743 150.661 251.372 150.385 251.117C150.111 250.862 149.782 250.734 149.396 250.734C148.818 250.734 148.366 251.02 148.041 251.59C147.715 252.158 147.553 252.961 147.553 254C147.553 254.693 147.625 255.281 147.771 255.766C147.917 256.25 148.127 256.618 148.4 256.871C148.676 257.124 149.008 257.25 149.396 257.25ZM157.596 250V258H156.628V251.016H156.581L154.628 252.312V251.328L156.628 250H157.596ZM160.719 256.359V255.562L164.234 250H164.812V251.234H164.422L161.765 255.437V255.5H166.5V256.359H160.719ZM164.484 258V256.117V255.746V250H165.406V258H164.484Z" fill="#8F8F91"/>
<path d="M194.374 258V257.297L197.015 254.406C197.325 254.068 197.58 253.773 197.78 253.523C197.981 253.271 198.129 253.034 198.226 252.812C198.325 252.589 198.374 252.354 198.374 252.109C198.374 251.828 198.306 251.585 198.171 251.379C198.038 251.173 197.856 251.014 197.624 250.902C197.392 250.79 197.132 250.734 196.843 250.734C196.536 250.734 196.267 250.798 196.038 250.926C195.812 251.051 195.636 251.227 195.511 251.453C195.389 251.68 195.327 251.945 195.327 252.25H194.405C194.405 251.781 194.514 251.37 194.73 251.016C194.946 250.661 195.24 250.385 195.612 250.187C195.987 249.99 196.408 249.891 196.874 249.891C197.343 249.891 197.758 249.99 198.12 250.187C198.482 250.385 198.766 250.652 198.972 250.988C199.178 251.324 199.28 251.698 199.28 252.109C199.28 252.404 199.227 252.691 199.12 252.973C199.016 253.251 198.834 253.562 198.573 253.906C198.316 254.247 197.958 254.664 197.499 255.156L195.702 257.078V257.141H199.421V258H194.374ZM203.996 258.109C203.408 258.109 202.906 257.949 202.492 257.629C202.078 257.306 201.762 256.839 201.543 256.227C201.324 255.612 201.215 254.87 201.215 254C201.215 253.135 201.324 252.397 201.543 251.785C201.765 251.171 202.082 250.702 202.496 250.379C202.913 250.053 203.413 249.891 203.996 249.891C204.58 249.891 205.078 250.053 205.492 250.379C205.909 250.702 206.227 251.171 206.445 251.785C206.667 252.397 206.778 253.135 206.778 254C206.778 254.87 206.668 255.612 206.449 256.227C206.231 256.839 205.914 257.306 205.5 257.629C205.086 257.949 204.585 258.109 203.996 258.109ZM203.996 257.25C204.58 257.25 205.033 256.969 205.356 256.406C205.679 255.844 205.84 255.042 205.84 254C205.84 253.307 205.766 252.717 205.617 252.23C205.472 251.743 205.261 251.372 204.985 251.117C204.711 250.862 204.382 250.734 203.996 250.734C203.418 250.734 202.966 251.02 202.641 251.59C202.315 252.158 202.153 252.961 202.153 254C202.153 254.693 202.225 255.281 202.371 255.766C202.517 256.25 202.727 256.618 203 256.871C203.276 257.124 203.608 257.25 203.996 257.25ZM212.196 250V258H211.228V251.016H211.181L209.228 252.312V251.328L211.228 250H212.196ZM218.209 258.109C217.751 258.109 217.338 258.018 216.971 257.836C216.604 257.654 216.309 257.404 216.088 257.086C215.867 256.768 215.746 256.406 215.725 256H216.662C216.699 256.362 216.863 256.661 217.154 256.898C217.449 257.133 217.8 257.25 218.209 257.25C218.537 257.25 218.829 257.173 219.084 257.02C219.342 256.866 219.544 256.655 219.69 256.387C219.838 256.116 219.912 255.81 219.912 255.469C219.912 255.12 219.835 254.809 219.682 254.535C219.531 254.259 219.322 254.042 219.057 253.883C218.791 253.724 218.488 253.643 218.147 253.641C217.902 253.638 217.651 253.676 217.393 253.754C217.135 253.829 216.923 253.927 216.756 254.047L215.85 253.937L216.334 250H220.49V250.859H217.147L216.865 253.219H216.912C217.076 253.089 217.282 252.98 217.529 252.895C217.777 252.809 218.035 252.766 218.303 252.766C218.793 252.766 219.229 252.883 219.612 253.117C219.997 253.349 220.299 253.667 220.518 254.07C220.739 254.474 220.85 254.935 220.85 255.453C220.85 255.964 220.735 256.419 220.506 256.82C220.279 257.219 219.967 257.534 219.569 257.766C219.17 257.995 218.717 258.109 218.209 258.109Z" fill="#8F8F91"/>
<path d="M248.974 258V257.297L251.615 254.406C251.925 254.068 252.18 253.773 252.38 253.523C252.581 253.271 252.729 253.034 252.826 252.812C252.925 252.589 252.974 252.354 252.974 252.109C252.974 251.828 252.907 251.585 252.771 251.379C252.638 251.173 252.456 251.014 252.224 250.902C251.992 250.79 251.732 250.734 251.443 250.734C251.136 250.734 250.867 250.798 250.638 250.926C250.412 251.051 250.236 251.227 250.111 251.453C249.989 251.68 249.927 251.945 249.927 252.25H249.005C249.005 251.781 249.114 251.37 249.33 251.016C249.546 250.661 249.84 250.385 250.213 250.187C250.588 249.99 251.008 249.891 251.474 249.891C251.943 249.891 252.358 249.99 252.72 250.187C253.082 250.385 253.366 250.652 253.572 250.988C253.778 251.324 253.88 251.698 253.88 252.109C253.88 252.404 253.827 252.691 253.72 252.973C253.616 253.251 253.434 253.562 253.173 253.906C252.916 254.247 252.558 254.664 252.099 255.156L250.302 257.078V257.141H254.021V258H248.974ZM258.596 258.109C258.008 258.109 257.506 257.949 257.092 257.629C256.678 257.306 256.362 256.839 256.143 256.227C255.924 255.612 255.815 254.87 255.815 254C255.815 253.135 255.924 252.397 256.143 251.785C256.365 251.171 256.682 250.702 257.096 250.379C257.513 250.053 258.013 249.891 258.596 249.891C259.18 249.891 259.678 250.053 260.092 250.379C260.509 250.702 260.827 251.171 261.046 251.785C261.267 252.397 261.378 253.135 261.378 254C261.378 254.87 261.268 255.612 261.049 256.227C260.831 256.839 260.514 257.306 260.1 257.629C259.686 257.949 259.185 258.109 258.596 258.109ZM258.596 257.25C259.18 257.25 259.633 256.969 259.956 256.406C260.279 255.844 260.44 255.042 260.44 254C260.44 253.307 260.366 252.717 260.217 252.23C260.072 251.743 259.861 251.372 259.585 251.117C259.311 250.862 258.982 250.734 258.596 250.734C258.018 250.734 257.566 251.02 257.241 251.59C256.915 252.158 256.753 252.961 256.753 254C256.753 254.693 256.825 255.281 256.971 255.766C257.117 256.25 257.327 256.618 257.6 256.871C257.876 257.124 258.208 257.25 258.596 257.25ZM266.797 250V258H265.828V251.016H265.781L263.828 252.312V251.328L265.828 250H266.797ZM272.887 258.109C272.559 258.104 272.231 258.042 271.903 257.922C271.575 257.802 271.275 257.6 271.005 257.316C270.734 257.03 270.516 256.643 270.352 256.156C270.188 255.667 270.106 255.052 270.106 254.312C270.106 253.604 270.172 252.977 270.305 252.43C270.438 251.88 270.631 251.418 270.883 251.043C271.136 250.665 271.441 250.379 271.797 250.184C272.157 249.988 272.562 249.891 273.012 249.891C273.46 249.891 273.859 249.98 274.208 250.16C274.559 250.337 274.846 250.585 275.067 250.902C275.288 251.22 275.432 251.586 275.497 252H274.544C274.455 251.641 274.283 251.342 274.028 251.105C273.773 250.868 273.434 250.75 273.012 250.75C272.393 250.75 271.904 251.02 271.547 251.559C271.193 252.098 271.015 252.854 271.012 253.828H271.075C271.221 253.607 271.394 253.418 271.594 253.262C271.797 253.103 272.021 252.98 272.266 252.895C272.511 252.809 272.77 252.766 273.044 252.766C273.502 252.766 273.921 252.88 274.301 253.109C274.682 253.336 274.986 253.65 275.215 254.051C275.445 254.449 275.559 254.906 275.559 255.422C275.559 255.917 275.449 256.37 275.227 256.781C275.006 257.19 274.695 257.516 274.294 257.758C273.895 257.997 273.426 258.115 272.887 258.109ZM272.887 257.25C273.215 257.25 273.51 257.168 273.77 257.004C274.033 256.84 274.24 256.62 274.391 256.344C274.545 256.068 274.622 255.76 274.622 255.422C274.622 255.091 274.547 254.79 274.399 254.52C274.253 254.246 274.051 254.029 273.794 253.867C273.538 253.706 273.247 253.625 272.919 253.625C272.671 253.625 272.441 253.674 272.227 253.773C272.014 253.87 271.826 254.003 271.665 254.172C271.506 254.341 271.381 254.535 271.29 254.754C271.199 254.97 271.153 255.198 271.153 255.437C271.153 255.755 271.227 256.052 271.376 256.328C271.527 256.604 271.732 256.827 271.993 256.996C272.256 257.165 272.554 257.25 272.887 257.25Z" fill="#8F8F91"/>
<path d="M303.574 258V257.297L306.215 254.406C306.525 254.068 306.78 253.773 306.98 253.523C307.181 253.271 307.329 253.034 307.426 252.812C307.525 252.589 307.574 252.354 307.574 252.109C307.574 251.828 307.507 251.585 307.371 251.379C307.238 251.173 307.056 251.014 306.824 250.902C306.592 250.79 306.332 250.734 306.043 250.734C305.736 250.734 305.467 250.798 305.238 250.926C305.012 251.051 304.836 251.227 304.711 251.453C304.589 251.68 304.527 251.945 304.527 252.25H303.605C303.605 251.781 303.714 251.37 303.93 251.016C304.146 250.661 304.44 250.385 304.813 250.187C305.188 249.99 305.608 249.891 306.074 249.891C306.543 249.891 306.958 249.99 307.32 250.187C307.682 250.385 307.966 250.652 308.172 250.988C308.378 251.324 308.48 251.698 308.48 252.109C308.48 252.404 308.427 252.691 308.32 252.973C308.216 253.251 308.034 253.562 307.773 253.906C307.516 254.247 307.158 254.664 306.699 255.156L304.902 257.078V257.141H308.621V258H303.574ZM313.196 258.109C312.608 258.109 312.106 257.949 311.692 257.629C311.278 257.306 310.962 256.839 310.743 256.227C310.524 255.612 310.415 254.87 310.415 254C310.415 253.135 310.524 252.397 310.743 251.785C310.965 251.171 311.282 250.702 311.696 250.379C312.113 250.053 312.613 249.891 313.196 249.891C313.78 249.891 314.278 250.053 314.692 250.379C315.109 250.702 315.427 251.171 315.646 251.785C315.867 252.397 315.978 253.135 315.978 254C315.978 254.87 315.868 255.612 315.649 256.227C315.431 256.839 315.114 257.306 314.7 257.629C314.286 257.949 313.785 258.109 313.196 258.109ZM313.196 257.25C313.78 257.25 314.233 256.969 314.556 256.406C314.879 255.844 315.04 255.042 315.04 254C315.04 253.307 314.966 252.717 314.817 252.23C314.672 251.743 314.461 251.372 314.185 251.117C313.911 250.862 313.582 250.734 313.196 250.734C312.618 250.734 312.166 251.02 311.841 251.59C311.515 252.158 311.353 252.961 311.353 254C311.353 254.693 311.425 255.281 311.571 255.766C311.717 256.25 311.927 256.618 312.2 256.871C312.476 257.124 312.808 257.25 313.196 257.25ZM321.396 250V258H320.428V251.016H320.381L318.428 252.312V251.328L320.428 250H321.396ZM325.378 258L328.956 250.922V250.859H324.831V250H329.956V250.906L326.394 258H325.378Z" fill="#8F8F91"/>
<path d="M358.174 258V257.297L360.815 254.406C361.125 254.068 361.38 253.773 361.58 253.523C361.781 253.271 361.929 253.034 362.026 252.812C362.125 252.589 362.174 252.354 362.174 252.109C362.174 251.828 362.106 251.585 361.971 251.379C361.838 251.173 361.656 251.014 361.424 250.902C361.192 250.79 360.932 250.734 360.643 250.734C360.336 250.734 360.067 250.798 359.838 250.926C359.612 251.051 359.436 251.227 359.311 251.453C359.189 251.68 359.127 251.945 359.127 252.25H358.205C358.205 251.781 358.314 251.37 358.53 251.016C358.746 250.661 359.04 250.385 359.412 250.187C359.787 249.99 360.208 249.891 360.674 249.891C361.143 249.891 361.558 249.99 361.92 250.187C362.282 250.385 362.566 250.652 362.772 250.988C362.978 251.324 363.08 251.698 363.08 252.109C363.08 252.404 363.027 252.691 362.92 252.973C362.816 253.251 362.634 253.562 362.373 253.906C362.116 254.247 361.758 254.664 361.299 255.156L359.502 257.078V257.141H363.221V258H358.174ZM367.796 258.109C367.208 258.109 366.706 257.949 366.292 257.629C365.878 257.306 365.562 256.839 365.343 256.227C365.124 255.612 365.015 254.87 365.015 254C365.015 253.135 365.124 252.397 365.343 251.785C365.564 251.171 365.882 250.702 366.296 250.379C366.713 250.053 367.213 249.891 367.796 249.891C368.38 249.891 368.878 250.053 369.292 250.379C369.709 250.702 370.027 251.171 370.245 251.785C370.467 252.397 370.578 253.135 370.578 254C370.578 254.87 370.468 255.612 370.249 256.227C370.031 256.839 369.714 257.306 369.3 257.629C368.886 257.949 368.385 258.109 367.796 258.109ZM367.796 257.25C368.38 257.25 368.833 256.969 369.156 256.406C369.479 255.844 369.64 255.042 369.64 254C369.64 253.307 369.566 252.717 369.417 252.23C369.272 251.743 369.061 251.372 368.785 251.117C368.511 250.862 368.182 250.734 367.796 250.734C367.218 250.734 366.766 251.02 366.441 251.59C366.115 252.158 365.953 252.961 365.953 254C365.953 254.693 366.025 255.281 366.171 255.766C366.317 256.25 366.527 256.618 366.8 256.871C367.076 257.124 367.408 257.25 367.796 257.25ZM375.996 250V258H375.028V251.016H374.981L373.028 252.312V251.328L375.028 250H375.996ZM382.04 258.109C381.504 258.109 381.03 258.014 380.619 257.824C380.21 257.632 379.891 257.367 379.661 257.031C379.432 256.693 379.319 256.307 379.322 255.875C379.319 255.536 379.385 255.224 379.521 254.937C379.656 254.648 379.841 254.408 380.076 254.215C380.313 254.02 380.577 253.896 380.869 253.844V253.797C380.486 253.698 380.181 253.483 379.954 253.152C379.728 252.819 379.616 252.44 379.619 252.016C379.616 251.609 379.719 251.246 379.927 250.926C380.135 250.605 380.422 250.353 380.786 250.168C381.154 249.983 381.572 249.891 382.04 249.891C382.504 249.891 382.918 249.983 383.283 250.168C383.647 250.353 383.934 250.605 384.142 250.926C384.353 251.246 384.46 251.609 384.462 252.016C384.46 252.44 384.344 252.819 384.115 253.152C383.888 253.483 383.587 253.698 383.212 253.797V253.844C383.501 253.896 383.762 254.02 383.994 254.215C384.225 254.408 384.41 254.648 384.548 254.937C384.686 255.224 384.757 255.536 384.759 255.875C384.757 256.307 384.639 256.693 384.408 257.031C384.178 257.367 383.859 257.632 383.451 257.824C383.044 258.014 382.574 258.109 382.04 258.109ZM382.04 257.25C382.402 257.25 382.715 257.191 382.978 257.074C383.241 256.957 383.444 256.792 383.587 256.578C383.731 256.365 383.803 256.115 383.806 255.828C383.803 255.526 383.725 255.259 383.572 255.027C383.418 254.796 383.208 254.613 382.943 254.48C382.68 254.348 382.379 254.281 382.04 254.281C381.699 254.281 381.395 254.348 381.126 254.48C380.861 254.613 380.651 254.796 380.497 255.027C380.346 255.259 380.272 255.526 380.275 255.828C380.272 256.115 380.341 256.365 380.482 256.578C380.625 256.792 380.829 256.957 381.095 257.074C381.361 257.191 381.676 257.25 382.04 257.25ZM382.04 253.453C382.327 253.453 382.581 253.396 382.802 253.281C383.026 253.167 383.202 253.007 383.329 252.801C383.457 252.595 383.522 252.354 383.525 252.078C383.522 251.807 383.458 251.572 383.333 251.371C383.208 251.168 383.035 251.012 382.814 250.902C382.592 250.79 382.335 250.734 382.04 250.734C381.741 250.734 381.479 250.79 381.255 250.902C381.031 251.012 380.858 251.168 380.736 251.371C380.613 251.572 380.553 251.807 380.556 252.078C380.553 252.354 380.615 252.595 380.74 252.801C380.867 253.007 381.043 253.167 381.267 253.281C381.491 253.396 381.749 253.453 382.04 253.453Z" fill="#8F8F91"/>
<path d="M412.774 258V257.297L415.415 254.406C415.725 254.068 415.98 253.773 416.18 253.523C416.381 253.271 416.529 253.034 416.626 252.812C416.725 252.589 416.774 252.354 416.774 252.109C416.774 251.828 416.706 251.585 416.571 251.379C416.438 251.173 416.256 251.014 416.024 250.902C415.792 250.79 415.532 250.734 415.243 250.734C414.936 250.734 414.667 250.798 414.438 250.926C414.212 251.051 414.036 251.227 413.911 251.453C413.788 251.68 413.727 251.945 413.727 252.25H412.805C412.805 251.781 412.913 251.37 413.13 251.016C413.346 250.661 413.64 250.385 414.012 250.187C414.387 249.99 414.808 249.891 415.274 249.891C415.743 249.891 416.158 249.99 416.52 250.187C416.882 250.385 417.166 250.652 417.372 250.988C417.578 251.324 417.68 251.698 417.68 252.109C417.68 252.404 417.627 252.691 417.52 252.973C417.416 253.251 417.234 253.562 416.973 253.906C416.716 254.247 416.358 254.664 415.899 255.156L414.102 257.078V257.141H417.821V258H412.774ZM422.396 258.109C421.808 258.109 421.306 257.949 420.892 257.629C420.478 257.306 420.162 256.839 419.943 256.227C419.724 255.612 419.615 254.87 419.615 254C419.615 253.135 419.724 252.397 419.943 251.785C420.164 251.171 420.482 250.702 420.896 250.379C421.313 250.053 421.813 249.891 422.396 249.891C422.98 249.891 423.478 250.053 423.892 250.379C424.309 250.702 424.627 251.171 424.845 251.785C425.067 252.397 425.177 253.135 425.177 254C425.177 254.87 425.068 255.612 424.849 256.227C424.631 256.839 424.314 257.306 423.9 257.629C423.486 257.949 422.985 258.109 422.396 258.109ZM422.396 257.25C422.98 257.25 423.433 256.969 423.756 256.406C424.079 255.844 424.24 255.042 424.24 254C424.24 253.307 424.166 252.717 424.017 252.23C423.872 251.743 423.661 251.372 423.385 251.117C423.111 250.862 422.782 250.734 422.396 250.734C421.818 250.734 421.366 251.02 421.041 251.59C420.715 252.158 420.552 252.961 420.552 254C420.552 254.693 420.625 255.281 420.771 255.766C420.917 256.25 421.127 256.618 421.4 256.871C421.676 257.124 422.008 257.25 422.396 257.25ZM430.596 250V258H429.628V251.016H429.581L427.628 252.312V251.328L429.628 250H430.596ZM436.578 249.891C436.906 249.893 437.234 249.956 437.562 250.078C437.89 250.201 438.19 250.404 438.461 250.687C438.732 250.969 438.949 251.353 439.113 251.84C439.277 252.327 439.359 252.937 439.359 253.672C439.359 254.383 439.291 255.014 439.156 255.566C439.023 256.116 438.83 256.579 438.578 256.957C438.328 257.335 438.023 257.621 437.664 257.816C437.307 258.012 436.903 258.109 436.453 258.109C436.005 258.109 435.605 258.021 435.254 257.844C434.905 257.664 434.618 257.415 434.394 257.098C434.173 256.777 434.031 256.406 433.969 255.984H434.922C435.008 256.352 435.178 256.655 435.433 256.895C435.691 257.132 436.031 257.25 436.453 257.25C437.07 257.25 437.557 256.98 437.914 256.441C438.273 255.902 438.453 255.141 438.453 254.156H438.39C438.245 254.375 438.071 254.564 437.871 254.723C437.67 254.882 437.448 255.004 437.203 255.09C436.958 255.176 436.698 255.219 436.422 255.219C435.963 255.219 435.543 255.105 435.16 254.879C434.78 254.65 434.475 254.336 434.246 253.937C434.019 253.536 433.906 253.078 433.906 252.562C433.906 252.073 434.015 251.625 434.234 251.219C434.455 250.81 434.765 250.484 435.164 250.242C435.565 250 436.036 249.883 436.578 249.891ZM436.578 250.75C436.25 250.75 435.954 250.832 435.691 250.996C435.431 251.158 435.224 251.376 435.07 251.652C434.919 251.926 434.844 252.229 434.844 252.562C434.844 252.896 434.916 253.199 435.062 253.473C435.211 253.743 435.413 253.96 435.668 254.121C435.926 254.28 436.219 254.359 436.547 254.359C436.794 254.359 437.024 254.311 437.238 254.215C437.452 254.116 437.638 253.982 437.797 253.812C437.958 253.641 438.084 253.447 438.176 253.23C438.267 253.012 438.312 252.784 438.312 252.547C438.312 252.234 438.237 251.941 438.086 251.668C437.937 251.395 437.732 251.173 437.469 251.004C437.208 250.835 436.911 250.75 436.578 250.75Z" fill="#8F8F91"/>
<path d="M467.374 258V257.297L470.015 254.406C470.325 254.068 470.58 253.773 470.781 253.523C470.981 253.271 471.129 253.034 471.226 252.812C471.325 252.589 471.374 252.354 471.374 252.109C471.374 251.828 471.307 251.585 471.171 251.379C471.038 251.173 470.856 251.014 470.624 250.902C470.392 250.79 470.132 250.734 469.843 250.734C469.536 250.734 469.267 250.798 469.038 250.926C468.812 251.051 468.636 251.227 468.511 251.453C468.389 251.68 468.327 251.945 468.327 252.25H467.406C467.406 251.781 467.514 251.37 467.73 251.016C467.946 250.661 468.24 250.385 468.613 250.187C468.988 249.99 469.408 249.891 469.874 249.891C470.343 249.891 470.758 249.99 471.12 250.187C471.482 250.385 471.766 250.652 471.972 250.988C472.178 251.324 472.281 251.698 472.281 252.109C472.281 252.404 472.227 252.691 472.12 252.973C472.016 253.251 471.834 253.562 471.573 253.906C471.316 254.247 470.958 254.664 470.499 255.156L468.702 257.078V257.141H472.421V258H467.374ZM476.996 258.109C476.408 258.109 475.906 257.949 475.492 257.629C475.078 257.306 474.762 256.839 474.543 256.227C474.324 255.612 474.215 254.87 474.215 254C474.215 253.135 474.324 252.397 474.543 251.785C474.765 251.171 475.082 250.702 475.496 250.379C475.913 250.053 476.413 249.891 476.996 249.891C477.58 249.891 478.078 250.053 478.492 250.379C478.909 250.702 479.227 251.171 479.446 251.785C479.667 252.397 479.778 253.135 479.778 254C479.778 254.87 479.668 255.612 479.449 256.227C479.231 256.839 478.914 257.306 478.5 257.629C478.086 257.949 477.585 258.109 476.996 258.109ZM476.996 257.25C477.58 257.25 478.033 256.969 478.356 256.406C478.679 255.844 478.84 255.042 478.84 254C478.84 253.307 478.766 252.717 478.617 252.23C478.472 251.743 478.261 251.372 477.985 251.117C477.711 250.862 477.382 250.734 476.996 250.734C476.418 250.734 475.966 251.02 475.641 251.59C475.315 252.158 475.153 252.961 475.153 254C475.153 254.693 475.226 255.281 475.371 255.766C475.517 256.25 475.727 256.618 476 256.871C476.276 257.124 476.608 257.25 476.996 257.25ZM481.618 258V257.297L484.259 254.406C484.569 254.068 484.824 253.773 485.025 253.523C485.225 253.271 485.374 253.034 485.47 252.812C485.569 252.589 485.618 252.354 485.618 252.109C485.618 251.828 485.551 251.585 485.415 251.379C485.282 251.173 485.1 251.014 484.868 250.902C484.637 250.79 484.376 250.734 484.087 250.734C483.78 250.734 483.512 250.798 483.282 250.926C483.056 251.051 482.88 251.227 482.755 251.453C482.633 251.68 482.572 251.945 482.572 252.25H481.65C481.65 251.781 481.758 251.37 481.974 251.016C482.19 250.661 482.484 250.385 482.857 250.187C483.232 249.99 483.652 249.891 484.118 249.891C484.587 249.891 485.003 249.99 485.365 250.187C485.726 250.385 486.01 250.652 486.216 250.988C486.422 251.324 486.525 251.698 486.525 252.109C486.525 252.404 486.471 252.691 486.365 252.973C486.26 253.251 486.078 253.562 485.818 253.906C485.56 254.247 485.202 254.664 484.743 255.156L482.947 257.078V257.141H486.665V258H481.618ZM491.24 258.109C490.652 258.109 490.151 257.949 489.737 257.629C489.323 257.306 489.006 256.839 488.787 256.227C488.569 255.612 488.459 254.87 488.459 254C488.459 253.135 488.569 252.397 488.787 251.785C489.009 251.171 489.326 250.702 489.74 250.379C490.157 250.053 490.657 249.891 491.24 249.891C491.824 249.891 492.323 250.053 492.737 250.379C493.153 250.702 493.471 251.171 493.69 251.785C493.911 252.397 494.022 253.135 494.022 254C494.022 254.87 493.912 255.612 493.694 256.227C493.475 256.839 493.158 257.306 492.744 257.629C492.33 257.949 491.829 258.109 491.24 258.109ZM491.24 257.25C491.824 257.25 492.277 256.969 492.6 256.406C492.923 255.844 493.084 255.042 493.084 254C493.084 253.307 493.01 252.717 492.862 252.23C492.716 251.743 492.505 251.372 492.229 251.117C491.955 250.862 491.626 250.734 491.24 250.734C490.662 250.734 490.211 251.02 489.885 251.59C489.559 252.158 489.397 252.961 489.397 254C489.397 254.693 489.47 255.281 489.615 255.766C489.761 256.25 489.971 256.618 490.244 256.871C490.52 257.124 490.852 257.25 491.24 257.25Z" fill="#8F8F91"/>
<path d="M521.974 258V257.297L524.615 254.406C524.925 254.068 525.18 253.773 525.38 253.523C525.581 253.271 525.729 253.034 525.826 252.812C525.925 252.589 525.974 252.354 525.974 252.109C525.974 251.828 525.907 251.585 525.771 251.379C525.638 251.173 525.456 251.014 525.224 250.902C524.992 250.79 524.732 250.734 524.443 250.734C524.136 250.734 523.867 250.798 523.638 250.926C523.412 251.051 523.236 251.227 523.111 251.453C522.989 251.68 522.927 251.945 522.927 252.25H522.005C522.005 251.781 522.114 251.37 522.33 251.016C522.546 250.661 522.84 250.385 523.213 250.187C523.588 249.99 524.008 249.891 524.474 249.891C524.943 249.891 525.358 249.99 525.72 250.187C526.082 250.385 526.366 250.652 526.572 250.988C526.778 251.324 526.88 251.698 526.88 252.109C526.88 252.404 526.827 252.691 526.72 252.973C526.616 253.251 526.434 253.562 526.173 253.906C525.916 254.247 525.558 254.664 525.099 255.156L523.302 257.078V257.141H527.021V258H521.974ZM531.596 258.109C531.008 258.109 530.506 257.949 530.092 257.629C529.678 257.306 529.362 256.839 529.143 256.227C528.924 255.612 528.815 254.87 528.815 254C528.815 253.135 528.924 252.397 529.143 251.785C529.365 251.171 529.682 250.702 530.096 250.379C530.513 250.053 531.013 249.891 531.596 249.891C532.18 249.891 532.678 250.053 533.092 250.379C533.509 250.702 533.827 251.171 534.046 251.785C534.267 252.397 534.378 253.135 534.378 254C534.378 254.87 534.268 255.612 534.049 256.227C533.831 256.839 533.514 257.306 533.1 257.629C532.686 257.949 532.185 258.109 531.596 258.109ZM531.596 257.25C532.18 257.25 532.633 256.969 532.956 256.406C533.279 255.844 533.44 255.042 533.44 254C533.44 253.307 533.366 252.717 533.217 252.23C533.072 251.743 532.861 251.372 532.585 251.117C532.311 250.862 531.982 250.734 531.596 250.734C531.018 250.734 530.566 251.02 530.241 251.59C529.915 252.158 529.753 252.961 529.753 254C529.753 254.693 529.825 255.281 529.971 255.766C530.117 256.25 530.327 256.618 530.6 256.871C530.876 257.124 531.208 257.25 531.596 257.25ZM536.218 258V257.297L538.859 254.406C539.169 254.068 539.424 253.773 539.625 253.523C539.825 253.271 539.974 253.034 540.07 252.812C540.169 252.589 540.218 252.354 540.218 252.109C540.218 251.828 540.151 251.585 540.015 251.379C539.882 251.173 539.7 251.014 539.468 250.902C539.237 250.79 538.976 250.734 538.687 250.734C538.38 250.734 538.112 250.798 537.882 250.926C537.656 251.051 537.48 251.227 537.355 251.453C537.233 251.68 537.172 251.945 537.172 252.25H536.25C536.25 251.781 536.358 251.37 536.574 251.016C536.79 250.661 537.084 250.385 537.457 250.187C537.832 249.99 538.252 249.891 538.718 249.891C539.187 249.891 539.602 249.99 539.964 250.187C540.326 250.385 540.61 250.652 540.816 250.988C541.022 251.324 541.125 251.698 541.125 252.109C541.125 252.404 541.071 252.691 540.964 252.973C540.86 253.251 540.678 253.562 540.418 253.906C540.16 254.247 539.802 254.664 539.343 255.156L537.547 257.078V257.141H541.265V258H536.218ZM546.919 250V258H545.95V251.016H545.903L543.95 252.312V251.328L545.95 250H546.919Z" fill="#8F8F91"/>
<path d="M576.574 258V257.297L579.215 254.406C579.525 254.068 579.78 253.773 579.98 253.523C580.181 253.271 580.329 253.034 580.426 252.812C580.525 252.589 580.574 252.354 580.574 252.109C580.574 251.828 580.507 251.585 580.371 251.379C580.238 251.173 580.056 251.014 579.824 250.902C579.592 250.79 579.332 250.734 579.043 250.734C578.736 250.734 578.467 250.798 578.238 250.926C578.012 251.051 577.836 251.227 577.711 251.453C577.589 251.68 577.527 251.945 577.527 252.25H576.605C576.605 251.781 576.714 251.37 576.93 251.016C577.146 250.661 577.44 250.385 577.813 250.187C578.188 249.99 578.608 249.891 579.074 249.891C579.543 249.891 579.958 249.99 580.32 250.187C580.682 250.385 580.966 250.652 581.172 250.988C581.378 251.324 581.48 251.698 581.48 252.109C581.48 252.404 581.427 252.691 581.32 252.973C581.216 253.251 581.034 253.562 580.773 253.906C580.516 254.247 580.158 254.664 579.699 255.156L577.902 257.078V257.141H581.621V258H576.574ZM586.196 258.109C585.608 258.109 585.106 257.949 584.692 257.629C584.278 257.306 583.962 256.839 583.743 256.227C583.524 255.612 583.415 254.87 583.415 254C583.415 253.135 583.524 252.397 583.743 251.785C583.965 251.171 584.282 250.702 584.696 250.379C585.113 250.053 585.613 249.891 586.196 249.891C586.78 249.891 587.278 250.053 587.692 250.379C588.109 250.702 588.427 251.171 588.646 251.785C588.867 252.397 588.978 253.135 588.978 254C588.978 254.87 588.868 255.612 588.649 256.227C588.431 256.839 588.114 257.306 587.7 257.629C587.286 257.949 586.785 258.109 586.196 258.109ZM586.196 257.25C586.78 257.25 587.233 256.969 587.556 256.406C587.879 255.844 588.04 255.042 588.04 254C588.04 253.307 587.966 252.717 587.817 252.23C587.672 251.743 587.461 251.372 587.185 251.117C586.911 250.862 586.582 250.734 586.196 250.734C585.618 250.734 585.166 251.02 584.841 251.59C584.515 252.158 584.353 252.961 584.353 254C584.353 254.693 584.425 255.281 584.571 255.766C584.717 256.25 584.927 256.618 585.2 256.871C585.476 257.124 585.808 257.25 586.196 257.25ZM590.818 258V257.297L593.459 254.406C593.769 254.068 594.024 253.773 594.225 253.523C594.425 253.271 594.574 253.034 594.67 252.812C594.769 252.589 594.818 252.354 594.818 252.109C594.818 251.828 594.751 251.585 594.615 251.379C594.482 251.173 594.3 251.014 594.068 250.902C593.837 250.79 593.576 250.734 593.287 250.734C592.98 250.734 592.712 250.798 592.482 250.926C592.256 251.051 592.08 251.227 591.955 251.453C591.833 251.68 591.771 251.945 591.771 252.25H590.85C590.85 251.781 590.958 251.37 591.174 251.016C591.39 250.661 591.684 250.385 592.057 250.187C592.432 249.99 592.852 249.891 593.318 249.891C593.787 249.891 594.202 249.99 594.564 250.187C594.926 250.385 595.21 250.652 595.416 250.988C595.622 251.324 595.725 251.698 595.725 252.109C595.725 252.404 595.671 252.691 595.564 252.973C595.46 253.251 595.278 253.562 595.018 253.906C594.76 254.247 594.402 254.664 593.943 255.156L592.146 257.078V257.141H595.865V258H590.818ZM597.94 258V257.297L600.581 254.406C600.891 254.068 601.146 253.773 601.347 253.523C601.547 253.271 601.696 253.034 601.792 252.812C601.891 252.589 601.94 252.354 601.94 252.109C601.94 251.828 601.873 251.585 601.737 251.379C601.604 251.173 601.422 251.014 601.19 250.902C600.959 250.79 600.698 250.734 600.409 250.734C600.102 250.734 599.834 250.798 599.604 250.926C599.378 251.051 599.202 251.227 599.077 251.453C598.955 251.68 598.894 251.945 598.894 252.25H597.972C597.972 251.781 598.08 251.37 598.296 251.016C598.512 250.661 598.806 250.385 599.179 250.187C599.554 249.99 599.974 249.891 600.44 249.891C600.909 249.891 601.325 249.99 601.687 250.187C602.049 250.385 602.332 250.652 602.538 250.988C602.744 251.324 602.847 251.698 602.847 252.109C602.847 252.404 602.793 252.691 602.687 252.973C602.582 253.251 602.4 253.562 602.14 253.906C601.882 254.247 601.524 254.664 601.065 255.156L599.269 257.078V257.141H602.987V258H597.94Z" fill="#8F8F91"/>
<path d="M29 44L604 43.9999" stroke="#E6E6E6"/>
<path d="M29 238L604 238" stroke="#E6E6E6"/>
<path d="M29 209.254L81.5531 195.134C81.8807 195.046 82.2254 195.043 82.5546 195.125L139.163 209.197C139.315 209.235 139.472 209.255 139.629 209.256L199.947 209.746H251.928H308.196H365H421.548C421.718 209.746 421.887 209.724 422.051 209.682L477.872 195.191C478.346 195.068 478.848 195.123 479.284 195.345L534.591 223.581C535.112 223.847 535.723 223.872 536.263 223.648L589 201.881" stroke="#D8D8D9" stroke-width="2"/>
<path d="M29 133.754L81.5531 119.634C81.8807 119.546 82.2254 119.543 82.5546 119.625L139.392 133.754L227.422 160.942C227.547 160.981 227.676 161.007 227.807 161.02L279.797 166.392C280.454 166.459 281.102 166.199 281.528 165.696L307.835 134.672C308.071 134.393 308.379 134.184 308.726 134.069L404.327 102.058C404.442 102.019 404.553 101.971 404.659 101.912L455.659 73.741C456.45 73.3038 457.436 73.452 458.064 74.1024L483.848 100.807C484.516 101.499 485.582 101.617 486.386 101.089L527.827 73.8436C528.583 73.3461 529.58 73.4192 530.256 74.0218L589 126.381" stroke="#58585A" stroke-width="2"/>
</svg>
