<svg width="604" height="287" viewBox="0 0 604 287" fill="none" xmlns="http://www.w3.org/2000/svg">
<path d="M1.27841 16V4.36364H3.03409V9.42045H8.83523V4.36364H10.5966V16H8.83523V10.9261H3.03409V16H1.27841ZM13.017 16V7.27273H14.7159V16H13.017ZM13.875 5.92614C13.5795 5.92614 13.3258 5.82765 13.1136 5.63068C12.9053 5.42992 12.8011 5.19129 12.8011 4.91477C12.8011 4.63447 12.9053 4.39583 13.1136 4.19886C13.3258 3.99811 13.5795 3.89773 13.875 3.89773C14.1705 3.89773 14.4223 3.99811 14.6307 4.19886C14.8428 4.39583 14.9489 4.63447 14.9489 4.91477C14.9489 5.19129 14.8428 5.42992 14.6307 5.63068C14.4223 5.82765 14.1705 5.92614 13.875 5.92614ZM23.5412 9.40341L22.0014 9.67614C21.937 9.47917 21.8348 9.29167 21.6946 9.11364C21.5582 8.93561 21.3726 8.78977 21.1378 8.67614C20.9029 8.5625 20.6094 8.50568 20.2571 8.50568C19.776 8.50568 19.3745 8.61364 19.0526 8.82955C18.7306 9.04167 18.5696 9.31629 18.5696 9.65341C18.5696 9.94508 18.6776 10.1799 18.8935 10.358C19.1094 10.536 19.4579 10.6818 19.9389 10.7955L21.3253 11.1136C22.1283 11.2992 22.7268 11.5852 23.1207 11.9716C23.5147 12.358 23.7116 12.8598 23.7116 13.4773C23.7116 14 23.5601 14.4659 23.2571 14.875C22.9579 15.2803 22.5393 15.5985 22.0014 15.8295C21.4673 16.0606 20.848 16.1761 20.1435 16.1761C19.1662 16.1761 18.3688 15.9678 17.7514 15.5511C17.134 15.1307 16.7552 14.5341 16.6151 13.7614L18.2571 13.5114C18.3594 13.9394 18.5696 14.2633 18.8878 14.483C19.206 14.6989 19.6207 14.8068 20.1321 14.8068C20.6889 14.8068 21.134 14.6913 21.4673 14.4602C21.8007 14.2254 21.9673 13.9394 21.9673 13.6023C21.9673 13.3295 21.8651 13.1004 21.6605 12.9148C21.4598 12.7292 21.151 12.589 20.7344 12.4943L19.2571 12.1705C18.4427 11.9848 17.8404 11.6894 17.4503 11.2841C17.0639 10.8788 16.8707 10.3655 16.8707 9.74432C16.8707 9.22917 17.0147 8.77841 17.3026 8.39205C17.5904 8.00568 17.9882 7.70455 18.4957 7.48864C19.0033 7.26894 19.5848 7.15909 20.2401 7.15909C21.1832 7.15909 21.9257 7.36364 22.4673 7.77273C23.009 8.17803 23.367 8.72159 23.5412 9.40341ZM29.6534 7.27273V8.63636H24.8864V7.27273H29.6534ZM26.1648 5.18182H27.8636V13.4375C27.8636 13.767 27.9129 14.0152 28.0114 14.1818C28.1098 14.3447 28.2367 14.4564 28.392 14.517C28.5511 14.5739 28.7235 14.6023 28.9091 14.6023C29.0455 14.6023 29.1648 14.5928 29.267 14.5739C29.3693 14.5549 29.4489 14.5398 29.5057 14.5284L29.8125 15.9318C29.714 15.9697 29.5739 16.0076 29.392 16.0455C29.2102 16.0871 28.983 16.1098 28.7102 16.1136C28.2633 16.1212 27.8466 16.0417 27.4602 15.875C27.0739 15.7083 26.7614 15.4508 26.5227 15.1023C26.2841 14.7538 26.1648 14.3163 26.1648 13.7898V5.18182ZM35.1151 16.1761C34.2969 16.1761 33.5829 15.9886 32.973 15.6136C32.3632 15.2386 31.8897 14.714 31.5526 14.0398C31.2154 13.3655 31.0469 12.5777 31.0469 11.6761C31.0469 10.7708 31.2154 9.97917 31.5526 9.30114C31.8897 8.62311 32.3632 8.09659 32.973 7.72159C33.5829 7.34659 34.2969 7.15909 35.1151 7.15909C35.9332 7.15909 36.6473 7.34659 37.2571 7.72159C37.867 8.09659 38.3404 8.62311 38.6776 9.30114C39.0147 9.97917 39.1832 10.7708 39.1832 11.6761C39.1832 12.5777 39.0147 13.3655 38.6776 14.0398C38.3404 14.714 37.867 15.2386 37.2571 15.6136C36.6473 15.9886 35.9332 16.1761 35.1151 16.1761ZM35.1207 14.75C35.651 14.75 36.0904 14.6098 36.4389 14.3295C36.7874 14.0492 37.045 13.6761 37.2116 13.2102C37.3821 12.7443 37.4673 12.2311 37.4673 11.6705C37.4673 11.1136 37.3821 10.6023 37.2116 10.1364C37.045 9.66667 36.7874 9.28977 36.4389 9.00568C36.0904 8.72159 35.651 8.57955 35.1207 8.57955C34.5866 8.57955 34.1435 8.72159 33.7912 9.00568C33.4427 9.28977 33.1832 9.66667 33.0128 10.1364C32.8461 10.6023 32.7628 11.1136 32.7628 11.6705C32.7628 12.2311 32.8461 12.7443 33.0128 13.2102C33.1832 13.6761 33.4427 14.0492 33.7912 14.3295C34.1435 14.6098 34.5866 14.75 35.1207 14.75ZM41.0795 16V7.27273H42.7216V8.65909H42.8125C42.9716 8.18939 43.2519 7.82008 43.6534 7.55114C44.0587 7.27841 44.517 7.14205 45.0284 7.14205C45.1345 7.14205 45.2595 7.14583 45.4034 7.15341C45.5511 7.16098 45.6667 7.17045 45.75 7.18182V8.80682C45.6818 8.78788 45.5606 8.76705 45.3864 8.74432C45.2121 8.7178 45.0379 8.70455 44.8636 8.70455C44.4621 8.70455 44.1042 8.78977 43.7898 8.96023C43.4792 9.12689 43.233 9.35985 43.0511 9.65909C42.8693 9.95455 42.7784 10.2917 42.7784 10.6705V16H41.0795ZM47.2202 16V7.27273H48.919V16H47.2202ZM48.0781 5.92614C47.7827 5.92614 47.5289 5.82765 47.3168 5.63068C47.1084 5.42992 47.0043 5.19129 47.0043 4.91477C47.0043 4.63447 47.1084 4.39583 47.3168 4.19886C47.5289 3.99811 47.7827 3.89773 48.0781 3.89773C48.3736 3.89773 48.6255 3.99811 48.8338 4.19886C49.0459 4.39583 49.152 4.63447 49.152 4.91477C49.152 5.19129 49.0459 5.42992 48.8338 5.63068C48.6255 5.82765 48.3736 5.92614 48.0781 5.92614ZM54.8807 16.1761C54.036 16.1761 53.3087 15.9848 52.6989 15.6023C52.0928 15.2159 51.6269 14.6837 51.3011 14.0057C50.9754 13.3277 50.8125 12.5511 50.8125 11.6761C50.8125 10.7898 50.9792 10.0076 51.3125 9.32955C51.6458 8.64773 52.1155 8.11553 52.7216 7.73295C53.3277 7.35038 54.0417 7.15909 54.8636 7.15909C55.5265 7.15909 56.1174 7.2822 56.6364 7.52841C57.1553 7.77083 57.5739 8.11174 57.892 8.55114C58.214 8.99053 58.4053 9.50379 58.4659 10.0909H56.8125C56.7216 9.68182 56.5133 9.32955 56.1875 9.03409C55.8655 8.73864 55.4337 8.59091 54.892 8.59091C54.4186 8.59091 54.0038 8.71591 53.6477 8.96591C53.2955 9.21212 53.0208 9.56439 52.8239 10.0227C52.6269 10.4773 52.5284 11.0152 52.5284 11.6364C52.5284 12.2727 52.625 12.822 52.8182 13.2841C53.0114 13.7462 53.2841 14.1042 53.6364 14.358C53.9924 14.6117 54.411 14.7386 54.892 14.7386C55.214 14.7386 55.5057 14.6799 55.767 14.5625C56.0322 14.4413 56.2538 14.2689 56.4318 14.0455C56.6136 13.822 56.7405 13.553 56.8125 13.2386H58.4659C58.4053 13.803 58.2216 14.3068 57.9148 14.75C57.608 15.1932 57.197 15.5417 56.6818 15.7955C56.1705 16.0492 55.5701 16.1761 54.8807 16.1761ZM62.8224 16.1932C62.2694 16.1932 61.7694 16.0909 61.3224 15.8864C60.8755 15.678 60.5213 15.3769 60.2599 14.983C60.0024 14.589 59.8736 14.1061 59.8736 13.5341C59.8736 13.0417 59.9683 12.6364 60.1577 12.3182C60.3471 12 60.6027 11.7481 60.9247 11.5625C61.2467 11.3769 61.6065 11.2367 62.0043 11.142C62.402 11.0473 62.8073 10.9754 63.2202 10.9261C63.7429 10.8655 64.1671 10.8163 64.4929 10.7784C64.8187 10.7367 65.0554 10.6705 65.2031 10.5795C65.3509 10.4886 65.4247 10.3409 65.4247 10.1364V10.0966C65.4247 9.60038 65.2846 9.21591 65.0043 8.94318C64.7277 8.67045 64.3149 8.53409 63.7656 8.53409C63.1937 8.53409 62.7429 8.66098 62.4134 8.91477C62.0876 9.16477 61.8622 9.44318 61.7372 9.75L60.1406 9.38636C60.33 8.85606 60.6065 8.42803 60.9702 8.10227C61.3376 7.77273 61.7599 7.53409 62.2372 7.38636C62.7145 7.23485 63.2164 7.15909 63.7429 7.15909C64.0914 7.15909 64.4607 7.20076 64.8509 7.28409C65.2448 7.36364 65.6122 7.51136 65.9531 7.72727C66.2978 7.94318 66.58 8.25189 66.7997 8.65341C67.0194 9.05114 67.1293 9.56818 67.1293 10.2045V16H65.4702V14.8068H65.402C65.2921 15.0265 65.1274 15.2424 64.9077 15.4545C64.688 15.6667 64.4058 15.8428 64.0611 15.983C63.7164 16.1231 63.3035 16.1932 62.8224 16.1932ZM63.1918 14.8295C63.6615 14.8295 64.063 14.7367 64.3963 14.5511C64.7334 14.3655 64.9891 14.1231 65.1634 13.8239C65.3414 13.5208 65.4304 13.197 65.4304 12.8523V11.7273C65.3698 11.7879 65.2524 11.8447 65.0781 11.8977C64.9077 11.947 64.7126 11.9905 64.4929 12.0284C64.2732 12.0625 64.0592 12.0947 63.8509 12.125C63.6425 12.1515 63.4683 12.1742 63.3281 12.1932C62.9986 12.2348 62.6974 12.3049 62.4247 12.4034C62.1558 12.5019 61.9399 12.6439 61.777 12.8295C61.6179 13.0114 61.5384 13.2538 61.5384 13.5568C61.5384 13.9773 61.6937 14.2955 62.0043 14.5114C62.3149 14.7235 62.7107 14.8295 63.1918 14.8295ZM71.0909 4.36364V16H69.392V4.36364H71.0909ZM77.7472 16V4.36364H84.9631V5.875H79.5028V9.42045H84.446V10.9261H79.5028V16H77.7472ZM86.9858 16V7.27273H88.6847V16H86.9858ZM87.8438 5.92614C87.5483 5.92614 87.2945 5.82765 87.0824 5.63068C86.8741 5.42992 86.7699 5.19129 86.7699 4.91477C86.7699 4.63447 86.8741 4.39583 87.0824 4.19886C87.2945 3.99811 87.5483 3.89773 87.8438 3.89773C88.1392 3.89773 88.3911 3.99811 88.5994 4.19886C88.8116 4.39583 88.9176 4.63447 88.9176 4.91477C88.9176 5.19129 88.8116 5.42992 88.5994 5.63068C88.3911 5.82765 88.1392 5.92614 87.8438 5.92614ZM92.669 10.8182V16H90.9702V7.27273H92.6009V8.69318H92.7088C92.9096 8.23106 93.224 7.85985 93.652 7.57955C94.0838 7.29924 94.6274 7.15909 95.2827 7.15909C95.8774 7.15909 96.3982 7.28409 96.8452 7.53409C97.2921 7.7803 97.6387 8.14773 97.8849 8.63636C98.1312 9.125 98.2543 9.72917 98.2543 10.4489V16H96.5554V10.6534C96.5554 10.0208 96.3906 9.52652 96.0611 9.17045C95.7315 8.81061 95.2789 8.63068 94.7031 8.63068C94.3092 8.63068 93.9588 8.71591 93.652 8.88636C93.349 9.05682 93.1084 9.30682 92.9304 9.63636C92.7562 9.96212 92.669 10.3561 92.669 10.8182ZM103.072 16.1932C102.519 16.1932 102.019 16.0909 101.572 15.8864C101.125 15.678 100.771 15.3769 100.51 14.983C100.252 14.589 100.124 14.1061 100.124 13.5341C100.124 13.0417 100.218 12.6364 100.408 12.3182C100.597 12 100.853 11.7481 101.175 11.5625C101.497 11.3769 101.857 11.2367 102.254 11.142C102.652 11.0473 103.057 10.9754 103.47 10.9261C103.993 10.8655 104.417 10.8163 104.743 10.7784C105.069 10.7367 105.305 10.6705 105.453 10.5795C105.601 10.4886 105.675 10.3409 105.675 10.1364V10.0966C105.675 9.60038 105.535 9.21591 105.254 8.94318C104.978 8.67045 104.565 8.53409 104.016 8.53409C103.444 8.53409 102.993 8.66098 102.663 8.91477C102.338 9.16477 102.112 9.44318 101.987 9.75L100.391 9.38636C100.58 8.85606 100.857 8.42803 101.22 8.10227C101.588 7.77273 102.01 7.53409 102.487 7.38636C102.964 7.23485 103.466 7.15909 103.993 7.15909C104.341 7.15909 104.711 7.20076 105.101 7.28409C105.495 7.36364 105.862 7.51136 106.203 7.72727C106.548 7.94318 106.83 8.25189 107.05 8.65341C107.269 9.05114 107.379 9.56818 107.379 10.2045V16H105.72V14.8068H105.652C105.542 15.0265 105.377 15.2424 105.158 15.4545C104.938 15.6667 104.656 15.8428 104.311 15.983C103.966 16.1231 103.554 16.1932 103.072 16.1932ZM103.442 14.8295C103.911 14.8295 104.313 14.7367 104.646 14.5511C104.983 14.3655 105.239 14.1231 105.413 13.8239C105.591 13.5208 105.68 13.197 105.68 12.8523V11.7273C105.62 11.7879 105.502 11.8447 105.328 11.8977C105.158 11.947 104.963 11.9905 104.743 12.0284C104.523 12.0625 104.309 12.0947 104.101 12.125C103.893 12.1515 103.718 12.1742 103.578 12.1932C103.249 12.2348 102.947 12.3049 102.675 12.4034C102.406 12.5019 102.19 12.6439 102.027 12.8295C101.868 13.0114 101.788 13.2538 101.788 13.5568C101.788 13.9773 101.944 14.2955 102.254 14.5114C102.565 14.7235 102.961 14.8295 103.442 14.8295ZM111.341 10.8182V16H109.642V7.27273H111.273V8.69318H111.381C111.581 8.23106 111.896 7.85985 112.324 7.57955C112.756 7.29924 113.299 7.15909 113.955 7.15909C114.549 7.15909 115.07 7.28409 115.517 7.53409C115.964 7.7803 116.311 8.14773 116.557 8.63636C116.803 9.125 116.926 9.72917 116.926 10.4489V16H115.227V10.6534C115.227 10.0208 115.063 9.52652 114.733 9.17045C114.403 8.81061 113.951 8.63068 113.375 8.63068C112.981 8.63068 112.631 8.71591 112.324 8.88636C112.021 9.05682 111.78 9.30682 111.602 9.63636C111.428 9.96212 111.341 10.3561 111.341 10.8182ZM122.881 16.1761C122.036 16.1761 121.309 15.9848 120.699 15.6023C120.093 15.2159 119.627 14.6837 119.301 14.0057C118.975 13.3277 118.812 12.5511 118.812 11.6761C118.812 10.7898 118.979 10.0076 119.312 9.32955C119.646 8.64773 120.116 8.11553 120.722 7.73295C121.328 7.35038 122.042 7.15909 122.864 7.15909C123.527 7.15909 124.117 7.2822 124.636 7.52841C125.155 7.77083 125.574 8.11174 125.892 8.55114C126.214 8.99053 126.405 9.50379 126.466 10.0909H124.812C124.722 9.68182 124.513 9.32955 124.188 9.03409C123.866 8.73864 123.434 8.59091 122.892 8.59091C122.419 8.59091 122.004 8.71591 121.648 8.96591C121.295 9.21212 121.021 9.56439 120.824 10.0227C120.627 10.4773 120.528 11.0152 120.528 11.6364C120.528 12.2727 120.625 12.822 120.818 13.2841C121.011 13.7462 121.284 14.1042 121.636 14.358C121.992 14.6117 122.411 14.7386 122.892 14.7386C123.214 14.7386 123.506 14.6799 123.767 14.5625C124.032 14.4413 124.254 14.2689 124.432 14.0455C124.614 13.822 124.741 13.553 124.812 13.2386H126.466C126.405 13.803 126.222 14.3068 125.915 14.75C125.608 15.1932 125.197 15.5417 124.682 15.7955C124.17 16.0492 123.57 16.1761 122.881 16.1761ZM128.283 16V7.27273H129.982V16H128.283ZM129.141 5.92614C128.845 5.92614 128.591 5.82765 128.379 5.63068C128.171 5.42992 128.067 5.19129 128.067 4.91477C128.067 4.63447 128.171 4.39583 128.379 4.19886C128.591 3.99811 128.845 3.89773 129.141 3.89773C129.436 3.89773 129.688 3.99811 129.896 4.19886C130.108 4.39583 130.214 4.63447 130.214 4.91477C130.214 5.19129 130.108 5.42992 129.896 5.63068C129.688 5.82765 129.436 5.92614 129.141 5.92614ZM134.807 16.1932C134.254 16.1932 133.754 16.0909 133.307 15.8864C132.86 15.678 132.506 15.3769 132.244 14.983C131.987 14.589 131.858 14.1061 131.858 13.5341C131.858 13.0417 131.953 12.6364 132.142 12.3182C132.331 12 132.587 11.7481 132.909 11.5625C133.231 11.3769 133.591 11.2367 133.989 11.142C134.386 11.0473 134.792 10.9754 135.205 10.9261C135.727 10.8655 136.152 10.8163 136.477 10.7784C136.803 10.7367 137.04 10.6705 137.188 10.5795C137.335 10.4886 137.409 10.3409 137.409 10.1364V10.0966C137.409 9.60038 137.269 9.21591 136.989 8.94318C136.712 8.67045 136.299 8.53409 135.75 8.53409C135.178 8.53409 134.727 8.66098 134.398 8.91477C134.072 9.16477 133.847 9.44318 133.722 9.75L132.125 9.38636C132.314 8.85606 132.591 8.42803 132.955 8.10227C133.322 7.77273 133.744 7.53409 134.222 7.38636C134.699 7.23485 135.201 7.15909 135.727 7.15909C136.076 7.15909 136.445 7.20076 136.835 7.28409C137.229 7.36364 137.597 7.51136 137.938 7.72727C138.282 7.94318 138.564 8.25189 138.784 8.65341C139.004 9.05114 139.114 9.56818 139.114 10.2045V16H137.455V14.8068H137.386C137.277 15.0265 137.112 15.2424 136.892 15.4545C136.672 15.6667 136.39 15.8428 136.045 15.983C135.701 16.1231 135.288 16.1932 134.807 16.1932ZM135.176 14.8295C135.646 14.8295 136.047 14.7367 136.381 14.5511C136.718 14.3655 136.973 14.1231 137.148 13.8239C137.326 13.5208 137.415 13.197 137.415 12.8523V11.7273C137.354 11.7879 137.237 11.8447 137.062 11.8977C136.892 11.947 136.697 11.9905 136.477 12.0284C136.258 12.0625 136.044 12.0947 135.835 12.125C135.627 12.1515 135.453 12.1742 135.312 12.1932C134.983 12.2348 134.682 12.3049 134.409 12.4034C134.14 12.5019 133.924 12.6439 133.761 12.8295C133.602 13.0114 133.523 13.2538 133.523 13.5568C133.523 13.9773 133.678 14.2955 133.989 14.5114C134.299 14.7235 134.695 14.8295 135.176 14.8295ZM143.075 4.36364V16H141.376V4.36364H143.075ZM151.901 9.40341L150.361 9.67614C150.296 9.47917 150.194 9.29167 150.054 9.11364C149.918 8.93561 149.732 8.78977 149.497 8.67614C149.262 8.5625 148.969 8.50568 148.616 8.50568C148.135 8.50568 147.734 8.61364 147.412 8.82955C147.09 9.04167 146.929 9.31629 146.929 9.65341C146.929 9.94508 147.037 10.1799 147.253 10.358C147.469 10.536 147.817 10.6818 148.298 10.7955L149.685 11.1136C150.488 11.2992 151.086 11.5852 151.48 11.9716C151.874 12.358 152.071 12.8598 152.071 13.4773C152.071 14 151.92 14.4659 151.616 14.875C151.317 15.2803 150.899 15.5985 150.361 15.8295C149.827 16.0606 149.207 16.1761 148.503 16.1761C147.526 16.1761 146.728 15.9678 146.111 15.5511C145.493 15.1307 145.115 14.5341 144.974 13.7614L146.616 13.5114C146.719 13.9394 146.929 14.2633 147.247 14.483C147.565 14.6989 147.98 14.8068 148.491 14.8068C149.048 14.8068 149.493 14.6913 149.827 14.4602C150.16 14.2254 150.327 13.9394 150.327 13.6023C150.327 13.3295 150.224 13.1004 150.02 12.9148C149.819 12.7292 149.51 12.589 149.094 12.4943L147.616 12.1705C146.802 11.9848 146.2 11.6894 145.81 11.2841C145.423 10.8788 145.23 10.3655 145.23 9.74432C145.23 9.22917 145.374 8.77841 145.662 8.39205C145.95 8.00568 146.348 7.70455 146.855 7.48864C147.363 7.26894 147.944 7.15909 148.599 7.15909C149.543 7.15909 150.285 7.36364 150.827 7.77273C151.368 8.17803 151.726 8.72159 151.901 9.40341Z" fill="#18181B"/>
<path d="M2.2207 40L4.2832 43.3281H4.3457L6.4082 40H7.54883L5.0332 44L7.54883 48H6.4082L4.3457 44.7344H4.2832L2.2207 48H1.08008L3.6582 44L1.08008 40H2.2207ZM9.27832 40L11.3408 43.3281H11.4033L13.4658 40H14.6064L12.0908 44L14.6064 48H13.4658L11.4033 44.7344H11.3408L9.27832 48H8.1377L10.7158 44L8.1377 40H9.27832ZM20.6328 42.8281L20.2734 43.6094H15.1797L15.4609 42.8281H20.6328ZM19.9609 44.3906L19.6016 45.1719H15.1797L15.4609 44.3906H19.9609ZM21.5547 40.7188L21.1797 41.5312C21.013 41.3802 20.8372 41.25 20.6523 41.1406C20.4674 41.0312 20.2734 40.9466 20.0703 40.8867C19.8672 40.8268 19.6536 40.7969 19.4297 40.7969C18.987 40.7969 18.5885 40.9193 18.2344 41.1641C17.8802 41.4089 17.6003 41.7695 17.3945 42.2461C17.1888 42.7227 17.0859 43.3073 17.0859 44C17.0859 44.6927 17.1888 45.2773 17.3945 45.7539C17.6003 46.2305 17.8802 46.5911 18.2344 46.8359C18.5885 47.0807 18.987 47.2031 19.4297 47.2031C19.6589 47.2031 19.875 47.1732 20.0781 47.1133C20.2839 47.0534 20.4753 46.9714 20.6523 46.8672C20.832 46.763 20.9974 46.6458 21.1484 46.5156L21.5391 47.3281C21.2656 47.5859 20.9453 47.7812 20.5781 47.9141C20.2109 48.0443 19.8281 48.1094 19.4297 48.1094C18.7891 48.1094 18.2214 47.9427 17.7266 47.6094C17.2344 47.276 16.8477 46.8021 16.5664 46.1875C16.2878 45.5729 16.1484 44.8437 16.1484 44C16.1484 43.1562 16.2878 42.4271 16.5664 41.8125C16.8477 41.1979 17.2344 40.724 17.7266 40.3906C18.2214 40.0573 18.7891 39.8906 19.4297 39.8906C19.8438 39.8906 20.2305 39.9622 20.5898 40.1055C20.9518 40.2487 21.2734 40.4531 21.5547 40.7188ZM23.1826 40H24.3389L27.0576 46.6406H27.1514L29.8701 40H31.0264V48H30.1201V41.9219H30.042L27.542 48H26.667L24.167 41.9219H24.0889V48H23.1826V40Z" fill="#8F8F91"/>
<path d="M2.2207 105L4.2832 108.328H4.3457L6.4082 105H7.54883L5.0332 109L7.54883 113H6.4082L4.3457 109.734H4.2832L2.2207 113H1.08008L3.6582 109L1.08008 105H2.2207ZM9.27832 105L11.3408 108.328H11.4033L13.4658 105H14.6064L12.0908 109L14.6064 113H13.4658L11.4033 109.734H11.3408L9.27832 113H8.1377L10.7158 109L8.1377 105H9.27832ZM20.6328 107.828L20.2734 108.609H15.1797L15.4609 107.828H20.6328ZM19.9609 109.391L19.6016 110.172H15.1797L15.4609 109.391H19.9609ZM21.5547 105.719L21.1797 106.531C21.013 106.38 20.8372 106.25 20.6523 106.141C20.4674 106.031 20.2734 105.947 20.0703 105.887C19.8672 105.827 19.6536 105.797 19.4297 105.797C18.987 105.797 18.5885 105.919 18.2344 106.164C17.8802 106.409 17.6003 106.77 17.3945 107.246C17.1888 107.723 17.0859 108.307 17.0859 109C17.0859 109.693 17.1888 110.277 17.3945 110.754C17.6003 111.23 17.8802 111.591 18.2344 111.836C18.5885 112.081 18.987 112.203 19.4297 112.203C19.6589 112.203 19.875 112.173 20.0781 112.113C20.2839 112.053 20.4753 111.971 20.6523 111.867C20.832 111.763 20.9974 111.646 21.1484 111.516L21.5391 112.328C21.2656 112.586 20.9453 112.781 20.5781 112.914C20.2109 113.044 19.8281 113.109 19.4297 113.109C18.7891 113.109 18.2214 112.943 17.7266 112.609C17.2344 112.276 16.8477 111.802 16.5664 111.187C16.2878 110.573 16.1484 109.844 16.1484 109C16.1484 108.156 16.2878 107.427 16.5664 106.812C16.8477 106.198 17.2344 105.724 17.7266 105.391C18.2214 105.057 18.7891 104.891 19.4297 104.891C19.8438 104.891 20.2305 104.962 20.5898 105.105C20.9518 105.249 21.2734 105.453 21.5547 105.719ZM23.1826 105H24.3389L27.0576 111.641H27.1514L29.8701 105H31.0264V113H30.1201V106.922H30.042L27.542 113H26.667L24.167 106.922H24.0889V113H23.1826V105Z" fill="#8F8F91"/>
<path d="M2.2207 170L4.2832 173.328H4.3457L6.4082 170H7.54883L5.0332 174L7.54883 178H6.4082L4.3457 174.734H4.2832L2.2207 178H1.08008L3.6582 174L1.08008 170H2.2207ZM9.27832 170L11.3408 173.328H11.4033L13.4658 170H14.6064L12.0908 174L14.6064 178H13.4658L11.4033 174.734H11.3408L9.27832 178H8.1377L10.7158 174L8.1377 170H9.27832ZM20.6328 172.828L20.2734 173.609H15.1797L15.4609 172.828H20.6328ZM19.9609 174.391L19.6016 175.172H15.1797L15.4609 174.391H19.9609ZM21.5547 170.719L21.1797 171.531C21.013 171.38 20.8372 171.25 20.6523 171.141C20.4674 171.031 20.2734 170.947 20.0703 170.887C19.8672 170.827 19.6536 170.797 19.4297 170.797C18.987 170.797 18.5885 170.919 18.2344 171.164C17.8802 171.409 17.6003 171.77 17.3945 172.246C17.1888 172.723 17.0859 173.307 17.0859 174C17.0859 174.693 17.1888 175.277 17.3945 175.754C17.6003 176.23 17.8802 176.591 18.2344 176.836C18.5885 177.081 18.987 177.203 19.4297 177.203C19.6589 177.203 19.875 177.173 20.0781 177.113C20.2839 177.053 20.4753 176.971 20.6523 176.867C20.832 176.763 20.9974 176.646 21.1484 176.516L21.5391 177.328C21.2656 177.586 20.9453 177.781 20.5781 177.914C20.2109 178.044 19.8281 178.109 19.4297 178.109C18.7891 178.109 18.2214 177.943 17.7266 177.609C17.2344 177.276 16.8477 176.802 16.5664 176.187C16.2878 175.573 16.1484 174.844 16.1484 174C16.1484 173.156 16.2878 172.427 16.5664 171.812C16.8477 171.198 17.2344 170.724 17.7266 170.391C18.2214 170.057 18.7891 169.891 19.4297 169.891C19.8438 169.891 20.2305 169.962 20.5898 170.105C20.9518 170.249 21.2734 170.453 21.5547 170.719ZM23.1826 170H24.3389L27.0576 176.641H27.1514L29.8701 170H31.0264V178H30.1201V171.922H30.042L27.542 178H26.667L24.167 171.922H24.0889V178H23.1826V170Z" fill="#8F8F91"/>
<path d="M2.2207 235L4.2832 238.328H4.3457L6.4082 235H7.54883L5.0332 239L7.54883 243H6.4082L4.3457 239.734H4.2832L2.2207 243H1.08008L3.6582 239L1.08008 235H2.2207ZM9.27832 235L11.3408 238.328H11.4033L13.4658 235H14.6064L12.0908 239L14.6064 243H13.4658L11.4033 239.734H11.3408L9.27832 243H8.1377L10.7158 239L8.1377 235H9.27832ZM20.6328 237.828L20.2734 238.609H15.1797L15.4609 237.828H20.6328ZM19.9609 239.391L19.6016 240.172H15.1797L15.4609 239.391H19.9609ZM21.5547 235.719L21.1797 236.531C21.013 236.38 20.8372 236.25 20.6523 236.141C20.4674 236.031 20.2734 235.947 20.0703 235.887C19.8672 235.827 19.6536 235.797 19.4297 235.797C18.987 235.797 18.5885 235.919 18.2344 236.164C17.8802 236.409 17.6003 236.77 17.3945 237.246C17.1888 237.723 17.0859 238.307 17.0859 239C17.0859 239.693 17.1888 240.277 17.3945 240.754C17.6003 241.23 17.8802 241.591 18.2344 241.836C18.5885 242.081 18.987 242.203 19.4297 242.203C19.6589 242.203 19.875 242.173 20.0781 242.113C20.2839 242.053 20.4753 241.971 20.6523 241.867C20.832 241.763 20.9974 241.646 21.1484 241.516L21.5391 242.328C21.2656 242.586 20.9453 242.781 20.5781 242.914C20.2109 243.044 19.8281 243.109 19.4297 243.109C18.7891 243.109 18.2214 242.943 17.7266 242.609C17.2344 242.276 16.8477 241.802 16.5664 241.187C16.2878 240.573 16.1484 239.844 16.1484 239C16.1484 238.156 16.2878 237.427 16.5664 236.812C16.8477 236.198 17.2344 235.724 17.7266 235.391C18.2214 235.057 18.7891 234.891 19.4297 234.891C19.8438 234.891 20.2305 234.962 20.5898 235.105C20.9518 235.249 21.2734 235.453 21.5547 235.719ZM23.1826 235H24.3389L27.0576 241.641H27.1514L29.8701 235H31.0264V243H30.1201V236.922H30.042L27.542 243H26.667L24.167 236.922H24.0889V243H23.1826V235Z" fill="#8F8F91"/>
<path d="M41.5742 258V257.297L44.2148 254.406C44.5247 254.068 44.7799 253.773 44.9805 253.523C45.181 253.271 45.3294 253.034 45.4258 252.812C45.5247 252.589 45.5742 252.354 45.5742 252.109C45.5742 251.828 45.5065 251.585 45.3711 251.379C45.2383 251.173 45.056 251.014 44.8242 250.902C44.5924 250.79 44.332 250.734 44.043 250.734C43.7357 250.734 43.4674 250.798 43.2383 250.926C43.0117 251.051 42.8359 251.227 42.7109 251.453C42.5885 251.68 42.5273 251.945 42.5273 252.25H41.6055C41.6055 251.781 41.7135 251.37 41.9297 251.016C42.1458 250.661 42.4401 250.385 42.8125 250.187C43.1875 249.99 43.6081 249.891 44.0742 249.891C44.543 249.891 44.9583 249.99 45.3203 250.187C45.6823 250.385 45.9661 250.652 46.1719 250.988C46.3776 251.324 46.4805 251.698 46.4805 252.109C46.4805 252.404 46.4271 252.691 46.3203 252.973C46.2161 253.251 46.0339 253.562 45.7734 253.906C45.5156 254.247 45.1576 254.664 44.6992 255.156L42.9023 257.078V257.141H46.6211V258H41.5742ZM51.1963 258.109C50.6077 258.109 50.1064 257.949 49.6924 257.629C49.2783 257.306 48.9619 256.839 48.7432 256.227C48.5244 255.612 48.415 254.87 48.415 254C48.415 253.135 48.5244 252.397 48.7432 251.785C48.9645 251.171 49.2822 250.702 49.6963 250.379C50.113 250.053 50.613 249.891 51.1963 249.891C51.7796 249.891 52.2783 250.053 52.6924 250.379C53.109 250.702 53.4268 251.171 53.6455 251.785C53.8669 252.397 53.9775 253.135 53.9775 254C53.9775 254.87 53.8682 255.612 53.6494 256.227C53.4307 256.839 53.1143 257.306 52.7002 257.629C52.2861 257.949 51.7848 258.109 51.1963 258.109ZM51.1963 257.25C51.7796 257.25 52.2327 256.969 52.5557 256.406C52.8786 255.844 53.04 255.042 53.04 254C53.04 253.307 52.9658 252.717 52.8174 252.23C52.6715 251.743 52.4606 251.372 52.1846 251.117C51.9111 250.862 51.5817 250.734 51.1963 250.734C50.6182 250.734 50.1663 251.02 49.8408 251.59C49.5153 252.158 49.3525 252.961 49.3525 254C49.3525 254.693 49.4255 255.281 49.5713 255.766C49.7171 256.25 49.9268 256.618 50.2002 256.871C50.4762 257.124 50.8083 257.25 51.1963 257.25ZM59.3965 250V258H58.4277V251.016H58.3809L56.4277 252.312V251.328L58.4277 250H59.3965ZM62.9404 258V257.297L65.5811 254.406C65.891 254.068 66.1462 253.773 66.3467 253.523C66.5472 253.271 66.6956 253.034 66.792 252.812C66.891 252.589 66.9404 252.354 66.9404 252.109C66.9404 251.828 66.8727 251.585 66.7373 251.379C66.6045 251.173 66.4222 251.014 66.1904 250.902C65.9587 250.79 65.6982 250.734 65.4092 250.734C65.1019 250.734 64.8337 250.798 64.6045 250.926C64.3779 251.051 64.2021 251.227 64.0771 251.453C63.9548 251.68 63.8936 251.945 63.8936 252.25H62.9717C62.9717 251.781 63.0798 251.37 63.2959 251.016C63.512 250.661 63.8063 250.385 64.1787 250.187C64.5537 249.99 64.9743 249.891 65.4404 249.891C65.9092 249.891 66.3245 249.99 66.6865 250.187C67.0485 250.385 67.3324 250.652 67.5381 250.988C67.7438 251.324 67.8467 251.698 67.8467 252.109C67.8467 252.404 67.7933 252.691 67.6865 252.973C67.5824 253.251 67.4001 253.562 67.1396 253.906C66.8818 254.247 66.5238 254.664 66.0654 255.156L64.2686 257.078V257.141H67.9873V258H62.9404Z" fill="#8F8F91"/>
<path d="M91.1742 258V257.297L93.8148 254.406C94.1247 254.068 94.3799 253.773 94.5805 253.523C94.781 253.271 94.9294 253.034 95.0258 252.812C95.1247 252.589 95.1742 252.354 95.1742 252.109C95.1742 251.828 95.1065 251.585 94.9711 251.379C94.8383 251.173 94.656 251.014 94.4242 250.902C94.1924 250.79 93.932 250.734 93.643 250.734C93.3357 250.734 93.0674 250.798 92.8383 250.926C92.6117 251.051 92.4359 251.227 92.3109 251.453C92.1885 251.68 92.1273 251.945 92.1273 252.25H91.2055C91.2055 251.781 91.3135 251.37 91.5297 251.016C91.7458 250.661 92.0401 250.385 92.4125 250.187C92.7875 249.99 93.2081 249.891 93.6742 249.891C94.143 249.891 94.5583 249.99 94.9203 250.187C95.2823 250.385 95.5661 250.652 95.7719 250.988C95.9776 251.324 96.0805 251.698 96.0805 252.109C96.0805 252.404 96.0271 252.691 95.9203 252.973C95.8161 253.251 95.6339 253.562 95.3734 253.906C95.1156 254.247 94.7576 254.664 94.2992 255.156L92.5023 257.078V257.141H96.2211V258H91.1742ZM100.796 258.109C100.208 258.109 99.7064 257.949 99.2924 257.629C98.8783 257.306 98.5619 256.839 98.3432 256.227C98.1244 255.612 98.015 254.87 98.015 254C98.015 253.135 98.1244 252.397 98.3432 251.785C98.5645 251.171 98.8822 250.702 99.2963 250.379C99.713 250.053 100.213 249.891 100.796 249.891C101.38 249.891 101.878 250.053 102.292 250.379C102.709 250.702 103.027 251.171 103.246 251.785C103.467 252.397 103.578 253.135 103.578 254C103.578 254.87 103.468 255.612 103.249 256.227C103.031 256.839 102.714 257.306 102.3 257.629C101.886 257.949 101.385 258.109 100.796 258.109ZM100.796 257.25C101.38 257.25 101.833 256.969 102.156 256.406C102.479 255.844 102.64 255.042 102.64 254C102.64 253.307 102.566 252.717 102.417 252.23C102.272 251.743 102.061 251.372 101.785 251.117C101.511 250.862 101.182 250.734 100.796 250.734C100.218 250.734 99.7663 251.02 99.4408 251.59C99.1153 252.158 98.9525 252.961 98.9525 254C98.9525 254.693 99.0255 255.281 99.1713 255.766C99.3171 256.25 99.5268 256.618 99.8002 256.871C100.076 257.124 100.408 257.25 100.796 257.25ZM108.996 250V258H108.028V251.016H107.981L106.028 252.312V251.328L108.028 250H108.996ZM115.072 258.109C114.556 258.109 114.096 258.021 113.693 257.844C113.292 257.667 112.973 257.421 112.736 257.105C112.501 256.788 112.374 256.419 112.353 256H113.337C113.358 256.258 113.447 256.48 113.603 256.668C113.759 256.853 113.964 256.996 114.216 257.098C114.469 257.199 114.749 257.25 115.056 257.25C115.4 257.25 115.704 257.19 115.97 257.07C116.236 256.951 116.444 256.784 116.595 256.57C116.746 256.357 116.822 256.109 116.822 255.828C116.822 255.534 116.749 255.275 116.603 255.051C116.457 254.824 116.244 254.647 115.962 254.52C115.681 254.392 115.337 254.328 114.931 254.328H114.29V253.469H114.931C115.249 253.469 115.527 253.411 115.767 253.297C116.009 253.182 116.198 253.021 116.333 252.812C116.471 252.604 116.54 252.359 116.54 252.078C116.54 251.807 116.481 251.572 116.361 251.371C116.241 251.171 116.072 251.014 115.853 250.902C115.637 250.79 115.382 250.734 115.087 250.734C114.811 250.734 114.551 250.785 114.306 250.887C114.064 250.986 113.866 251.13 113.712 251.32C113.559 251.508 113.475 251.734 113.462 252H112.525C112.54 251.581 112.667 251.214 112.904 250.898C113.141 250.581 113.451 250.333 113.833 250.156C114.219 249.979 114.642 249.891 115.103 249.891C115.598 249.891 116.022 249.991 116.376 250.191C116.731 250.389 117.003 250.651 117.193 250.977C117.383 251.302 117.478 251.654 117.478 252.031C117.478 252.482 117.359 252.866 117.122 253.184C116.888 253.501 116.569 253.721 116.165 253.844V253.906C116.671 253.99 117.065 254.204 117.349 254.551C117.633 254.895 117.775 255.32 117.775 255.828C117.775 256.263 117.656 256.654 117.419 257C117.185 257.344 116.865 257.615 116.458 257.812C116.052 258.01 115.59 258.109 115.072 258.109Z" fill="#8F8F91"/>
<path d="M140.774 258V257.297L143.415 254.406C143.725 254.068 143.98 253.773 144.18 253.523C144.381 253.271 144.529 253.034 144.626 252.812C144.725 252.589 144.774 252.354 144.774 252.109C144.774 251.828 144.707 251.585 144.571 251.379C144.438 251.173 144.256 251.014 144.024 250.902C143.792 250.79 143.532 250.734 143.243 250.734C142.936 250.734 142.667 250.798 142.438 250.926C142.212 251.051 142.036 251.227 141.911 251.453C141.789 251.68 141.727 251.945 141.727 252.25H140.805C140.805 251.781 140.914 251.37 141.13 251.016C141.346 250.661 141.64 250.385 142.012 250.187C142.387 249.99 142.808 249.891 143.274 249.891C143.743 249.891 144.158 249.99 144.52 250.187C144.882 250.385 145.166 250.652 145.372 250.988C145.578 251.324 145.68 251.698 145.68 252.109C145.68 252.404 145.627 252.691 145.52 252.973C145.416 253.251 145.234 253.562 144.973 253.906C144.716 254.247 144.358 254.664 143.899 255.156L142.102 257.078V257.141H145.821V258H140.774ZM150.396 258.109C149.808 258.109 149.306 257.949 148.892 257.629C148.478 257.306 148.162 256.839 147.943 256.227C147.724 255.612 147.615 254.87 147.615 254C147.615 253.135 147.724 252.397 147.943 251.785C148.165 251.171 148.482 250.702 148.896 250.379C149.313 250.053 149.813 249.891 150.396 249.891C150.98 249.891 151.478 250.053 151.892 250.379C152.309 250.702 152.627 251.171 152.846 251.785C153.067 252.397 153.178 253.135 153.178 254C153.178 254.87 153.068 255.612 152.849 256.227C152.631 256.839 152.314 257.306 151.9 257.629C151.486 257.949 150.985 258.109 150.396 258.109ZM150.396 257.25C150.98 257.25 151.433 256.969 151.756 256.406C152.079 255.844 152.24 255.042 152.24 254C152.24 253.307 152.166 252.717 152.017 252.23C151.872 251.743 151.661 251.372 151.385 251.117C151.111 250.862 150.782 250.734 150.396 250.734C149.818 250.734 149.366 251.02 149.041 251.59C148.715 252.158 148.553 252.961 148.553 254C148.553 254.693 148.625 255.281 148.771 255.766C148.917 256.25 149.127 256.618 149.4 256.871C149.676 257.124 150.008 257.25 150.396 257.25ZM158.596 250V258H157.628V251.016H157.581L155.628 252.312V251.328L157.628 250H158.596ZM161.719 256.359V255.562L165.234 250H165.812V251.234H165.422L162.765 255.437V255.5H167.5V256.359H161.719ZM165.484 258V256.117V255.746V250H166.406V258H165.484Z" fill="#8F8F91"/>
<path d="M190.374 258V257.297L193.015 254.406C193.325 254.068 193.58 253.773 193.78 253.523C193.981 253.271 194.129 253.034 194.226 252.812C194.325 252.589 194.374 252.354 194.374 252.109C194.374 251.828 194.306 251.585 194.171 251.379C194.038 251.173 193.856 251.014 193.624 250.902C193.392 250.79 193.132 250.734 192.843 250.734C192.536 250.734 192.267 250.798 192.038 250.926C191.812 251.051 191.636 251.227 191.511 251.453C191.389 251.68 191.327 251.945 191.327 252.25H190.405C190.405 251.781 190.514 251.37 190.73 251.016C190.946 250.661 191.24 250.385 191.612 250.187C191.987 249.99 192.408 249.891 192.874 249.891C193.343 249.891 193.758 249.99 194.12 250.187C194.482 250.385 194.766 250.652 194.972 250.988C195.178 251.324 195.28 251.698 195.28 252.109C195.28 252.404 195.227 252.691 195.12 252.973C195.016 253.251 194.834 253.562 194.573 253.906C194.316 254.247 193.958 254.664 193.499 255.156L191.702 257.078V257.141H195.421V258H190.374ZM199.996 258.109C199.408 258.109 198.906 257.949 198.492 257.629C198.078 257.306 197.762 256.839 197.543 256.227C197.324 255.612 197.215 254.87 197.215 254C197.215 253.135 197.324 252.397 197.543 251.785C197.765 251.171 198.082 250.702 198.496 250.379C198.913 250.053 199.413 249.891 199.996 249.891C200.58 249.891 201.078 250.053 201.492 250.379C201.909 250.702 202.227 251.171 202.445 251.785C202.667 252.397 202.778 253.135 202.778 254C202.778 254.87 202.668 255.612 202.449 256.227C202.231 256.839 201.914 257.306 201.5 257.629C201.086 257.949 200.585 258.109 199.996 258.109ZM199.996 257.25C200.58 257.25 201.033 256.969 201.356 256.406C201.679 255.844 201.84 255.042 201.84 254C201.84 253.307 201.766 252.717 201.617 252.23C201.472 251.743 201.261 251.372 200.985 251.117C200.711 250.862 200.382 250.734 199.996 250.734C199.418 250.734 198.966 251.02 198.641 251.59C198.315 252.158 198.153 252.961 198.153 254C198.153 254.693 198.225 255.281 198.371 255.766C198.517 256.25 198.727 256.618 199 256.871C199.276 257.124 199.608 257.25 199.996 257.25ZM208.196 250V258H207.228V251.016H207.181L205.228 252.312V251.328L207.228 250H208.196ZM214.209 258.109C213.751 258.109 213.338 258.018 212.971 257.836C212.604 257.654 212.309 257.404 212.088 257.086C211.867 256.768 211.746 256.406 211.725 256H212.662C212.699 256.362 212.863 256.661 213.154 256.898C213.449 257.133 213.8 257.25 214.209 257.25C214.537 257.25 214.829 257.173 215.084 257.02C215.342 256.866 215.544 256.655 215.69 256.387C215.838 256.116 215.912 255.81 215.912 255.469C215.912 255.12 215.835 254.809 215.682 254.535C215.531 254.259 215.322 254.042 215.057 253.883C214.791 253.724 214.488 253.643 214.147 253.641C213.902 253.638 213.651 253.676 213.393 253.754C213.135 253.829 212.923 253.927 212.756 254.047L211.85 253.937L212.334 250H216.49V250.859H213.147L212.865 253.219H212.912C213.076 253.089 213.282 252.98 213.529 252.895C213.777 252.809 214.035 252.766 214.303 252.766C214.793 252.766 215.229 252.883 215.612 253.117C215.997 253.349 216.299 253.667 216.518 254.07C216.739 254.474 216.85 254.935 216.85 255.453C216.85 255.964 216.735 256.419 216.506 256.82C216.279 257.219 215.967 257.534 215.569 257.766C215.17 257.995 214.717 258.109 214.209 258.109Z" fill="#8F8F91"/>
<path d="M239.974 258V257.297L242.615 254.406C242.925 254.068 243.18 253.773 243.38 253.523C243.581 253.271 243.729 253.034 243.826 252.812C243.925 252.589 243.974 252.354 243.974 252.109C243.974 251.828 243.907 251.585 243.771 251.379C243.638 251.173 243.456 251.014 243.224 250.902C242.992 250.79 242.732 250.734 242.443 250.734C242.136 250.734 241.867 250.798 241.638 250.926C241.412 251.051 241.236 251.227 241.111 251.453C240.989 251.68 240.927 251.945 240.927 252.25H240.005C240.005 251.781 240.114 251.37 240.33 251.016C240.546 250.661 240.84 250.385 241.212 250.187C241.587 249.99 242.008 249.891 242.474 249.891C242.943 249.891 243.358 249.99 243.72 250.187C244.082 250.385 244.366 250.652 244.572 250.988C244.778 251.324 244.88 251.698 244.88 252.109C244.88 252.404 244.827 252.691 244.72 252.973C244.616 253.251 244.434 253.562 244.173 253.906C243.916 254.247 243.558 254.664 243.099 255.156L241.302 257.078V257.141H245.021V258H239.974ZM249.596 258.109C249.008 258.109 248.506 257.949 248.092 257.629C247.678 257.306 247.362 256.839 247.143 256.227C246.924 255.612 246.815 254.87 246.815 254C246.815 253.135 246.924 252.397 247.143 251.785C247.365 251.171 247.682 250.702 248.096 250.379C248.513 250.053 249.013 249.891 249.596 249.891C250.18 249.891 250.678 250.053 251.092 250.379C251.509 250.702 251.827 251.171 252.046 251.785C252.267 252.397 252.378 253.135 252.378 254C252.378 254.87 252.268 255.612 252.049 256.227C251.831 256.839 251.514 257.306 251.1 257.629C250.686 257.949 250.185 258.109 249.596 258.109ZM249.596 257.25C250.18 257.25 250.633 256.969 250.956 256.406C251.279 255.844 251.44 255.042 251.44 254C251.44 253.307 251.366 252.717 251.217 252.23C251.072 251.743 250.861 251.372 250.585 251.117C250.311 250.862 249.982 250.734 249.596 250.734C249.018 250.734 248.566 251.02 248.241 251.59C247.915 252.158 247.753 252.961 247.753 254C247.753 254.693 247.825 255.281 247.971 255.766C248.117 256.25 248.327 256.618 248.6 256.871C248.876 257.124 249.208 257.25 249.596 257.25ZM257.796 250V258H256.828V251.016H256.781L254.828 252.312V251.328L256.828 250H257.796ZM263.887 258.109C263.559 258.104 263.231 258.042 262.903 257.922C262.575 257.802 262.275 257.6 262.004 257.316C261.734 257.03 261.516 256.643 261.352 256.156C261.188 255.667 261.106 255.052 261.106 254.312C261.106 253.604 261.172 252.977 261.305 252.43C261.438 251.88 261.631 251.418 261.883 251.043C262.136 250.665 262.441 250.379 262.797 250.184C263.157 249.988 263.562 249.891 264.012 249.891C264.46 249.891 264.859 249.98 265.208 250.16C265.559 250.337 265.846 250.585 266.067 250.902C266.288 251.22 266.432 251.586 266.497 252H265.544C265.455 251.641 265.283 251.342 265.028 251.105C264.773 250.868 264.434 250.75 264.012 250.75C263.393 250.75 262.904 251.02 262.547 251.559C262.193 252.098 262.015 252.854 262.012 253.828H262.075C262.221 253.607 262.394 253.418 262.594 253.262C262.797 253.103 263.021 252.98 263.266 252.895C263.511 252.809 263.77 252.766 264.044 252.766C264.502 252.766 264.921 252.88 265.301 253.109C265.682 253.336 265.986 253.65 266.215 254.051C266.445 254.449 266.559 254.906 266.559 255.422C266.559 255.917 266.448 256.37 266.227 256.781C266.006 257.19 265.695 257.516 265.294 257.758C264.895 257.997 264.426 258.115 263.887 258.109ZM263.887 257.25C264.215 257.25 264.51 257.168 264.77 257.004C265.033 256.84 265.24 256.62 265.391 256.344C265.545 256.068 265.622 255.76 265.622 255.422C265.622 255.091 265.547 254.79 265.399 254.52C265.253 254.246 265.051 254.029 264.794 253.867C264.538 253.706 264.247 253.625 263.919 253.625C263.671 253.625 263.441 253.674 263.227 253.773C263.014 253.87 262.826 254.003 262.665 254.172C262.506 254.341 262.381 254.535 262.29 254.754C262.198 254.97 262.153 255.198 262.153 255.437C262.153 255.755 262.227 256.052 262.376 256.328C262.527 256.604 262.732 256.827 262.993 256.996C263.256 257.165 263.554 257.25 263.887 257.25Z" fill="#8F8F91"/>
<path d="M289.574 258V257.297L292.215 254.406C292.525 254.068 292.78 253.773 292.98 253.523C293.181 253.271 293.329 253.034 293.426 252.812C293.525 252.589 293.574 252.354 293.574 252.109C293.574 251.828 293.507 251.585 293.371 251.379C293.238 251.173 293.056 251.014 292.824 250.902C292.592 250.79 292.332 250.734 292.043 250.734C291.736 250.734 291.467 250.798 291.238 250.926C291.012 251.051 290.836 251.227 290.711 251.453C290.589 251.68 290.527 251.945 290.527 252.25H289.605C289.605 251.781 289.714 251.37 289.93 251.016C290.146 250.661 290.44 250.385 290.813 250.187C291.188 249.99 291.608 249.891 292.074 249.891C292.543 249.891 292.958 249.99 293.32 250.187C293.682 250.385 293.966 250.652 294.172 250.988C294.378 251.324 294.48 251.698 294.48 252.109C294.48 252.404 294.427 252.691 294.32 252.973C294.216 253.251 294.034 253.562 293.773 253.906C293.516 254.247 293.158 254.664 292.699 255.156L290.902 257.078V257.141H294.621V258H289.574ZM299.196 258.109C298.608 258.109 298.106 257.949 297.692 257.629C297.278 257.306 296.962 256.839 296.743 256.227C296.524 255.612 296.415 254.87 296.415 254C296.415 253.135 296.524 252.397 296.743 251.785C296.965 251.171 297.282 250.702 297.696 250.379C298.113 250.053 298.613 249.891 299.196 249.891C299.78 249.891 300.278 250.053 300.692 250.379C301.109 250.702 301.427 251.171 301.646 251.785C301.867 252.397 301.978 253.135 301.978 254C301.978 254.87 301.868 255.612 301.649 256.227C301.431 256.839 301.114 257.306 300.7 257.629C300.286 257.949 299.785 258.109 299.196 258.109ZM299.196 257.25C299.78 257.25 300.233 256.969 300.556 256.406C300.879 255.844 301.04 255.042 301.04 254C301.04 253.307 300.966 252.717 300.817 252.23C300.672 251.743 300.461 251.372 300.185 251.117C299.911 250.862 299.582 250.734 299.196 250.734C298.618 250.734 298.166 251.02 297.841 251.59C297.515 252.158 297.353 252.961 297.353 254C297.353 254.693 297.425 255.281 297.571 255.766C297.717 256.25 297.927 256.618 298.2 256.871C298.476 257.124 298.808 257.25 299.196 257.25ZM307.396 250V258H306.428V251.016H306.381L304.428 252.312V251.328L306.428 250H307.396ZM311.378 258L314.956 250.922V250.859H310.831V250H315.956V250.906L312.394 258H311.378Z" fill="#8F8F91"/>
<path d="M339.174 258V257.297L341.815 254.406C342.125 254.068 342.38 253.773 342.58 253.523C342.781 253.271 342.929 253.034 343.026 252.812C343.125 252.589 343.174 252.354 343.174 252.109C343.174 251.828 343.107 251.585 342.971 251.379C342.838 251.173 342.656 251.014 342.424 250.902C342.192 250.79 341.932 250.734 341.643 250.734C341.336 250.734 341.067 250.798 340.838 250.926C340.612 251.051 340.436 251.227 340.311 251.453C340.189 251.68 340.127 251.945 340.127 252.25H339.205C339.205 251.781 339.314 251.37 339.53 251.016C339.746 250.661 340.04 250.385 340.413 250.187C340.788 249.99 341.208 249.891 341.674 249.891C342.143 249.891 342.558 249.99 342.92 250.187C343.282 250.385 343.566 250.652 343.772 250.988C343.978 251.324 344.08 251.698 344.08 252.109C344.08 252.404 344.027 252.691 343.92 252.973C343.816 253.251 343.634 253.562 343.373 253.906C343.116 254.247 342.758 254.664 342.299 255.156L340.502 257.078V257.141H344.221V258H339.174ZM348.796 258.109C348.208 258.109 347.706 257.949 347.292 257.629C346.878 257.306 346.562 256.839 346.343 256.227C346.124 255.612 346.015 254.87 346.015 254C346.015 253.135 346.124 252.397 346.343 251.785C346.565 251.171 346.882 250.702 347.296 250.379C347.713 250.053 348.213 249.891 348.796 249.891C349.38 249.891 349.878 250.053 350.292 250.379C350.709 250.702 351.027 251.171 351.246 251.785C351.467 252.397 351.578 253.135 351.578 254C351.578 254.87 351.468 255.612 351.249 256.227C351.031 256.839 350.714 257.306 350.3 257.629C349.886 257.949 349.385 258.109 348.796 258.109ZM348.796 257.25C349.38 257.25 349.833 256.969 350.156 256.406C350.479 255.844 350.64 255.042 350.64 254C350.64 253.307 350.566 252.717 350.417 252.23C350.272 251.743 350.061 251.372 349.785 251.117C349.511 250.862 349.182 250.734 348.796 250.734C348.218 250.734 347.766 251.02 347.441 251.59C347.115 252.158 346.953 252.961 346.953 254C346.953 254.693 347.025 255.281 347.171 255.766C347.317 256.25 347.527 256.618 347.8 256.871C348.076 257.124 348.408 257.25 348.796 257.25ZM356.996 250V258H356.028V251.016H355.981L354.028 252.312V251.328L356.028 250H356.996ZM363.04 258.109C362.504 258.109 362.03 258.014 361.619 257.824C361.21 257.632 360.891 257.367 360.662 257.031C360.432 256.693 360.319 256.307 360.322 255.875C360.319 255.536 360.385 255.224 360.521 254.937C360.656 254.648 360.841 254.408 361.076 254.215C361.313 254.02 361.577 253.896 361.869 253.844V253.797C361.486 253.698 361.181 253.483 360.954 253.152C360.728 252.819 360.616 252.44 360.619 252.016C360.616 251.609 360.719 251.246 360.927 250.926C361.135 250.605 361.422 250.353 361.787 250.168C362.154 249.983 362.572 249.891 363.04 249.891C363.504 249.891 363.918 249.983 364.283 250.168C364.647 250.353 364.934 250.605 365.142 250.926C365.353 251.246 365.46 251.609 365.462 252.016C365.46 252.44 365.344 252.819 365.115 253.152C364.888 253.483 364.587 253.698 364.212 253.797V253.844C364.501 253.896 364.762 254.02 364.994 254.215C365.225 254.408 365.41 254.648 365.548 254.937C365.686 255.224 365.757 255.536 365.759 255.875C365.757 256.307 365.639 256.693 365.408 257.031C365.178 257.367 364.859 257.632 364.451 257.824C364.044 258.014 363.574 258.109 363.04 258.109ZM363.04 257.25C363.402 257.25 363.715 257.191 363.978 257.074C364.241 256.957 364.444 256.792 364.587 256.578C364.731 256.365 364.803 256.115 364.806 255.828C364.803 255.526 364.725 255.259 364.572 255.027C364.418 254.796 364.208 254.613 363.943 254.48C363.68 254.348 363.379 254.281 363.04 254.281C362.699 254.281 362.395 254.348 362.126 254.48C361.861 254.613 361.651 254.796 361.497 255.027C361.346 255.259 361.272 255.526 361.275 255.828C361.272 256.115 361.341 256.365 361.482 256.578C361.625 256.792 361.829 256.957 362.095 257.074C362.361 257.191 362.676 257.25 363.04 257.25ZM363.04 253.453C363.327 253.453 363.581 253.396 363.802 253.281C364.026 253.167 364.202 253.007 364.329 252.801C364.457 252.595 364.522 252.354 364.525 252.078C364.522 251.807 364.458 251.572 364.333 251.371C364.208 251.168 364.035 251.012 363.814 250.902C363.593 250.79 363.335 250.734 363.04 250.734C362.741 250.734 362.479 250.79 362.255 250.902C362.031 251.012 361.858 251.168 361.736 251.371C361.613 251.572 361.553 251.807 361.556 252.078C361.553 252.354 361.615 252.595 361.74 252.801C361.867 253.007 362.043 253.167 362.267 253.281C362.491 253.396 362.749 253.453 363.04 253.453Z" fill="#8F8F91"/>
<path d="M388.774 258V257.297L391.415 254.406C391.725 254.068 391.98 253.773 392.18 253.523C392.381 253.271 392.529 253.034 392.626 252.812C392.725 252.589 392.774 252.354 392.774 252.109C392.774 251.828 392.707 251.585 392.571 251.379C392.438 251.173 392.256 251.014 392.024 250.902C391.792 250.79 391.532 250.734 391.243 250.734C390.936 250.734 390.667 250.798 390.438 250.926C390.212 251.051 390.036 251.227 389.911 251.453C389.789 251.68 389.727 251.945 389.727 252.25H388.805C388.805 251.781 388.914 251.37 389.13 251.016C389.346 250.661 389.64 250.385 390.013 250.187C390.388 249.99 390.808 249.891 391.274 249.891C391.743 249.891 392.158 249.99 392.52 250.187C392.882 250.385 393.166 250.652 393.372 250.988C393.578 251.324 393.68 251.698 393.68 252.109C393.68 252.404 393.627 252.691 393.52 252.973C393.416 253.251 393.234 253.562 392.973 253.906C392.716 254.247 392.358 254.664 391.899 255.156L390.102 257.078V257.141H393.821V258H388.774ZM398.396 258.109C397.808 258.109 397.306 257.949 396.892 257.629C396.478 257.306 396.162 256.839 395.943 256.227C395.724 255.612 395.615 254.87 395.615 254C395.615 253.135 395.724 252.397 395.943 251.785C396.165 251.171 396.482 250.702 396.896 250.379C397.313 250.053 397.813 249.891 398.396 249.891C398.98 249.891 399.478 250.053 399.892 250.379C400.309 250.702 400.627 251.171 400.846 251.785C401.067 252.397 401.178 253.135 401.178 254C401.178 254.87 401.068 255.612 400.849 256.227C400.631 256.839 400.314 257.306 399.9 257.629C399.486 257.949 398.985 258.109 398.396 258.109ZM398.396 257.25C398.98 257.25 399.433 256.969 399.756 256.406C400.079 255.844 400.24 255.042 400.24 254C400.24 253.307 400.166 252.717 400.017 252.23C399.872 251.743 399.661 251.372 399.385 251.117C399.111 250.862 398.782 250.734 398.396 250.734C397.818 250.734 397.366 251.02 397.041 251.59C396.715 252.158 396.553 252.961 396.553 254C396.553 254.693 396.625 255.281 396.771 255.766C396.917 256.25 397.127 256.618 397.4 256.871C397.676 257.124 398.008 257.25 398.396 257.25ZM406.596 250V258H405.628V251.016H405.581L403.628 252.312V251.328L405.628 250H406.596ZM412.578 249.891C412.906 249.893 413.234 249.956 413.562 250.078C413.89 250.201 414.19 250.404 414.461 250.687C414.732 250.969 414.949 251.353 415.113 251.84C415.277 252.327 415.359 252.937 415.359 253.672C415.359 254.383 415.291 255.014 415.156 255.566C415.023 256.116 414.831 256.579 414.578 256.957C414.328 257.335 414.023 257.621 413.664 257.816C413.307 258.012 412.903 258.109 412.453 258.109C412.005 258.109 411.605 258.021 411.254 257.844C410.905 257.664 410.618 257.415 410.394 257.098C410.173 256.777 410.031 256.406 409.969 255.984H410.922C411.008 256.352 411.178 256.655 411.433 256.895C411.691 257.132 412.031 257.25 412.453 257.25C413.07 257.25 413.557 256.98 413.914 256.441C414.273 255.902 414.453 255.141 414.453 254.156H414.39C414.245 254.375 414.071 254.564 413.871 254.723C413.67 254.882 413.448 255.004 413.203 255.09C412.958 255.176 412.698 255.219 412.422 255.219C411.963 255.219 411.543 255.105 411.16 254.879C410.78 254.65 410.475 254.336 410.246 253.937C410.019 253.536 409.906 253.078 409.906 252.562C409.906 252.073 410.015 251.625 410.234 251.219C410.456 250.81 410.765 250.484 411.164 250.242C411.565 250 412.036 249.883 412.578 249.891ZM412.578 250.75C412.25 250.75 411.954 250.832 411.691 250.996C411.431 251.158 411.224 251.376 411.07 251.652C410.919 251.926 410.844 252.229 410.844 252.562C410.844 252.896 410.916 253.199 411.062 253.473C411.211 253.743 411.413 253.96 411.668 254.121C411.926 254.28 412.219 254.359 412.547 254.359C412.794 254.359 413.025 254.311 413.238 254.215C413.452 254.116 413.638 253.982 413.797 253.812C413.958 253.641 414.084 253.447 414.176 253.23C414.267 253.012 414.312 252.784 414.312 252.547C414.312 252.234 414.237 251.941 414.086 251.668C413.937 251.395 413.732 251.173 413.469 251.004C413.208 250.835 412.911 250.75 412.578 250.75Z" fill="#8F8F91"/>
<path d="M438.374 258V257.297L441.015 254.406C441.325 254.068 441.58 253.773 441.78 253.523C441.981 253.271 442.129 253.034 442.226 252.812C442.325 252.589 442.374 252.354 442.374 252.109C442.374 251.828 442.307 251.585 442.171 251.379C442.038 251.173 441.856 251.014 441.624 250.902C441.392 250.79 441.132 250.734 440.843 250.734C440.536 250.734 440.267 250.798 440.038 250.926C439.812 251.051 439.636 251.227 439.511 251.453C439.389 251.68 439.327 251.945 439.327 252.25H438.405C438.405 251.781 438.514 251.37 438.73 251.016C438.946 250.661 439.24 250.385 439.613 250.187C439.988 249.99 440.408 249.891 440.874 249.891C441.343 249.891 441.758 249.99 442.12 250.187C442.482 250.385 442.766 250.652 442.972 250.988C443.178 251.324 443.28 251.698 443.28 252.109C443.28 252.404 443.227 252.691 443.12 252.973C443.016 253.251 442.834 253.562 442.573 253.906C442.316 254.247 441.958 254.664 441.499 255.156L439.702 257.078V257.141H443.421V258H438.374ZM447.996 258.109C447.408 258.109 446.906 257.949 446.492 257.629C446.078 257.306 445.762 256.839 445.543 256.227C445.324 255.612 445.215 254.87 445.215 254C445.215 253.135 445.324 252.397 445.543 251.785C445.765 251.171 446.082 250.702 446.496 250.379C446.913 250.053 447.413 249.891 447.996 249.891C448.58 249.891 449.078 250.053 449.492 250.379C449.909 250.702 450.227 251.171 450.446 251.785C450.667 252.397 450.778 253.135 450.778 254C450.778 254.87 450.668 255.612 450.449 256.227C450.231 256.839 449.914 257.306 449.5 257.629C449.086 257.949 448.585 258.109 447.996 258.109ZM447.996 257.25C448.58 257.25 449.033 256.969 449.356 256.406C449.679 255.844 449.84 255.042 449.84 254C449.84 253.307 449.766 252.717 449.617 252.23C449.472 251.743 449.261 251.372 448.985 251.117C448.711 250.862 448.382 250.734 447.996 250.734C447.418 250.734 446.966 251.02 446.641 251.59C446.315 252.158 446.153 252.961 446.153 254C446.153 254.693 446.225 255.281 446.371 255.766C446.517 256.25 446.727 256.618 447 256.871C447.276 257.124 447.608 257.25 447.996 257.25ZM452.618 258V257.297L455.259 254.406C455.569 254.068 455.824 253.773 456.025 253.523C456.225 253.271 456.374 253.034 456.47 252.812C456.569 252.589 456.618 252.354 456.618 252.109C456.618 251.828 456.551 251.585 456.415 251.379C456.282 251.173 456.1 251.014 455.868 250.902C455.637 250.79 455.376 250.734 455.087 250.734C454.78 250.734 454.512 250.798 454.282 250.926C454.056 251.051 453.88 251.227 453.755 251.453C453.633 251.68 453.572 251.945 453.572 252.25H452.65C452.65 251.781 452.758 251.37 452.974 251.016C453.19 250.661 453.484 250.385 453.857 250.187C454.232 249.99 454.652 249.891 455.118 249.891C455.587 249.891 456.002 249.99 456.364 250.187C456.726 250.385 457.01 250.652 457.216 250.988C457.422 251.324 457.525 251.698 457.525 252.109C457.525 252.404 457.471 252.691 457.364 252.973C457.26 253.251 457.078 253.562 456.818 253.906C456.56 254.247 456.202 254.664 455.743 255.156L453.947 257.078V257.141H457.665V258H452.618ZM462.24 258.109C461.652 258.109 461.151 257.949 460.737 257.629C460.322 257.306 460.006 256.839 459.787 256.227C459.569 255.612 459.459 254.87 459.459 254C459.459 253.135 459.569 252.397 459.787 251.785C460.009 251.171 460.326 250.702 460.74 250.379C461.157 250.053 461.657 249.891 462.24 249.891C462.824 249.891 463.322 250.053 463.737 250.379C464.153 250.702 464.471 251.171 464.69 251.785C464.911 252.397 465.022 253.135 465.022 254C465.022 254.87 464.912 255.612 464.694 256.227C464.475 256.839 464.158 257.306 463.744 257.629C463.33 257.949 462.829 258.109 462.24 258.109ZM462.24 257.25C462.824 257.25 463.277 256.969 463.6 256.406C463.923 255.844 464.084 255.042 464.084 254C464.084 253.307 464.01 252.717 463.862 252.23C463.716 251.743 463.505 251.372 463.229 251.117C462.955 250.862 462.626 250.734 462.24 250.734C461.662 250.734 461.211 251.02 460.885 251.59C460.559 252.158 460.397 252.961 460.397 254C460.397 254.693 460.47 255.281 460.615 255.766C460.761 256.25 460.971 256.618 461.244 256.871C461.52 257.124 461.852 257.25 462.24 257.25Z" fill="#8F8F91"/>
<path d="M487.974 258V257.297L490.615 254.406C490.925 254.068 491.18 253.773 491.38 253.523C491.581 253.271 491.729 253.034 491.826 252.812C491.925 252.589 491.974 252.354 491.974 252.109C491.974 251.828 491.907 251.585 491.771 251.379C491.638 251.173 491.456 251.014 491.224 250.902C490.992 250.79 490.732 250.734 490.443 250.734C490.136 250.734 489.867 250.798 489.638 250.926C489.412 251.051 489.236 251.227 489.111 251.453C488.989 251.68 488.927 251.945 488.927 252.25H488.005C488.005 251.781 488.114 251.37 488.33 251.016C488.546 250.661 488.84 250.385 489.213 250.187C489.588 249.99 490.008 249.891 490.474 249.891C490.943 249.891 491.358 249.99 491.72 250.187C492.082 250.385 492.366 250.652 492.572 250.988C492.778 251.324 492.88 251.698 492.88 252.109C492.88 252.404 492.827 252.691 492.72 252.973C492.616 253.251 492.434 253.562 492.173 253.906C491.916 254.247 491.558 254.664 491.099 255.156L489.302 257.078V257.141H493.021V258H487.974ZM497.596 258.109C497.008 258.109 496.506 257.949 496.092 257.629C495.678 257.306 495.362 256.839 495.143 256.227C494.924 255.612 494.815 254.87 494.815 254C494.815 253.135 494.924 252.397 495.143 251.785C495.365 251.171 495.682 250.702 496.096 250.379C496.513 250.053 497.013 249.891 497.596 249.891C498.18 249.891 498.678 250.053 499.092 250.379C499.509 250.702 499.827 251.171 500.046 251.785C500.267 252.397 500.378 253.135 500.378 254C500.378 254.87 500.268 255.612 500.049 256.227C499.831 256.839 499.514 257.306 499.1 257.629C498.686 257.949 498.185 258.109 497.596 258.109ZM497.596 257.25C498.18 257.25 498.633 256.969 498.956 256.406C499.279 255.844 499.44 255.042 499.44 254C499.44 253.307 499.366 252.717 499.217 252.23C499.072 251.743 498.861 251.372 498.585 251.117C498.311 250.862 497.982 250.734 497.596 250.734C497.018 250.734 496.566 251.02 496.241 251.59C495.915 252.158 495.753 252.961 495.753 254C495.753 254.693 495.825 255.281 495.971 255.766C496.117 256.25 496.327 256.618 496.6 256.871C496.876 257.124 497.208 257.25 497.596 257.25ZM502.218 258V257.297L504.859 254.406C505.169 254.068 505.424 253.773 505.625 253.523C505.825 253.271 505.974 253.034 506.07 252.812C506.169 252.589 506.218 252.354 506.218 252.109C506.218 251.828 506.151 251.585 506.015 251.379C505.882 251.173 505.7 251.014 505.468 250.902C505.237 250.79 504.976 250.734 504.687 250.734C504.38 250.734 504.112 250.798 503.882 250.926C503.656 251.051 503.48 251.227 503.355 251.453C503.233 251.68 503.172 251.945 503.172 252.25H502.25C502.25 251.781 502.358 251.37 502.574 251.016C502.79 250.661 503.084 250.385 503.457 250.187C503.832 249.99 504.252 249.891 504.718 249.891C505.187 249.891 505.602 249.99 505.964 250.187C506.326 250.385 506.61 250.652 506.816 250.988C507.022 251.324 507.125 251.698 507.125 252.109C507.125 252.404 507.071 252.691 506.964 252.973C506.86 253.251 506.678 253.562 506.418 253.906C506.16 254.247 505.802 254.664 505.343 255.156L503.547 257.078V257.141H507.265V258H502.218ZM512.919 250V258H511.95V251.016H511.903L509.95 252.312V251.328L511.95 250H512.919Z" fill="#8F8F91"/>
<path d="M537.574 258V257.297L540.215 254.406C540.525 254.068 540.78 253.773 540.98 253.523C541.181 253.271 541.329 253.034 541.426 252.812C541.525 252.589 541.574 252.354 541.574 252.109C541.574 251.828 541.507 251.585 541.371 251.379C541.238 251.173 541.056 251.014 540.824 250.902C540.592 250.79 540.332 250.734 540.043 250.734C539.736 250.734 539.467 250.798 539.238 250.926C539.012 251.051 538.836 251.227 538.711 251.453C538.589 251.68 538.527 251.945 538.527 252.25H537.605C537.605 251.781 537.714 251.37 537.93 251.016C538.146 250.661 538.44 250.385 538.813 250.187C539.188 249.99 539.608 249.891 540.074 249.891C540.543 249.891 540.958 249.99 541.32 250.187C541.682 250.385 541.966 250.652 542.172 250.988C542.378 251.324 542.48 251.698 542.48 252.109C542.48 252.404 542.427 252.691 542.32 252.973C542.216 253.251 542.034 253.562 541.773 253.906C541.516 254.247 541.158 254.664 540.699 255.156L538.902 257.078V257.141H542.621V258H537.574ZM547.196 258.109C546.608 258.109 546.106 257.949 545.692 257.629C545.278 257.306 544.962 256.839 544.743 256.227C544.524 255.612 544.415 254.87 544.415 254C544.415 253.135 544.524 252.397 544.743 251.785C544.965 251.171 545.282 250.702 545.696 250.379C546.113 250.053 546.613 249.891 547.196 249.891C547.78 249.891 548.278 250.053 548.692 250.379C549.109 250.702 549.427 251.171 549.646 251.785C549.867 252.397 549.978 253.135 549.978 254C549.978 254.87 549.868 255.612 549.649 256.227C549.431 256.839 549.114 257.306 548.7 257.629C548.286 257.949 547.785 258.109 547.196 258.109ZM547.196 257.25C547.78 257.25 548.233 256.969 548.556 256.406C548.879 255.844 549.04 255.042 549.04 254C549.04 253.307 548.966 252.717 548.817 252.23C548.672 251.743 548.461 251.372 548.185 251.117C547.911 250.862 547.582 250.734 547.196 250.734C546.618 250.734 546.166 251.02 545.841 251.59C545.515 252.158 545.353 252.961 545.353 254C545.353 254.693 545.425 255.281 545.571 255.766C545.717 256.25 545.927 256.618 546.2 256.871C546.476 257.124 546.808 257.25 547.196 257.25ZM551.818 258V257.297L554.459 254.406C554.769 254.068 555.024 253.773 555.225 253.523C555.425 253.271 555.574 253.034 555.67 252.812C555.769 252.589 555.818 252.354 555.818 252.109C555.818 251.828 555.751 251.585 555.615 251.379C555.482 251.173 555.3 251.014 555.068 250.902C554.837 250.79 554.576 250.734 554.287 250.734C553.98 250.734 553.712 250.798 553.482 250.926C553.256 251.051 553.08 251.227 552.955 251.453C552.833 251.68 552.771 251.945 552.771 252.25H551.85C551.85 251.781 551.958 251.37 552.174 251.016C552.39 250.661 552.684 250.385 553.057 250.187C553.432 249.99 553.852 249.891 554.318 249.891C554.787 249.891 555.202 249.99 555.564 250.187C555.926 250.385 556.21 250.652 556.416 250.988C556.622 251.324 556.725 251.698 556.725 252.109C556.725 252.404 556.671 252.691 556.564 252.973C556.46 253.251 556.278 253.562 556.018 253.906C555.76 254.247 555.402 254.664 554.943 255.156L553.146 257.078V257.141H556.865V258H551.818ZM558.94 258V257.297L561.581 254.406C561.891 254.068 562.146 253.773 562.347 253.523C562.547 253.271 562.696 253.034 562.792 252.812C562.891 252.589 562.94 252.354 562.94 252.109C562.94 251.828 562.873 251.585 562.737 251.379C562.604 251.173 562.422 251.014 562.19 250.902C561.959 250.79 561.698 250.734 561.409 250.734C561.102 250.734 560.834 250.798 560.604 250.926C560.378 251.051 560.202 251.227 560.077 251.453C559.955 251.68 559.894 251.945 559.894 252.25H558.972C558.972 251.781 559.08 251.37 559.296 251.016C559.512 250.661 559.806 250.385 560.179 250.187C560.554 249.99 560.974 249.891 561.44 249.891C561.909 249.891 562.325 249.99 562.687 250.187C563.049 250.385 563.332 250.652 563.538 250.988C563.744 251.324 563.847 251.698 563.847 252.109C563.847 252.404 563.793 252.691 563.687 252.973C563.582 253.251 563.4 253.562 563.14 253.906C562.882 254.247 562.524 254.664 562.065 255.156L560.269 257.078V257.141H563.987V258H558.94Z" fill="#8F8F91"/>
<path d="M40 44L565 44" stroke="#E6E6E6"/>
<path d="M40 238L565 238" stroke="#E6E6E6"/>
<rect x="193" y="276" width="8" height="8" rx="2" fill="#D8D8D9"/>
<rect x="193" y="276" width="8" height="8" rx="2" stroke="#BADDCF"/>
<path d="M205.44 277.672V276.727H211.069V277.672H208.8V284H207.706V277.672H205.44ZM214.941 281.738V278.545H216.006V284H214.962V283.055H214.905C214.78 283.347 214.578 283.589 214.301 283.783C214.027 283.975 213.685 284.071 213.275 284.071C212.925 284.071 212.615 283.994 212.345 283.84C212.077 283.684 211.866 283.453 211.713 283.148C211.561 282.842 211.485 282.465 211.485 282.015V278.545H212.547V281.887C212.547 282.259 212.65 282.555 212.856 282.775C213.062 282.995 213.329 283.105 213.659 283.105C213.857 283.105 214.055 283.055 214.252 282.956C214.45 282.857 214.615 282.706 214.745 282.505C214.878 282.304 214.943 282.048 214.941 281.738ZM217.433 284V278.545H218.459V279.412H218.516C218.615 279.118 218.79 278.888 219.041 278.719C219.295 278.549 219.581 278.464 219.901 278.464C219.967 278.464 220.045 278.466 220.135 278.471C220.227 278.476 220.299 278.482 220.352 278.489V279.504C220.309 279.492 220.233 279.479 220.124 279.465C220.015 279.449 219.906 279.44 219.798 279.44C219.547 279.44 219.323 279.494 219.126 279.6C218.932 279.704 218.778 279.85 218.665 280.037C218.551 280.222 218.494 280.432 218.494 280.669V284H217.433ZM222.332 280.761V284H221.27V278.545H222.29V279.433H222.357C222.483 279.144 222.679 278.912 222.947 278.737C223.216 278.562 223.556 278.474 223.966 278.474C224.337 278.474 224.663 278.553 224.942 278.709C225.222 278.863 225.438 279.092 225.592 279.398C225.746 279.703 225.823 280.081 225.823 280.531V284H224.761V280.658C224.761 280.263 224.658 279.954 224.452 279.732C224.246 279.507 223.963 279.394 223.604 279.394C223.357 279.394 223.138 279.447 222.947 279.554C222.757 279.661 222.607 279.817 222.496 280.023C222.387 280.226 222.332 280.473 222.332 280.761ZM229.545 284.11C229.033 284.11 228.587 283.993 228.206 283.759C227.825 283.524 227.529 283.196 227.318 282.775C227.107 282.353 227.002 281.861 227.002 281.298C227.002 280.732 227.107 280.237 227.318 279.813C227.529 279.389 227.825 279.06 228.206 278.826C228.587 278.592 229.033 278.474 229.545 278.474C230.056 278.474 230.502 278.592 230.883 278.826C231.265 279.06 231.56 279.389 231.771 279.813C231.982 280.237 232.087 280.732 232.087 281.298C232.087 281.861 231.982 282.353 231.771 282.775C231.56 283.196 231.265 283.524 230.883 283.759C230.502 283.993 230.056 284.11 229.545 284.11ZM229.548 283.219C229.88 283.219 230.154 283.131 230.372 282.956C230.59 282.781 230.751 282.548 230.855 282.256C230.961 281.965 231.015 281.644 231.015 281.294C231.015 280.946 230.961 280.626 230.855 280.335C230.751 280.042 230.59 279.806 230.372 279.629C230.154 279.451 229.88 279.362 229.548 279.362C229.214 279.362 228.937 279.451 228.717 279.629C228.499 279.806 228.337 280.042 228.231 280.335C228.126 280.626 228.074 280.946 228.074 281.294C228.074 281.644 228.126 281.965 228.231 282.256C228.337 282.548 228.499 282.781 228.717 282.956C228.937 283.131 229.214 283.219 229.548 283.219ZM237.753 278.545L235.775 284H234.639L232.657 278.545H233.797L235.178 282.743H235.235L236.613 278.545H237.753ZM240.916 284.11C240.379 284.11 239.916 283.995 239.528 283.766C239.142 283.534 238.844 283.208 238.633 282.789C238.424 282.368 238.32 281.874 238.32 281.308C238.32 280.75 238.424 280.257 238.633 279.831C238.844 279.405 239.137 279.072 239.513 278.833C239.892 278.594 240.335 278.474 240.842 278.474C241.149 278.474 241.448 278.525 241.737 278.627C242.025 278.729 242.285 278.889 242.514 279.107C242.744 279.324 242.925 279.607 243.058 279.955C243.19 280.301 243.256 280.721 243.256 281.216V281.592H238.92V280.797H242.216C242.216 280.518 242.159 280.27 242.045 280.055C241.932 279.837 241.772 279.665 241.566 279.54C241.362 279.414 241.123 279.352 240.849 279.352C240.55 279.352 240.29 279.425 240.067 279.572C239.847 279.716 239.677 279.906 239.556 280.14C239.438 280.372 239.379 280.624 239.379 280.896V281.518C239.379 281.882 239.442 282.192 239.57 282.448C239.701 282.704 239.882 282.899 240.114 283.034C240.346 283.167 240.617 283.233 240.927 283.233C241.128 283.233 241.312 283.205 241.477 283.148C241.643 283.089 241.786 283.001 241.907 282.885C242.028 282.769 242.12 282.626 242.184 282.455L243.189 282.636C243.108 282.932 242.964 283.192 242.756 283.414C242.55 283.634 242.29 283.806 241.978 283.929C241.668 284.05 241.314 284.11 240.916 284.11ZM244.434 284V278.545H245.461V279.412H245.518C245.617 279.118 245.792 278.888 246.043 278.719C246.296 278.549 246.583 278.464 246.903 278.464C246.969 278.464 247.047 278.466 247.137 278.471C247.229 278.476 247.301 278.482 247.354 278.489V279.504C247.311 279.492 247.235 279.479 247.126 279.465C247.017 279.449 246.908 279.44 246.8 279.44C246.549 279.44 246.325 279.494 246.128 279.6C245.934 279.704 245.78 279.85 245.667 280.037C245.553 280.222 245.496 280.432 245.496 280.669V284H244.434Z" fill="#8F8F91"/>
<rect x="264" y="276" width="8" height="8" rx="2" fill="#58585A"/>
<path d="M276.799 284V276.727H281.359V277.672H277.896V279.888H281.121V280.829H277.896V283.055H281.401V284H276.799ZM282.824 284V276.727H285.488C286.004 276.727 286.431 276.812 286.77 276.983C287.108 277.151 287.362 277.379 287.53 277.668C287.698 277.955 287.782 278.278 287.782 278.638C287.782 278.941 287.726 279.196 287.615 279.405C287.504 279.611 287.354 279.777 287.167 279.902C286.983 280.025 286.779 280.115 286.557 280.172V280.243C286.798 280.255 287.034 280.333 287.263 280.477C287.495 280.619 287.687 280.822 287.839 281.085C287.99 281.347 288.066 281.667 288.066 282.043C288.066 282.415 287.978 282.749 287.803 283.045C287.63 283.338 287.363 283.571 287.001 283.744C286.638 283.915 286.175 284 285.612 284H282.824ZM283.922 283.059H285.506C286.031 283.059 286.407 282.957 286.635 282.754C286.862 282.55 286.976 282.295 286.976 281.99C286.976 281.76 286.918 281.55 286.802 281.358C286.686 281.166 286.52 281.013 286.305 280.9C286.091 280.786 285.838 280.729 285.545 280.729H283.922V283.059ZM283.922 279.874H285.392C285.638 279.874 285.859 279.826 286.056 279.732C286.255 279.637 286.412 279.504 286.528 279.334C286.647 279.161 286.706 278.957 286.706 278.723C286.706 278.422 286.6 278.17 286.39 277.967C286.179 277.763 285.856 277.661 285.42 277.661H283.922V279.874ZM290.465 276.727V284H289.367V276.727H290.465ZM291.704 277.672V276.727H297.333V277.672H295.063V284H293.97V277.672H291.704ZM300.931 284H298.576V276.727H301.005C301.718 276.727 302.33 276.873 302.841 277.164C303.353 277.453 303.744 277.868 304.017 278.411C304.291 278.95 304.429 279.598 304.429 280.353C304.429 281.111 304.29 281.762 304.013 282.306C303.739 282.851 303.341 283.27 302.82 283.563C302.299 283.854 301.669 284 300.931 284ZM299.674 283.041H300.87C301.424 283.041 301.885 282.937 302.252 282.729C302.619 282.518 302.893 282.214 303.076 281.816C303.258 281.416 303.349 280.928 303.349 280.353C303.349 279.782 303.258 279.298 303.076 278.901C302.896 278.503 302.627 278.201 302.27 277.995C301.912 277.789 301.468 277.686 300.938 277.686H299.674V283.041ZM306.046 284H304.881L307.499 276.727H308.766L311.384 284H310.219L308.163 278.048H308.106L306.046 284ZM306.241 281.152H310.02V282.075H306.241V281.152Z" fill="#8F8F91"/>
<rect x="328" y="276" width="8" height="8" rx="2" fill="#58585A"/>
<path d="M340.799 284V276.727H345.359V277.672H341.896V279.888H345.121V280.829H341.896V283.055H345.401V284H340.799ZM346.824 284V276.727H349.488C350.004 276.727 350.431 276.812 350.77 276.983C351.108 277.151 351.362 277.379 351.53 277.668C351.698 277.955 351.782 278.278 351.782 278.638C351.782 278.941 351.726 279.196 351.615 279.405C351.504 279.611 351.354 279.777 351.167 279.902C350.983 280.025 350.779 280.115 350.557 280.172V280.243C350.798 280.255 351.034 280.333 351.263 280.477C351.495 280.619 351.687 280.822 351.839 281.085C351.99 281.347 352.066 281.667 352.066 282.043C352.066 282.415 351.978 282.749 351.803 283.045C351.63 283.338 351.363 283.571 351.001 283.744C350.638 283.915 350.175 284 349.612 284H346.824ZM347.922 283.059H349.506C350.031 283.059 350.407 282.957 350.635 282.754C350.862 282.55 350.976 282.295 350.976 281.99C350.976 281.76 350.918 281.55 350.802 281.358C350.686 281.166 350.52 281.013 350.305 280.9C350.091 280.786 349.838 280.729 349.545 280.729H347.922V283.059ZM347.922 279.874H349.392C349.638 279.874 349.859 279.826 350.056 279.732C350.255 279.637 350.412 279.504 350.528 279.334C350.647 279.161 350.706 278.957 350.706 278.723C350.706 278.422 350.6 278.17 350.39 277.967C350.179 277.763 349.856 277.661 349.42 277.661H347.922V279.874ZM354.465 276.727V284H353.367V276.727H354.465ZM355.704 277.672V276.727H361.333V277.672H359.063V284H357.97V277.672H355.704ZM364.931 284H362.576V276.727H365.005C365.718 276.727 366.33 276.873 366.841 277.164C367.353 277.453 367.744 277.868 368.017 278.411C368.291 278.95 368.429 279.598 368.429 280.353C368.429 281.111 368.29 281.762 368.013 282.306C367.739 282.851 367.341 283.27 366.82 283.563C366.299 283.854 365.669 284 364.931 284ZM363.674 283.041H364.87C365.424 283.041 365.885 282.937 366.252 282.729C366.619 282.518 366.893 282.214 367.076 281.816C367.258 281.416 367.349 280.928 367.349 280.353C367.349 279.782 367.258 279.298 367.076 278.901C366.896 278.503 366.627 278.201 366.27 277.995C365.912 277.789 365.468 277.686 364.938 277.686H363.674V283.041ZM370.046 284H368.881L371.499 276.727H372.766L375.384 284H374.219L372.163 278.048H372.106L370.046 284ZM370.241 281.152H374.02V282.075H370.241V281.152ZM379.08 276.727H380.412L382.727 282.381H382.812L385.128 276.727H386.46V284H385.415V278.737H385.348L383.203 283.989H382.337L380.192 278.734H380.124V284H379.08V276.727ZM389.557 284.121C389.211 284.121 388.899 284.057 388.619 283.929C388.34 283.799 388.119 283.611 387.955 283.364C387.794 283.118 387.714 282.816 387.714 282.459C387.714 282.151 387.773 281.898 387.892 281.699C388.01 281.5 388.17 281.343 388.371 281.227C388.572 281.111 388.797 281.023 389.046 280.964C389.294 280.905 389.548 280.86 389.806 280.829C390.132 280.791 390.397 280.76 390.601 280.737C390.805 280.71 390.953 280.669 391.045 280.612C391.137 280.555 391.183 280.463 391.183 280.335V280.31C391.183 280 391.096 279.76 390.921 279.589C390.748 279.419 390.49 279.334 390.146 279.334C389.789 279.334 389.507 279.413 389.301 279.572C389.098 279.728 388.957 279.902 388.879 280.094L387.881 279.866C387.999 279.535 388.172 279.268 388.399 279.064C388.629 278.858 388.893 278.709 389.191 278.616C389.49 278.522 389.803 278.474 390.132 278.474C390.35 278.474 390.581 278.5 390.825 278.553C391.071 278.602 391.301 278.695 391.514 278.83C391.729 278.964 391.905 279.157 392.043 279.408C392.18 279.657 392.249 279.98 392.249 280.378V284H391.212V283.254H391.169C391.101 283.392 390.998 283.527 390.86 283.659C390.723 283.792 390.547 283.902 390.331 283.989C390.116 284.077 389.858 284.121 389.557 284.121ZM389.788 283.268C390.081 283.268 390.332 283.21 390.541 283.094C390.751 282.978 390.911 282.827 391.02 282.64C391.131 282.451 391.187 282.248 391.187 282.033V281.33C391.149 281.367 391.076 281.403 390.967 281.436C390.86 281.467 390.738 281.494 390.601 281.518C390.464 281.539 390.33 281.559 390.2 281.578C390.07 281.595 389.961 281.609 389.873 281.621C389.667 281.647 389.479 281.691 389.308 281.752C389.14 281.814 389.005 281.902 388.904 282.018C388.804 282.132 388.754 282.284 388.754 282.473C388.754 282.736 388.852 282.935 389.046 283.07C389.24 283.202 389.487 283.268 389.788 283.268ZM393.663 284V278.545H394.689V279.412H394.746C394.846 279.118 395.021 278.888 395.272 278.719C395.525 278.549 395.811 278.464 396.131 278.464C396.197 278.464 396.275 278.466 396.365 278.471C396.458 278.476 396.53 278.482 396.582 278.489V279.504C396.539 279.492 396.464 279.479 396.355 279.465C396.246 279.449 396.137 279.44 396.028 279.44C395.777 279.44 395.553 279.494 395.357 279.6C395.163 279.704 395.009 279.85 394.895 280.037C394.782 280.222 394.725 280.432 394.725 280.669V284H393.663ZM399.593 286.159C399.159 286.159 398.786 286.102 398.474 285.989C398.164 285.875 397.91 285.725 397.714 285.538C397.517 285.351 397.371 285.146 397.274 284.923L398.186 284.547C398.25 284.651 398.335 284.761 398.442 284.877C398.551 284.996 398.698 285.096 398.882 285.179C399.069 285.262 399.31 285.303 399.603 285.303C400.006 285.303 400.338 285.205 400.601 285.009C400.864 284.814 400.995 284.504 400.995 284.078V283.006H400.928C400.864 283.122 400.771 283.251 400.651 283.393C400.532 283.535 400.369 283.658 400.161 283.762C399.952 283.866 399.681 283.918 399.347 283.918C398.917 283.918 398.528 283.818 398.183 283.616C397.839 283.413 397.567 283.113 397.366 282.718C397.167 282.32 397.068 281.831 397.068 281.251C397.068 280.671 397.166 280.174 397.362 279.76C397.561 279.346 397.834 279.028 398.179 278.808C398.525 278.586 398.917 278.474 399.355 278.474C399.693 278.474 399.967 278.531 400.175 278.645C400.383 278.756 400.545 278.886 400.661 279.036C400.78 279.185 400.871 279.316 400.935 279.43H401.013V278.545H402.053V284.121C402.053 284.589 401.945 284.974 401.727 285.275C401.509 285.576 401.214 285.798 400.843 285.942C400.473 286.087 400.057 286.159 399.593 286.159ZM399.582 283.038C399.887 283.038 400.145 282.967 400.356 282.825C400.569 282.68 400.73 282.474 400.839 282.207C400.95 281.937 401.006 281.614 401.006 281.237C401.006 280.87 400.951 280.547 400.843 280.268C400.734 279.988 400.574 279.771 400.363 279.614C400.152 279.456 399.892 279.376 399.582 279.376C399.262 279.376 398.996 279.459 398.783 279.625C398.57 279.788 398.409 280.011 398.3 280.293C398.193 280.574 398.14 280.889 398.14 281.237C398.14 281.595 398.195 281.908 398.303 282.178C398.412 282.448 398.573 282.659 398.786 282.81C399.002 282.962 399.267 283.038 399.582 283.038ZM403.477 284V278.545H404.539V284H403.477ZM404.014 277.704C403.829 277.704 403.67 277.642 403.538 277.519C403.408 277.394 403.343 277.245 403.343 277.072C403.343 276.897 403.408 276.747 403.538 276.624C403.67 276.499 403.829 276.436 404.014 276.436C404.198 276.436 404.356 276.499 404.486 276.624C404.619 276.747 404.685 276.897 404.685 277.072C404.685 277.245 404.619 277.394 404.486 277.519C404.356 277.642 404.198 277.704 404.014 277.704ZM407.029 280.761V284H405.968V278.545H406.987V279.433H407.054C407.18 279.144 407.376 278.912 407.644 278.737C407.914 278.562 408.253 278.474 408.663 278.474C409.035 278.474 409.36 278.553 409.64 278.709C409.919 278.863 410.136 279.092 410.289 279.398C410.443 279.703 410.52 280.081 410.52 280.531V284H409.458V280.658C409.458 280.263 409.355 279.954 409.15 279.732C408.944 279.507 408.661 279.394 408.301 279.394C408.055 279.394 407.836 279.447 407.644 279.554C407.454 279.661 407.304 279.817 407.193 280.023C407.084 280.226 407.029 280.473 407.029 280.761Z" fill="#8F8F91"/>
<path d="M574.759 48V47.2969L577.399 44.4062C577.709 44.0677 577.965 43.7734 578.165 43.5234C578.366 43.2708 578.514 43.0339 578.61 42.8125C578.709 42.5885 578.759 42.3542 578.759 42.1094C578.759 41.8281 578.691 41.5846 578.556 41.3789C578.423 41.1732 578.241 41.0143 578.009 40.9023C577.777 40.7904 577.517 40.7344 577.228 40.7344C576.92 40.7344 576.652 40.7982 576.423 40.9258C576.196 41.0508 576.021 41.2266 575.896 41.4531C575.773 41.6797 575.712 41.9453 575.712 42.25H574.79C574.79 41.7812 574.898 41.3698 575.114 41.0156C575.33 40.6615 575.625 40.3854 575.997 40.1875C576.372 39.9896 576.793 39.8906 577.259 39.8906C577.728 39.8906 578.143 39.9896 578.505 40.1875C578.867 40.3854 579.151 40.6523 579.356 40.9883C579.562 41.3242 579.665 41.6979 579.665 42.1094C579.665 42.4036 579.612 42.6914 579.505 42.9727C579.401 43.2513 579.218 43.5625 578.958 43.9062C578.7 44.2474 578.342 44.6641 577.884 45.1562L576.087 47.0781V47.1406H579.806V48H574.759ZM584.381 48.1094C583.792 48.1094 583.291 47.9492 582.877 47.6289C582.463 47.306 582.146 46.8385 581.928 46.2266C581.709 45.612 581.6 44.8698 581.6 44C581.6 43.1354 581.709 42.3971 581.928 41.7852C582.149 41.1706 582.467 40.7018 582.881 40.3789C583.298 40.0534 583.798 39.8906 584.381 39.8906C584.964 39.8906 585.463 40.0534 585.877 40.3789C586.294 40.7018 586.611 41.1706 586.83 41.7852C587.051 42.3971 587.162 43.1354 587.162 44C587.162 44.8698 587.053 45.612 586.834 46.2266C586.615 46.8385 586.299 47.306 585.885 47.6289C585.471 47.9492 584.969 48.1094 584.381 48.1094ZM584.381 47.25C584.964 47.25 585.417 46.9687 585.74 46.4062C586.063 45.8437 586.225 45.0417 586.225 44C586.225 43.3073 586.15 42.7174 586.002 42.2305C585.856 41.7435 585.645 41.3724 585.369 41.1172C585.096 40.862 584.766 40.7344 584.381 40.7344C583.803 40.7344 583.351 41.0195 583.025 41.5898C582.7 42.1576 582.537 42.9609 582.537 44C582.537 44.6927 582.61 45.2812 582.756 45.7656C582.902 46.25 583.111 46.6185 583.385 46.8711C583.661 47.1237 583.993 47.25 584.381 47.25ZM591.503 48.1094C590.914 48.1094 590.413 47.9492 589.999 47.6289C589.585 47.306 589.269 46.8385 589.05 46.2266C588.831 45.612 588.722 44.8698 588.722 44C588.722 43.1354 588.831 42.3971 589.05 41.7852C589.271 41.1706 589.589 40.7018 590.003 40.3789C590.42 40.0534 590.92 39.8906 591.503 39.8906C592.086 39.8906 592.585 40.0534 592.999 40.3789C593.416 40.7018 593.733 41.1706 593.952 41.7852C594.174 42.3971 594.284 43.1354 594.284 44C594.284 44.8698 594.175 45.612 593.956 46.2266C593.737 46.8385 593.421 47.306 593.007 47.6289C592.593 47.9492 592.091 48.1094 591.503 48.1094ZM591.503 47.25C592.086 47.25 592.539 46.9687 592.862 46.4062C593.185 45.8437 593.347 45.0417 593.347 44C593.347 43.3073 593.272 42.7174 593.124 42.2305C592.978 41.7435 592.767 41.3724 592.491 41.1172C592.218 40.862 591.888 40.7344 591.503 40.7344C590.925 40.7344 590.473 41.0195 590.147 41.5898C589.822 42.1576 589.659 42.9609 589.659 44C589.659 44.6927 589.732 45.2812 589.878 45.7656C590.024 46.25 590.233 46.6185 590.507 46.8711C590.783 47.1237 591.115 47.25 591.503 47.25ZM599.969 46.5V46.0781C599.969 45.7865 600.029 45.5195 600.148 45.2773C600.271 45.0326 600.448 44.8372 600.68 44.6914C600.914 44.543 601.198 44.4687 601.531 44.4687C601.87 44.4687 602.154 44.543 602.383 44.6914C602.612 44.8372 602.785 45.0326 602.902 45.2773C603.02 45.5195 603.078 45.7865 603.078 46.0781V46.5C603.078 46.7917 603.018 47.0599 602.898 47.3047C602.781 47.5469 602.607 47.7422 602.375 47.8906C602.146 48.0365 601.865 48.1094 601.531 48.1094C601.193 48.1094 600.908 48.0365 600.676 47.8906C600.444 47.7422 600.268 47.5469 600.148 47.3047C600.029 47.0599 599.969 46.7917 599.969 46.5ZM600.766 46.0781V46.5C600.766 46.7422 600.823 46.9596 600.938 47.1523C601.052 47.3424 601.25 47.4375 601.531 47.4375C601.805 47.4375 601.997 47.3424 602.109 47.1523C602.224 46.9596 602.281 46.7422 602.281 46.5V46.0781C602.281 45.8359 602.227 45.6198 602.117 45.4297C602.008 45.237 601.813 45.1406 601.531 45.1406C601.258 45.1406 601.061 45.237 600.941 45.4297C600.824 45.6198 600.766 45.8359 600.766 46.0781ZM595.984 41.9219V41.5C595.984 41.2083 596.044 40.9414 596.164 40.6992C596.286 40.4544 596.464 40.2591 596.695 40.1133C596.93 39.9648 597.214 39.8906 597.547 39.8906C597.885 39.8906 598.169 39.9648 598.398 40.1133C598.628 40.2591 598.801 40.4544 598.918 40.6992C599.035 40.9414 599.094 41.2083 599.094 41.5V41.9219C599.094 42.2135 599.034 42.4818 598.914 42.7266C598.797 42.9687 598.622 43.1641 598.391 43.3125C598.161 43.4583 597.88 43.5312 597.547 43.5312C597.208 43.5312 596.923 43.4583 596.691 43.3125C596.46 43.1641 596.284 42.9687 596.164 42.7266C596.044 42.4818 595.984 42.2135 595.984 41.9219ZM596.781 41.5V41.9219C596.781 42.1641 596.839 42.3815 596.953 42.5742C597.068 42.7643 597.266 42.8594 597.547 42.8594C597.82 42.8594 598.013 42.7643 598.125 42.5742C598.24 42.3815 598.297 42.1641 598.297 41.9219V41.5C598.297 41.2578 598.242 41.0417 598.133 40.8516C598.023 40.6589 597.828 40.5625 597.547 40.5625C597.273 40.5625 597.077 40.6589 596.957 40.8516C596.84 41.0417 596.781 41.2578 596.781 41.5ZM596.281 48L601.781 40H602.672L597.172 48H596.281Z" fill="#8F8F91"/>
<path d="M578.337 105V113H577.368V106.016H577.321L575.368 107.312V106.328L577.368 105H578.337ZM584.428 113.109C584.1 113.104 583.771 113.042 583.443 112.922C583.115 112.802 582.816 112.6 582.545 112.316C582.274 112.03 582.057 111.643 581.893 111.156C581.729 110.667 581.646 110.052 581.646 109.312C581.646 108.604 581.713 107.977 581.846 107.43C581.979 106.88 582.171 106.418 582.424 106.043C582.676 105.665 582.981 105.379 583.338 105.184C583.697 104.988 584.102 104.891 584.553 104.891C585.001 104.891 585.399 104.98 585.748 105.16C586.1 105.337 586.386 105.585 586.607 105.902C586.829 106.22 586.972 106.586 587.037 107H586.084C585.995 106.641 585.824 106.342 585.568 106.105C585.313 105.868 584.975 105.75 584.553 105.75C583.933 105.75 583.445 106.02 583.088 106.559C582.734 107.098 582.555 107.854 582.553 108.828H582.615C582.761 108.607 582.934 108.418 583.135 108.262C583.338 108.103 583.562 107.98 583.807 107.895C584.051 107.809 584.311 107.766 584.584 107.766C585.042 107.766 585.462 107.88 585.842 108.109C586.222 108.336 586.527 108.65 586.756 109.051C586.985 109.449 587.1 109.906 587.1 110.422C587.1 110.917 586.989 111.37 586.768 111.781C586.546 112.19 586.235 112.516 585.834 112.758C585.436 112.997 584.967 113.115 584.428 113.109ZM584.428 112.25C584.756 112.25 585.05 112.168 585.311 112.004C585.574 111.84 585.781 111.62 585.932 111.344C586.085 111.068 586.162 110.76 586.162 110.422C586.162 110.091 586.088 109.79 585.939 109.52C585.794 109.246 585.592 109.029 585.334 108.867C585.079 108.706 584.787 108.625 584.459 108.625C584.212 108.625 583.981 108.674 583.768 108.773C583.554 108.87 583.367 109.003 583.205 109.172C583.046 109.341 582.921 109.535 582.83 109.754C582.739 109.97 582.693 110.198 582.693 110.437C582.693 110.755 582.768 111.052 582.916 111.328C583.067 111.604 583.273 111.827 583.533 111.996C583.796 112.165 584.094 112.25 584.428 112.25ZM591.503 113.109C590.914 113.109 590.413 112.949 589.999 112.629C589.585 112.306 589.269 111.839 589.05 111.227C588.831 110.612 588.722 109.87 588.722 109C588.722 108.135 588.831 107.397 589.05 106.785C589.271 106.171 589.589 105.702 590.003 105.379C590.42 105.053 590.92 104.891 591.503 104.891C592.086 104.891 592.585 105.053 592.999 105.379C593.416 105.702 593.733 106.171 593.952 106.785C594.174 107.397 594.284 108.135 594.284 109C594.284 109.87 594.175 110.612 593.956 111.227C593.737 111.839 593.421 112.306 593.007 112.629C592.593 112.949 592.091 113.109 591.503 113.109ZM591.503 112.25C592.086 112.25 592.539 111.969 592.862 111.406C593.185 110.844 593.347 110.042 593.347 109C593.347 108.307 593.272 107.717 593.124 107.23C592.978 106.743 592.767 106.372 592.491 106.117C592.218 105.862 591.888 105.734 591.503 105.734C590.925 105.734 590.473 106.02 590.147 106.59C589.822 107.158 589.659 107.961 589.659 109C589.659 109.693 589.732 110.281 589.878 110.766C590.024 111.25 590.233 111.618 590.507 111.871C590.783 112.124 591.115 112.25 591.503 112.25ZM599.969 111.5V111.078C599.969 110.786 600.029 110.52 600.148 110.277C600.271 110.033 600.448 109.837 600.68 109.691C600.914 109.543 601.198 109.469 601.531 109.469C601.87 109.469 602.154 109.543 602.383 109.691C602.612 109.837 602.785 110.033 602.902 110.277C603.02 110.52 603.078 110.786 603.078 111.078V111.5C603.078 111.792 603.018 112.06 602.898 112.305C602.781 112.547 602.607 112.742 602.375 112.891C602.146 113.036 601.865 113.109 601.531 113.109C601.193 113.109 600.908 113.036 600.676 112.891C600.444 112.742 600.268 112.547 600.148 112.305C600.029 112.06 599.969 111.792 599.969 111.5ZM600.766 111.078V111.5C600.766 111.742 600.823 111.96 600.938 112.152C601.052 112.342 601.25 112.437 601.531 112.437C601.805 112.437 601.997 112.342 602.109 112.152C602.224 111.96 602.281 111.742 602.281 111.5V111.078C602.281 110.836 602.227 110.62 602.117 110.43C602.008 110.237 601.813 110.141 601.531 110.141C601.258 110.141 601.061 110.237 600.941 110.43C600.824 110.62 600.766 110.836 600.766 111.078ZM595.984 106.922V106.5C595.984 106.208 596.044 105.941 596.164 105.699C596.286 105.454 596.464 105.259 596.695 105.113C596.93 104.965 597.214 104.891 597.547 104.891C597.885 104.891 598.169 104.965 598.398 105.113C598.628 105.259 598.801 105.454 598.918 105.699C599.035 105.941 599.094 106.208 599.094 106.5V106.922C599.094 107.214 599.034 107.482 598.914 107.727C598.797 107.969 598.622 108.164 598.391 108.312C598.161 108.458 597.88 108.531 597.547 108.531C597.208 108.531 596.923 108.458 596.691 108.312C596.46 108.164 596.284 107.969 596.164 107.727C596.044 107.482 595.984 107.214 595.984 106.922ZM596.781 106.5V106.922C596.781 107.164 596.839 107.382 596.953 107.574C597.068 107.764 597.266 107.859 597.547 107.859C597.82 107.859 598.013 107.764 598.125 107.574C598.24 107.382 598.297 107.164 598.297 106.922V106.5C598.297 106.258 598.242 106.042 598.133 105.852C598.023 105.659 597.828 105.562 597.547 105.562C597.273 105.562 597.077 105.659 596.957 105.852C596.84 106.042 596.781 106.258 596.781 106.5ZM596.281 113L601.781 105H602.672L597.172 113H596.281Z" fill="#8F8F91"/>
<path d="M578.337 170V178H577.368V171.016H577.321L575.368 172.312V171.328L577.368 170H578.337ZM581.881 178V177.297L584.521 174.406C584.831 174.068 585.087 173.773 585.287 173.523C585.488 173.271 585.636 173.034 585.732 172.812C585.831 172.589 585.881 172.354 585.881 172.109C585.881 171.828 585.813 171.585 585.678 171.379C585.545 171.173 585.363 171.014 585.131 170.902C584.899 170.79 584.639 170.734 584.35 170.734C584.042 170.734 583.774 170.798 583.545 170.926C583.318 171.051 583.143 171.227 583.018 171.453C582.895 171.68 582.834 171.945 582.834 172.25H581.912C581.912 171.781 582.02 171.37 582.236 171.016C582.452 170.661 582.747 170.385 583.119 170.187C583.494 169.99 583.915 169.891 584.381 169.891C584.85 169.891 585.265 169.99 585.627 170.187C585.989 170.385 586.273 170.652 586.479 170.988C586.684 171.324 586.787 171.698 586.787 172.109C586.787 172.404 586.734 172.691 586.627 172.973C586.523 173.251 586.34 173.562 586.08 173.906C585.822 174.247 585.464 174.664 585.006 175.156L583.209 177.078V177.141H586.928V178H581.881ZM591.503 178.109C590.914 178.109 590.413 177.949 589.999 177.629C589.585 177.306 589.269 176.839 589.05 176.227C588.831 175.612 588.722 174.87 588.722 174C588.722 173.135 588.831 172.397 589.05 171.785C589.271 171.171 589.589 170.702 590.003 170.379C590.42 170.053 590.92 169.891 591.503 169.891C592.086 169.891 592.585 170.053 592.999 170.379C593.416 170.702 593.733 171.171 593.952 171.785C594.174 172.397 594.284 173.135 594.284 174C594.284 174.87 594.175 175.612 593.956 176.227C593.737 176.839 593.421 177.306 593.007 177.629C592.593 177.949 592.091 178.109 591.503 178.109ZM591.503 177.25C592.086 177.25 592.539 176.969 592.862 176.406C593.185 175.844 593.347 175.042 593.347 174C593.347 173.307 593.272 172.717 593.124 172.23C592.978 171.743 592.767 171.372 592.491 171.117C592.218 170.862 591.888 170.734 591.503 170.734C590.925 170.734 590.473 171.02 590.147 171.59C589.822 172.158 589.659 172.961 589.659 174C589.659 174.693 589.732 175.281 589.878 175.766C590.024 176.25 590.233 176.618 590.507 176.871C590.783 177.124 591.115 177.25 591.503 177.25ZM599.969 176.5V176.078C599.969 175.786 600.029 175.52 600.148 175.277C600.271 175.033 600.448 174.837 600.68 174.691C600.914 174.543 601.198 174.469 601.531 174.469C601.87 174.469 602.154 174.543 602.383 174.691C602.612 174.837 602.785 175.033 602.902 175.277C603.02 175.52 603.078 175.786 603.078 176.078V176.5C603.078 176.792 603.018 177.06 602.898 177.305C602.781 177.547 602.607 177.742 602.375 177.891C602.146 178.036 601.865 178.109 601.531 178.109C601.193 178.109 600.908 178.036 600.676 177.891C600.444 177.742 600.268 177.547 600.148 177.305C600.029 177.06 599.969 176.792 599.969 176.5ZM600.766 176.078V176.5C600.766 176.742 600.823 176.96 600.938 177.152C601.052 177.342 601.25 177.437 601.531 177.437C601.805 177.437 601.997 177.342 602.109 177.152C602.224 176.96 602.281 176.742 602.281 176.5V176.078C602.281 175.836 602.227 175.62 602.117 175.43C602.008 175.237 601.813 175.141 601.531 175.141C601.258 175.141 601.061 175.237 600.941 175.43C600.824 175.62 600.766 175.836 600.766 176.078ZM595.984 171.922V171.5C595.984 171.208 596.044 170.941 596.164 170.699C596.286 170.454 596.464 170.259 596.695 170.113C596.93 169.965 597.214 169.891 597.547 169.891C597.885 169.891 598.169 169.965 598.398 170.113C598.628 170.259 598.801 170.454 598.918 170.699C599.035 170.941 599.094 171.208 599.094 171.5V171.922C599.094 172.214 599.034 172.482 598.914 172.727C598.797 172.969 598.622 173.164 598.391 173.312C598.161 173.458 597.88 173.531 597.547 173.531C597.208 173.531 596.923 173.458 596.691 173.312C596.46 173.164 596.284 172.969 596.164 172.727C596.044 172.482 595.984 172.214 595.984 171.922ZM596.781 171.5V171.922C596.781 172.164 596.839 172.382 596.953 172.574C597.068 172.764 597.266 172.859 597.547 172.859C597.82 172.859 598.013 172.764 598.125 172.574C598.24 172.382 598.297 172.164 598.297 171.922V171.5C598.297 171.258 598.242 171.042 598.133 170.852C598.023 170.659 597.828 170.562 597.547 170.562C597.273 170.562 597.077 170.659 596.957 170.852C596.84 171.042 596.781 171.258 596.781 171.5ZM596.281 178L601.781 170H602.672L597.172 178H596.281Z" fill="#8F8F91"/>
<path d="M591.503 243.109C590.914 243.109 590.413 242.949 589.999 242.629C589.585 242.306 589.269 241.839 589.05 241.227C588.831 240.612 588.722 239.87 588.722 239C588.722 238.135 588.831 237.397 589.05 236.785C589.271 236.171 589.589 235.702 590.003 235.379C590.42 235.053 590.92 234.891 591.503 234.891C592.086 234.891 592.585 235.053 592.999 235.379C593.416 235.702 593.733 236.171 593.952 236.785C594.174 237.397 594.284 238.135 594.284 239C594.284 239.87 594.175 240.612 593.956 241.227C593.737 241.839 593.421 242.306 593.007 242.629C592.593 242.949 592.091 243.109 591.503 243.109ZM591.503 242.25C592.086 242.25 592.539 241.969 592.862 241.406C593.185 240.844 593.347 240.042 593.347 239C593.347 238.307 593.272 237.717 593.124 237.23C592.978 236.743 592.767 236.372 592.491 236.117C592.218 235.862 591.888 235.734 591.503 235.734C590.925 235.734 590.473 236.02 590.147 236.59C589.822 237.158 589.659 237.961 589.659 239C589.659 239.693 589.732 240.281 589.878 240.766C590.024 241.25 590.233 241.618 590.507 241.871C590.783 242.124 591.115 242.25 591.503 242.25ZM599.969 241.5V241.078C599.969 240.786 600.029 240.52 600.148 240.277C600.271 240.033 600.448 239.837 600.68 239.691C600.914 239.543 601.198 239.469 601.531 239.469C601.87 239.469 602.154 239.543 602.383 239.691C602.612 239.837 602.785 240.033 602.902 240.277C603.02 240.52 603.078 240.786 603.078 241.078V241.5C603.078 241.792 603.018 242.06 602.898 242.305C602.781 242.547 602.607 242.742 602.375 242.891C602.146 243.036 601.865 243.109 601.531 243.109C601.193 243.109 600.908 243.036 600.676 242.891C600.444 242.742 600.268 242.547 600.148 242.305C600.029 242.06 599.969 241.792 599.969 241.5ZM600.766 241.078V241.5C600.766 241.742 600.823 241.96 600.938 242.152C601.052 242.342 601.25 242.437 601.531 242.437C601.805 242.437 601.997 242.342 602.109 242.152C602.224 241.96 602.281 241.742 602.281 241.5V241.078C602.281 240.836 602.227 240.62 602.117 240.43C602.008 240.237 601.813 240.141 601.531 240.141C601.258 240.141 601.061 240.237 600.941 240.43C600.824 240.62 600.766 240.836 600.766 241.078ZM595.984 236.922V236.5C595.984 236.208 596.044 235.941 596.164 235.699C596.286 235.454 596.464 235.259 596.695 235.113C596.93 234.965 597.214 234.891 597.547 234.891C597.885 234.891 598.169 234.965 598.398 235.113C598.628 235.259 598.801 235.454 598.918 235.699C599.035 235.941 599.094 236.208 599.094 236.5V236.922C599.094 237.214 599.034 237.482 598.914 237.727C598.797 237.969 598.622 238.164 598.391 238.312C598.161 238.458 597.88 238.531 597.547 238.531C597.208 238.531 596.923 238.458 596.691 238.312C596.46 238.164 596.284 237.969 596.164 237.727C596.044 237.482 595.984 237.214 595.984 236.922ZM596.781 236.5V236.922C596.781 237.164 596.839 237.382 596.953 237.574C597.068 237.764 597.266 237.859 597.547 237.859C597.82 237.859 598.013 237.764 598.125 237.574C598.24 237.382 598.297 237.164 598.297 236.922V236.5C598.297 236.258 598.242 236.042 598.133 235.852C598.023 235.659 597.828 235.562 597.547 235.562C597.273 235.562 597.077 235.659 596.957 235.852C596.84 236.042 596.781 236.258 596.781 236.5ZM596.281 243L601.781 235H602.672L597.172 243H596.281Z" fill="#8F8F91"/>
<path d="M43 174L565 174" stroke="#E6E6E6"/>
<path d="M40 109L565 109" stroke="#E6E6E6"/>
<path d="M188 168C188 163.582 191.582 160 196 160C200.418 160 204 163.582 204 168V238H188V168Z" fill="#D8D8D9"/>
<path d="M204 234C204 229.582 207.582 226 212 226C216.418 226 220 229.582 220 234V238H204V234Z" fill="#A0A0A1"/>
<path d="M238 168C238 163.582 241.582 160 246 160C250.418 160 254 163.582 254 168V238H238V168Z" fill="#D8D8D9"/>
<path d="M254 234C254 229.582 257.582 226 262 226C266.418 226 270 229.582 270 234V238H254V234Z" fill="#A0A0A1"/>
<path d="M337 107C337 102.582 340.582 99 345 99C349.418 99 353 102.582 353 107V238H337V107Z" fill="#D8D8D9"/>
<path d="M353 234C353 229.582 356.582 226 361 226C365.418 226 369 229.582 369 234V238H353V234Z" fill="#A0A0A1"/>
<path d="M387 107C387 102.582 390.582 99 395 99C399.418 99 403 102.582 403 107V238H387V107Z" fill="#D8D8D9"/>
<path d="M403 234C403 229.582 406.582 226 411 226C415.418 226 419 229.582 419 234V238H403V234Z" fill="#A0A0A1"/>
<path d="M436 129C436 124.582 439.582 121 444 121C448.418 121 452 124.582 452 129V238H436V129Z" fill="#D8D8D9"/>
<path d="M452 234C452 229.582 455.582 226 460 226C464.418 226 468 229.582 468 234V238H452V234Z" fill="#A0A0A1"/>
<path d="M486 168C486 163.582 489.582 160 494 160C498.418 160 502 163.582 502 168V238H486V168Z" fill="#D8D8D9"/>
<path d="M502 234C502 229.582 505.582 226 510 226C514.418 226 518 229.582 518 234V238H502V234Z" fill="#A0A0A1"/>
<path d="M533 154C533 149.582 536.582 146 541 146C545.418 146 549 149.582 549 154V238H533V154Z" fill="#D8D8D9"/>
<path d="M549 234C549 229.582 552.582 226 557 226C561.418 226 565 229.582 565 234V238H549V234Z" fill="#A0A0A1"/>
<path d="M139 168C139 163.582 142.582 160 147 160C151.418 160 155 163.582 155 168V238H139V168Z" fill="#D8D8D9"/>
<path d="M155 234C155 229.582 158.582 226 163 226C167.418 226 171 229.582 171 234V238H155V234Z" fill="#A0A0A1"/>
<path d="M89 132C89 127.582 92.5817 124 97 124C101.418 124 105 127.582 105 132V238H89V132Z" fill="#D8D8D9"/>
<path d="M105 222C105 217.582 108.582 214 113 214C117.418 214 121 217.582 121 222V238H105V222Z" fill="#A0A0A1"/>
<path d="M40 168C40 163.582 43.5817 160 48 160C52.4183 160 56 163.582 56 168V238H40V168Z" fill="#D8D8D9"/>
<path d="M56 234C56 229.582 59.5817 226 64 226C68.4183 226 72 229.582 72 234V238H56V234Z" fill="#A0A0A1"/>
<path d="M304 234C304 229.582 307.582 226 312 226C316.418 226 320 229.582 320 234V238H304V234Z" fill="#A0A0A1"/>
<path d="M288 107C288 102.582 291.582 99 296 99C300.418 99 304 102.582 304 107V238H288V107Z" fill="#D8D8D9"/>
<path d="M40 223.254L89.2065 209.152C89.5536 209.053 89.9211 209.049 90.2701 209.141L143.249 223.19C143.411 223.233 143.577 223.255 143.745 223.256L200.263 223.746H248.995H301.746H355H407.982C408.162 223.746 408.342 223.721 408.516 223.673L460.727 209.216C461.228 209.077 461.762 209.139 462.218 209.387L513.898 237.53C514.442 237.826 515.093 237.854 515.66 237.604L565 215.881" stroke="#58585A" stroke-width="2"/>
</svg>
