<svg width="274" height="234" viewBox="0 0 274 234" fill="none" xmlns="http://www.w3.org/2000/svg">
<path d="M209.184 60.8185L228.003 144.909L175.277 212.339H90.7227L37.9962 144.909L56.8155 60.8185L133 23.4025L209.184 60.8185Z" stroke="#E6E6E6"/>
<path d="M192.765 74.172L207.529 140.144L166.166 193.043H99.834L58.4697 140.144L73.2344 74.172L133 44.8195L192.765 74.172Z" stroke="#E6E6E6"/>
<path d="M175.564 88.1616L186.081 135.152L156.62 172.829H109.38L79.918 135.152L90.4346 88.1616L133 67.2563L175.564 88.1616Z" stroke="#E6E6E6"/>
<path d="M159.146 101.514L165.607 130.386L147.509 153.532H118.491L100.392 130.386L106.853 101.514L133 88.673L159.146 101.514Z" stroke="#E6E6E6"/>
<path d="M145.073 112.96L148.06 126.3L139.697 136.993H126.303L117.939 126.3L120.926 112.96L133 107.03L145.073 112.96Z" stroke="#E6E6E6"/>
<path d="M179.969 230.658V222.658H182.766C183.323 222.658 183.783 222.754 184.145 222.947C184.507 223.137 184.776 223.393 184.953 223.716C185.13 224.036 185.219 224.392 185.219 224.783C185.219 225.126 185.158 225.41 185.035 225.634C184.915 225.858 184.757 226.035 184.559 226.165C184.363 226.296 184.151 226.392 183.922 226.454V226.533C184.167 226.548 184.413 226.634 184.66 226.79C184.908 226.947 185.115 227.171 185.281 227.462C185.448 227.754 185.531 228.111 185.531 228.533C185.531 228.934 185.44 229.294 185.258 229.615C185.076 229.935 184.788 230.189 184.395 230.376C184.001 230.564 183.49 230.658 182.859 230.658H179.969ZM180.938 229.798H182.859C183.492 229.798 183.941 229.676 184.207 229.431C184.475 229.184 184.609 228.884 184.609 228.533C184.609 228.262 184.54 228.012 184.402 227.783C184.264 227.551 184.068 227.366 183.812 227.228C183.557 227.087 183.255 227.017 182.906 227.017H180.938V229.798ZM180.938 226.173H182.734C183.026 226.173 183.289 226.116 183.523 226.001C183.76 225.887 183.948 225.725 184.086 225.517C184.227 225.309 184.297 225.064 184.297 224.783C184.297 224.431 184.174 224.133 183.93 223.888C183.685 223.641 183.297 223.517 182.766 223.517H180.938V226.173ZM188.764 230.798C188.383 230.798 188.038 230.727 187.729 230.583C187.419 230.437 187.173 230.228 186.99 229.954C186.808 229.678 186.717 229.345 186.717 228.954C186.717 228.611 186.785 228.332 186.92 228.118C187.055 227.902 187.236 227.733 187.463 227.611C187.689 227.488 187.939 227.397 188.213 227.337C188.489 227.275 188.766 227.225 189.045 227.189C189.41 227.142 189.705 227.107 189.932 227.083C190.161 227.057 190.327 227.014 190.432 226.954C190.538 226.895 190.592 226.79 190.592 226.642V226.611C190.592 226.225 190.486 225.926 190.275 225.712C190.067 225.499 189.751 225.392 189.326 225.392C188.886 225.392 188.541 225.488 188.291 225.681C188.041 225.874 187.865 226.079 187.764 226.298L186.889 225.986C187.045 225.621 187.253 225.337 187.514 225.134C187.777 224.928 188.063 224.785 188.373 224.704C188.686 224.621 188.993 224.579 189.295 224.579C189.488 224.579 189.709 224.603 189.959 224.65C190.212 224.694 190.455 224.786 190.689 224.927C190.926 225.068 191.123 225.28 191.279 225.564C191.436 225.848 191.514 226.228 191.514 226.704V230.658H190.592V229.845H190.545C190.482 229.975 190.378 230.115 190.232 230.263C190.087 230.411 189.893 230.538 189.65 230.642C189.408 230.746 189.113 230.798 188.764 230.798ZM188.904 229.97C189.269 229.97 189.576 229.898 189.826 229.755C190.079 229.612 190.269 229.427 190.396 229.201C190.527 228.974 190.592 228.736 190.592 228.486V227.642C190.553 227.689 190.467 227.732 190.334 227.771C190.204 227.807 190.053 227.84 189.881 227.868C189.712 227.895 189.546 227.918 189.385 227.939C189.226 227.957 189.097 227.973 188.998 227.986C188.758 228.017 188.535 228.068 188.326 228.138C188.12 228.206 187.954 228.309 187.826 228.447C187.701 228.582 187.639 228.767 187.639 229.001C187.639 229.322 187.757 229.564 187.994 229.728C188.234 229.889 188.537 229.97 188.904 229.97ZM194.118 222.658V230.658H193.196V222.658H194.118ZM197.572 230.798C197.192 230.798 196.847 230.727 196.537 230.583C196.227 230.437 195.981 230.228 195.799 229.954C195.617 229.678 195.525 229.345 195.525 228.954C195.525 228.611 195.593 228.332 195.729 228.118C195.864 227.902 196.045 227.733 196.271 227.611C196.498 227.488 196.748 227.397 197.021 227.337C197.298 227.275 197.575 227.225 197.854 227.189C198.218 227.142 198.514 227.107 198.74 227.083C198.969 227.057 199.136 227.014 199.24 226.954C199.347 226.895 199.4 226.79 199.4 226.642V226.611C199.4 226.225 199.295 225.926 199.084 225.712C198.876 225.499 198.559 225.392 198.135 225.392C197.695 225.392 197.35 225.488 197.1 225.681C196.85 225.874 196.674 226.079 196.572 226.298L195.697 225.986C195.854 225.621 196.062 225.337 196.322 225.134C196.585 224.928 196.872 224.785 197.182 224.704C197.494 224.621 197.801 224.579 198.104 224.579C198.296 224.579 198.518 224.603 198.768 224.65C199.02 224.694 199.264 224.786 199.498 224.927C199.735 225.068 199.932 225.28 200.088 225.564C200.244 225.848 200.322 226.228 200.322 226.704V230.658H199.4V229.845H199.354C199.291 229.975 199.187 230.115 199.041 230.263C198.895 230.411 198.701 230.538 198.459 230.642C198.217 230.746 197.921 230.798 197.572 230.798ZM197.713 229.97C198.077 229.97 198.385 229.898 198.635 229.755C198.887 229.612 199.077 229.427 199.205 229.201C199.335 228.974 199.4 228.736 199.4 228.486V227.642C199.361 227.689 199.275 227.732 199.143 227.771C199.012 227.807 198.861 227.84 198.689 227.868C198.52 227.895 198.355 227.918 198.193 227.939C198.035 227.957 197.906 227.973 197.807 227.986C197.567 228.017 197.343 228.068 197.135 228.138C196.929 228.206 196.762 228.309 196.635 228.447C196.51 228.582 196.447 228.767 196.447 229.001C196.447 229.322 196.566 229.564 196.803 229.728C197.042 229.889 197.346 229.97 197.713 229.97ZM202.927 227.048V230.658H202.005V224.658H202.896V225.595H202.974C203.114 225.29 203.328 225.046 203.614 224.861C203.901 224.673 204.271 224.579 204.724 224.579C205.13 224.579 205.485 224.663 205.79 224.829C206.095 224.993 206.332 225.243 206.501 225.579C206.67 225.913 206.755 226.335 206.755 226.845V230.658H205.833V226.908C205.833 226.436 205.711 226.069 205.466 225.806C205.221 225.54 204.885 225.408 204.458 225.408C204.164 225.408 203.901 225.471 203.669 225.599C203.44 225.727 203.259 225.913 203.126 226.158C202.993 226.402 202.927 226.699 202.927 227.048ZM210.877 230.783C210.314 230.783 209.83 230.65 209.424 230.384C209.018 230.118 208.705 229.753 208.486 229.286C208.268 228.82 208.158 228.288 208.158 227.689C208.158 227.079 208.27 226.542 208.494 226.076C208.721 225.607 209.036 225.241 209.439 224.978C209.846 224.712 210.32 224.579 210.861 224.579C211.283 224.579 211.663 224.658 212.002 224.814C212.34 224.97 212.618 225.189 212.834 225.47C213.05 225.751 213.184 226.079 213.236 226.454H212.314C212.244 226.181 212.088 225.939 211.846 225.728C211.606 225.514 211.283 225.408 210.877 225.408C210.518 225.408 210.202 225.501 209.932 225.689C209.663 225.874 209.454 226.135 209.303 226.474C209.154 226.81 209.08 227.204 209.08 227.658C209.08 228.121 209.153 228.525 209.299 228.868C209.447 229.212 209.656 229.479 209.924 229.669C210.195 229.859 210.512 229.954 210.877 229.954C211.117 229.954 211.334 229.913 211.529 229.829C211.725 229.746 211.89 229.626 212.025 229.47C212.161 229.314 212.257 229.126 212.314 228.908H213.236C213.184 229.262 213.055 229.581 212.85 229.865C212.646 230.146 212.377 230.37 212.041 230.536C211.708 230.701 211.32 230.783 210.877 230.783ZM217.1 230.783C216.521 230.783 216.023 230.655 215.604 230.4C215.187 230.142 214.865 229.783 214.639 229.322C214.415 228.858 214.303 228.319 214.303 227.704C214.303 227.09 214.415 226.548 214.639 226.079C214.865 225.608 215.18 225.241 215.584 224.978C215.99 224.712 216.464 224.579 217.006 224.579C217.318 224.579 217.627 224.631 217.932 224.736C218.236 224.84 218.514 225.009 218.764 225.243C219.014 225.475 219.213 225.783 219.361 226.165C219.51 226.548 219.584 227.02 219.584 227.579V227.97H214.959V227.173H218.646C218.646 226.835 218.579 226.533 218.443 226.267C218.311 226.001 218.12 225.792 217.873 225.638C217.628 225.484 217.339 225.408 217.006 225.408C216.639 225.408 216.321 225.499 216.053 225.681C215.787 225.861 215.583 226.095 215.439 226.384C215.296 226.673 215.225 226.983 215.225 227.314V227.845C215.225 228.298 215.303 228.682 215.459 228.997C215.618 229.31 215.838 229.548 216.119 229.712C216.4 229.874 216.727 229.954 217.1 229.954C217.342 229.954 217.561 229.921 217.756 229.853C217.954 229.783 218.124 229.678 218.268 229.54C218.411 229.4 218.521 229.225 218.6 229.017L219.49 229.267C219.396 229.569 219.239 229.835 219.018 230.064C218.796 230.29 218.523 230.467 218.197 230.595C217.872 230.72 217.506 230.783 217.1 230.783Z" fill="#8F8F91"/>
<path d="M35.5098 230.658H34.4942L37.4317 222.658H38.4317L41.3692 230.658H40.3536L37.963 223.923H37.9005L35.5098 230.658ZM35.8848 227.533H39.9786V228.392H35.8848V227.533ZM46.2715 228.204V224.658H47.1934V230.658H46.2715V229.642H46.209C46.0684 229.947 45.8497 230.206 45.5528 230.419C45.2559 230.63 44.8809 230.736 44.4278 230.736C44.0528 230.736 43.7195 230.654 43.4278 230.49C43.1361 230.323 42.907 230.073 42.7403 229.74C42.5736 229.404 42.4903 228.98 42.4903 228.47V224.658H43.4122V228.408C43.4122 228.845 43.5346 229.194 43.7794 229.454C44.0268 229.715 44.3419 229.845 44.7247 229.845C44.9538 229.845 45.1869 229.786 45.4239 229.669C45.6635 229.552 45.864 229.372 46.0255 229.13C46.1895 228.888 46.2715 228.579 46.2715 228.204ZM51.4913 224.658V225.439H48.3819V224.658H51.4913ZM49.2881 223.22H50.21V228.939C50.21 229.199 50.2478 229.395 50.3233 229.525C50.4014 229.652 50.5004 229.738 50.6202 229.783C50.7426 229.824 50.8715 229.845 51.0069 229.845C51.1085 229.845 51.1918 229.84 51.2569 229.829C51.322 229.816 51.3741 229.806 51.4131 229.798L51.6006 230.626C51.5381 230.65 51.4509 230.673 51.3389 230.697C51.2269 230.723 51.085 230.736 50.9131 230.736C50.6527 230.736 50.3975 230.68 50.1475 230.568C49.9001 230.456 49.6944 230.285 49.5303 230.056C49.3689 229.827 49.2881 229.538 49.2881 229.189V223.22ZM55.251 230.783C54.7094 230.783 54.2341 230.654 53.8253 230.396C53.419 230.138 53.1013 229.777 52.8721 229.314C52.6456 228.85 52.5323 228.309 52.5323 227.689C52.5323 227.064 52.6456 226.518 52.8721 226.052C53.1013 225.586 53.419 225.224 53.8253 224.966C54.2341 224.708 54.7094 224.579 55.251 224.579C55.7927 224.579 56.2667 224.708 56.6729 224.966C57.0818 225.224 57.3995 225.586 57.626 226.052C57.8552 226.518 57.9698 227.064 57.9698 227.689C57.9698 228.309 57.8552 228.85 57.626 229.314C57.3995 229.777 57.0818 230.138 56.6729 230.396C56.2667 230.654 55.7927 230.783 55.251 230.783ZM55.251 229.954C55.6625 229.954 56.001 229.849 56.2667 229.638C56.5323 229.427 56.7289 229.15 56.8565 228.806C56.9841 228.462 57.0479 228.09 57.0479 227.689C57.0479 227.288 56.9841 226.914 56.8565 226.568C56.7289 226.221 56.5323 225.941 56.2667 225.728C56.001 225.514 55.6625 225.408 55.251 225.408C54.8396 225.408 54.501 225.514 54.2354 225.728C53.9698 225.941 53.7732 226.221 53.6456 226.568C53.518 226.914 53.4542 227.288 53.4542 227.689C53.4542 228.09 53.518 228.462 53.6456 228.806C53.7732 229.15 53.9698 229.427 54.2354 229.638C54.501 229.849 54.8396 229.954 55.251 229.954ZM60.2989 227.048V230.658H59.377V224.658H60.2676V225.595H60.3458C60.4864 225.29 60.6999 225.046 60.9864 224.861C61.2728 224.673 61.6426 224.579 62.0958 224.579C62.502 224.579 62.8575 224.663 63.1622 224.829C63.4669 224.993 63.7038 225.243 63.8731 225.579C64.0424 225.913 64.127 226.335 64.127 226.845V230.658H63.2051V226.908C63.2051 226.436 63.0827 226.069 62.838 225.806C62.5932 225.54 62.2572 225.408 61.8301 225.408C61.5359 225.408 61.2728 225.471 61.0411 225.599C60.8119 225.727 60.6309 225.913 60.4981 226.158C60.3653 226.402 60.2989 226.699 60.2989 227.048ZM68.2491 230.783C67.7074 230.783 67.2322 230.654 66.8233 230.396C66.4171 230.138 66.0993 229.777 65.8702 229.314C65.6436 228.85 65.5303 228.309 65.5303 227.689C65.5303 227.064 65.6436 226.518 65.8702 226.052C66.0993 225.586 66.4171 225.224 66.8233 224.966C67.2322 224.708 67.7074 224.579 68.2491 224.579C68.7908 224.579 69.2647 224.708 69.671 224.966C70.0798 225.224 70.3975 225.586 70.6241 226.052C70.8533 226.518 70.9678 227.064 70.9678 227.689C70.9678 228.309 70.8533 228.85 70.6241 229.314C70.3975 229.777 70.0798 230.138 69.671 230.396C69.2647 230.654 68.7908 230.783 68.2491 230.783ZM68.2491 229.954C68.6605 229.954 68.9991 229.849 69.2647 229.638C69.5303 229.427 69.7269 229.15 69.8546 228.806C69.9822 228.462 70.046 228.09 70.046 227.689C70.046 227.288 69.9822 226.914 69.8546 226.568C69.7269 226.221 69.5303 225.941 69.2647 225.728C68.9991 225.514 68.6605 225.408 68.2491 225.408C67.8376 225.408 67.4991 225.514 67.2335 225.728C66.9678 225.941 66.7712 226.221 66.6436 226.568C66.516 226.914 66.4522 227.288 66.4522 227.689C66.4522 228.09 66.516 228.462 66.6436 228.806C66.7712 229.15 66.9678 229.427 67.2335 229.638C67.4991 229.849 67.8376 229.954 68.2491 229.954ZM72.3751 230.658V224.658H73.2657V225.595H73.3438C73.4688 225.275 73.6706 225.026 73.9493 224.849C74.2279 224.669 74.5626 224.579 74.9532 224.579C75.349 224.579 75.6784 224.669 75.9415 224.849C76.2071 225.026 76.4141 225.275 76.5626 225.595H76.6251C76.7787 225.285 77.0092 225.039 77.3165 224.857C77.6238 224.672 77.9922 224.579 78.4219 224.579C78.9584 224.579 79.3972 224.747 79.7383 225.083C80.0795 225.417 80.2501 225.936 80.2501 226.642V230.658H79.3282V226.642C79.3282 226.199 79.2071 225.883 78.9649 225.693C78.7227 225.503 78.4376 225.408 78.1094 225.408C77.6876 225.408 77.3607 225.535 77.129 225.79C76.8972 226.043 76.7813 226.363 76.7813 226.751V230.658H75.8438V226.548C75.8438 226.207 75.7331 225.932 75.5118 225.724C75.2904 225.513 75.0053 225.408 74.6563 225.408C74.4167 225.408 74.1928 225.471 73.9844 225.599C73.7787 225.727 73.612 225.904 73.4844 226.13C73.3594 226.354 73.2969 226.613 73.2969 226.908V230.658H72.3751ZM82.3145 232.908C82.1583 232.908 82.0189 232.895 81.8965 232.868C81.7741 232.845 81.6895 232.822 81.6426 232.798L81.877 231.986C82.101 232.043 82.2989 232.064 82.4708 232.048C82.6426 232.033 82.795 231.956 82.9278 231.818C83.0632 231.682 83.1869 231.462 83.2989 231.158L83.4708 230.689L81.252 224.658H82.252L83.9083 229.439H83.9708L85.627 224.658H86.627L84.0801 231.533C83.9656 231.842 83.8236 232.099 83.6544 232.302C83.4851 232.508 83.2885 232.66 83.0645 232.759C82.8432 232.858 82.5932 232.908 82.3145 232.908Z" fill="#8F8F91"/>
<path d="M1.94244 151.109V143.109H4.64557C5.27317 143.109 5.78619 143.222 6.18463 143.449C6.58567 143.673 6.88255 143.976 7.07526 144.359C7.26796 144.742 7.36432 145.169 7.36432 145.64C7.36432 146.112 7.26796 146.54 7.07526 146.925C6.88515 147.311 6.59088 147.618 6.19244 147.847C5.79401 148.074 5.28359 148.187 4.66119 148.187H2.72369V147.328H4.62994C5.05963 147.328 5.40468 147.254 5.6651 147.105C5.92552 146.957 6.11432 146.756 6.23151 146.504C6.3513 146.248 6.41119 145.961 6.41119 145.64C6.41119 145.32 6.3513 145.033 6.23151 144.781C6.11432 144.528 5.92421 144.33 5.66119 144.187C5.39817 144.041 5.04921 143.968 4.61432 143.968H2.91119V151.109H1.94244ZM8.79987 151.109V145.109H9.69049V146.015H9.75299C9.86237 145.718 10.0603 145.477 10.3467 145.293C10.6332 145.108 10.9561 145.015 11.3155 145.015C11.3832 145.015 11.4678 145.017 11.5694 145.019C11.671 145.022 11.7478 145.026 11.7999 145.031V145.968C11.7686 145.961 11.697 145.949 11.585 145.933C11.4756 145.915 11.3598 145.906 11.2374 145.906C10.9457 145.906 10.6853 145.967 10.4561 146.089C10.2296 146.209 10.0499 146.376 9.91705 146.589C9.78684 146.8 9.72174 147.041 9.72174 147.312V151.109H8.79987ZM15.1475 151.234C14.6059 151.234 14.1306 151.105 13.7217 150.847C13.3155 150.589 12.9978 150.229 12.7686 149.765C12.5421 149.302 12.4288 148.76 12.4288 148.14C12.4288 147.515 12.5421 146.97 12.7686 146.504C12.9978 146.037 13.3155 145.675 13.7217 145.418C14.1306 145.16 14.6059 145.031 15.1475 145.031C15.6892 145.031 16.1631 145.16 16.5694 145.418C16.9783 145.675 17.296 146.037 17.5225 146.504C17.7517 146.97 17.8663 147.515 17.8663 148.14C17.8663 148.76 17.7517 149.302 17.5225 149.765C17.296 150.229 16.9783 150.589 16.5694 150.847C16.1631 151.105 15.6892 151.234 15.1475 151.234ZM15.1475 150.406C15.559 150.406 15.8975 150.3 16.1631 150.089C16.4288 149.879 16.6254 149.601 16.753 149.257C16.8806 148.914 16.9444 148.541 16.9444 148.14C16.9444 147.739 16.8806 147.366 16.753 147.019C16.6254 146.673 16.4288 146.393 16.1631 146.179C15.8975 145.966 15.559 145.859 15.1475 145.859C14.7361 145.859 14.3975 145.966 14.1319 146.179C13.8663 146.393 13.6697 146.673 13.5421 147.019C13.4144 147.366 13.3506 147.739 13.3506 148.14C13.3506 148.541 13.4144 148.914 13.5421 149.257C13.6697 149.601 13.8663 149.879 14.1319 150.089C14.3975 150.3 14.7361 150.406 15.1475 150.406ZM21.9454 145.109V145.89H18.711V145.109H21.9454ZM19.6797 151.109V144.281C19.6797 143.937 19.7605 143.651 19.9219 143.422C20.0834 143.192 20.293 143.02 20.5508 142.906C20.8087 142.791 21.0808 142.734 21.3672 142.734C21.5938 142.734 21.7787 142.752 21.9219 142.789C22.0652 142.825 22.1719 142.859 22.2422 142.89L21.9766 143.687C21.9297 143.672 21.8646 143.652 21.7813 143.629C21.7006 143.605 21.5938 143.593 21.461 143.593C21.1563 143.593 20.9363 143.67 20.8008 143.824C20.668 143.977 20.6016 144.203 20.6016 144.5V151.109H19.6797ZM23.2374 151.109V145.109H24.1592V151.109H23.2374ZM23.7061 144.109C23.5264 144.109 23.3715 144.048 23.2413 143.925C23.1137 143.803 23.0499 143.656 23.0499 143.484C23.0499 143.312 23.1137 143.165 23.2413 143.043C23.3715 142.92 23.5264 142.859 23.7061 142.859C23.8858 142.859 24.0394 142.92 24.1671 143.043C24.2973 143.165 24.3624 143.312 24.3624 143.484C24.3624 143.656 24.2973 143.803 24.1671 143.925C24.0394 144.048 23.8858 144.109 23.7061 144.109ZM28.4571 145.109V145.89H25.3477V145.109H28.4571ZM26.254 143.672H27.1758V149.39C27.1758 149.651 27.2136 149.846 27.2891 149.976C27.3672 150.104 27.4662 150.19 27.586 150.234C27.7084 150.276 27.8373 150.297 27.9727 150.297C28.0743 150.297 28.1576 150.291 28.2227 150.281C28.2878 150.268 28.3399 150.257 28.379 150.25L28.5665 151.078C28.504 151.101 28.4167 151.125 28.3047 151.148C28.1928 151.174 28.0508 151.187 27.879 151.187C27.6186 151.187 27.3633 151.131 27.1133 151.019C26.8659 150.907 26.6602 150.737 26.4962 150.507C26.3347 150.278 26.254 149.989 26.254 149.64V143.672Z" fill="#8F8F91"/>
<path d="M242.344 145.109C242.297 144.713 242.107 144.406 241.773 144.187C241.44 143.968 241.031 143.859 240.547 143.859C240.193 143.859 239.883 143.916 239.617 144.031C239.354 144.145 239.148 144.303 239 144.504C238.854 144.704 238.781 144.932 238.781 145.187C238.781 145.401 238.832 145.584 238.934 145.738C239.038 145.889 239.171 146.015 239.332 146.117C239.493 146.216 239.663 146.298 239.84 146.363C240.017 146.425 240.18 146.476 240.328 146.515L241.141 146.734C241.349 146.789 241.581 146.864 241.836 146.961C242.094 147.057 242.34 147.188 242.574 147.355C242.811 147.519 243.007 147.73 243.16 147.988C243.314 148.246 243.391 148.562 243.391 148.937C243.391 149.369 243.277 149.76 243.051 150.109C242.827 150.458 242.499 150.735 242.066 150.941C241.637 151.147 241.115 151.25 240.5 151.25C239.927 151.25 239.431 151.157 239.012 150.972C238.595 150.787 238.267 150.53 238.027 150.199C237.79 149.868 237.656 149.484 237.625 149.047H238.625C238.651 149.349 238.753 149.599 238.93 149.797C239.109 149.992 239.336 150.138 239.609 150.234C239.885 150.328 240.182 150.375 240.5 150.375C240.87 150.375 241.202 150.315 241.496 150.195C241.79 150.073 242.023 149.903 242.195 149.687C242.367 149.468 242.453 149.213 242.453 148.922C242.453 148.656 242.379 148.44 242.23 148.273C242.082 148.106 241.887 147.971 241.645 147.867C241.402 147.763 241.141 147.672 240.859 147.593L239.875 147.312C239.25 147.132 238.755 146.876 238.391 146.543C238.026 146.209 237.844 145.773 237.844 145.234C237.844 144.786 237.965 144.395 238.207 144.062C238.452 143.726 238.78 143.466 239.191 143.281C239.605 143.093 240.068 143 240.578 143C241.094 143 241.552 143.092 241.953 143.277C242.354 143.459 242.672 143.709 242.906 144.027C243.143 144.345 243.268 144.705 243.281 145.109H242.344ZM245.78 147.5V151.109H244.858V143.109H245.78V146.047H245.858C245.999 145.737 246.21 145.491 246.491 145.308C246.775 145.123 247.153 145.031 247.624 145.031C248.033 145.031 248.391 145.113 248.698 145.277C249.006 145.438 249.244 145.687 249.413 146.023C249.585 146.356 249.671 146.781 249.671 147.297V151.109H248.749V147.359C248.749 146.882 248.625 146.514 248.378 146.254C248.133 145.991 247.793 145.859 247.358 145.859C247.056 145.859 246.785 145.923 246.546 146.05C246.309 146.178 246.121 146.364 245.983 146.609C245.848 146.854 245.78 147.151 245.78 147.5ZM253.123 151.25C252.743 151.25 252.398 151.178 252.088 151.035C251.778 150.889 251.532 150.679 251.35 150.406C251.167 150.13 251.076 149.797 251.076 149.406C251.076 149.062 251.144 148.783 251.279 148.57C251.415 148.354 251.596 148.185 251.822 148.062C252.049 147.94 252.299 147.849 252.572 147.789C252.848 147.726 253.126 147.677 253.404 147.64C253.769 147.593 254.064 147.558 254.291 147.535C254.52 147.509 254.687 147.466 254.791 147.406C254.898 147.346 254.951 147.242 254.951 147.093V147.062C254.951 146.677 254.846 146.377 254.635 146.164C254.426 145.95 254.11 145.843 253.686 145.843C253.245 145.843 252.9 145.94 252.65 146.132C252.4 146.325 252.225 146.531 252.123 146.75L251.248 146.437C251.404 146.073 251.613 145.789 251.873 145.586C252.136 145.38 252.423 145.237 252.732 145.156C253.045 145.073 253.352 145.031 253.654 145.031C253.847 145.031 254.068 145.054 254.318 145.101C254.571 145.145 254.814 145.238 255.049 145.379C255.286 145.519 255.482 145.731 255.639 146.015C255.795 146.299 255.873 146.679 255.873 147.156V151.109H254.951V150.297H254.904C254.842 150.427 254.738 150.566 254.592 150.714C254.446 150.863 254.252 150.989 254.01 151.093C253.768 151.198 253.472 151.25 253.123 151.25ZM253.264 150.422C253.628 150.422 253.936 150.35 254.186 150.207C254.438 150.063 254.628 149.879 254.756 149.652C254.886 149.425 254.951 149.187 254.951 148.937V148.093C254.912 148.14 254.826 148.183 254.693 148.222C254.563 148.259 254.412 148.291 254.24 148.32C254.071 148.346 253.906 148.369 253.744 148.39C253.585 148.408 253.456 148.424 253.357 148.437C253.118 148.468 252.894 148.519 252.686 148.589C252.48 148.657 252.313 148.76 252.186 148.898C252.061 149.033 251.998 149.218 251.998 149.453C251.998 149.773 252.117 150.015 252.354 150.179C252.593 150.341 252.896 150.422 253.264 150.422ZM257.556 151.109V145.109H258.446V146.015H258.509C258.618 145.718 258.816 145.477 259.103 145.293C259.389 145.108 259.712 145.015 260.071 145.015C260.139 145.015 260.224 145.017 260.325 145.019C260.427 145.022 260.504 145.026 260.556 145.031V145.968C260.524 145.961 260.453 145.949 260.341 145.933C260.231 145.915 260.116 145.906 259.993 145.906C259.701 145.906 259.441 145.967 259.212 146.089C258.985 146.209 258.806 146.376 258.673 146.589C258.543 146.8 258.478 147.041 258.478 147.312V151.109H257.556ZM261.648 153.359V145.109H262.539V146.062H262.648C262.716 145.958 262.81 145.825 262.93 145.664C263.052 145.5 263.227 145.354 263.453 145.226C263.682 145.096 263.992 145.031 264.383 145.031C264.888 145.031 265.333 145.157 265.719 145.41C266.104 145.662 266.405 146.02 266.621 146.484C266.837 146.948 266.945 147.494 266.945 148.125C266.945 148.76 266.837 149.311 266.621 149.777C266.405 150.241 266.105 150.6 265.723 150.855C265.34 151.108 264.898 151.234 264.398 151.234C264.013 151.234 263.704 151.17 263.473 151.043C263.241 150.912 263.063 150.765 262.938 150.601C262.813 150.435 262.716 150.297 262.648 150.187H262.57V153.359H261.648ZM262.555 148.109C262.555 148.562 262.621 148.962 262.754 149.308C262.887 149.652 263.081 149.922 263.336 150.117C263.591 150.31 263.904 150.406 264.273 150.406C264.659 150.406 264.98 150.304 265.238 150.101C265.499 149.895 265.694 149.619 265.824 149.273C265.957 148.924 266.023 148.536 266.023 148.109C266.023 147.687 265.958 147.307 265.828 146.968C265.701 146.627 265.507 146.358 265.246 146.16C264.988 145.959 264.664 145.859 264.273 145.859C263.898 145.859 263.583 145.954 263.328 146.144C263.073 146.332 262.88 146.595 262.75 146.933C262.62 147.269 262.555 147.661 262.555 148.109ZM270.867 151.234C270.289 151.234 269.79 151.106 269.371 150.851C268.954 150.593 268.633 150.234 268.406 149.773C268.182 149.31 268.07 148.77 268.07 148.156C268.07 147.541 268.182 147 268.406 146.531C268.633 146.06 268.948 145.692 269.352 145.429C269.758 145.164 270.232 145.031 270.773 145.031C271.086 145.031 271.395 145.083 271.699 145.187C272.004 145.291 272.281 145.461 272.531 145.695C272.781 145.927 272.98 146.234 273.129 146.617C273.277 147 273.352 147.471 273.352 148.031V148.422H268.727V147.625H272.414C272.414 147.286 272.346 146.984 272.211 146.718C272.078 146.453 271.888 146.243 271.641 146.089C271.396 145.936 271.107 145.859 270.773 145.859C270.406 145.859 270.089 145.95 269.82 146.132C269.555 146.312 269.35 146.547 269.207 146.836C269.064 147.125 268.992 147.435 268.992 147.765V148.297C268.992 148.75 269.07 149.134 269.227 149.449C269.385 149.761 269.605 150 269.887 150.164C270.168 150.325 270.495 150.406 270.867 150.406C271.109 150.406 271.328 150.372 271.523 150.304C271.721 150.234 271.892 150.13 272.035 149.992C272.178 149.851 272.289 149.677 272.367 149.468L273.258 149.718C273.164 150.02 273.007 150.286 272.785 150.515C272.564 150.742 272.29 150.919 271.965 151.047C271.639 151.172 271.273 151.234 270.867 151.234Z" fill="#8F8F91"/>
<path d="M32.5372 50.263C32.4903 49.8672 32.3002 49.5599 31.9669 49.3412C31.6335 49.1224 31.2247 49.013 30.7403 49.013C30.3861 49.013 30.0762 49.0703 29.8106 49.1849C29.5476 49.2995 29.3419 49.4571 29.1934 49.6576C29.0476 49.8581 28.9747 50.086 28.9747 50.3412C28.9747 50.5547 29.0255 50.7383 29.127 50.892C29.2312 51.043 29.364 51.1693 29.5255 51.2709C29.6869 51.3698 29.8562 51.4518 30.0333 51.517C30.2103 51.5795 30.3731 51.6302 30.5215 51.6693L31.334 51.888C31.5424 51.9427 31.7741 52.0183 32.0294 52.1146C32.2872 52.211 32.5333 52.3425 32.7676 52.5091C33.0046 52.6732 33.1999 52.8841 33.3536 53.142C33.5072 53.3998 33.584 53.7162 33.584 54.0912C33.584 54.5235 33.4708 54.9141 33.2442 55.263C33.0202 55.612 32.6921 55.8893 32.2598 56.0951C31.8301 56.3008 31.308 56.4037 30.6934 56.4037C30.1205 56.4037 29.6244 56.3112 29.2051 56.1263C28.7885 55.9414 28.4603 55.6836 28.2208 55.3529C27.9838 55.0222 27.8497 54.638 27.8184 54.2005H28.8184C28.8445 54.5026 28.946 54.7526 29.1231 54.9505C29.3028 55.1459 29.5294 55.2917 29.8028 55.388C30.0788 55.4818 30.3757 55.5287 30.6934 55.5287C31.0632 55.5287 31.3952 55.4688 31.6895 55.349C31.9838 55.2266 32.2169 55.0573 32.3887 54.8412C32.5606 54.6224 32.6465 54.3672 32.6465 54.0755C32.6465 53.8099 32.5723 53.5938 32.4239 53.4271C32.2755 53.2604 32.0801 53.125 31.838 53.0209C31.5958 52.9167 31.334 52.8255 31.0528 52.7474L30.0684 52.4662C29.4434 52.2865 28.9486 52.03 28.584 51.6966C28.2195 51.3633 28.0372 50.9271 28.0372 50.388C28.0372 49.9401 28.1583 49.5495 28.4005 49.2162C28.6452 48.8802 28.9734 48.6198 29.3848 48.4349C29.7989 48.2474 30.2611 48.1537 30.7715 48.1537C31.2872 48.1537 31.7455 48.2461 32.1465 48.431C32.5476 48.6133 32.8653 48.8633 33.0997 49.181C33.3366 49.4987 33.4616 49.8594 33.4747 50.263H32.5372ZM35.0518 56.263V50.263H35.9737V56.263H35.0518ZM35.5206 49.263C35.3409 49.263 35.1859 49.2018 35.0557 49.0795C34.9281 48.9571 34.8643 48.8099 34.8643 48.638C34.8643 48.4662 34.9281 48.319 35.0557 48.1966C35.1859 48.0742 35.3409 48.013 35.5206 48.013C35.7003 48.013 35.8539 48.0742 35.9815 48.1966C36.1117 48.319 36.1768 48.4662 36.1768 48.638C36.1768 48.8099 36.1117 48.9571 35.9815 49.0795C35.8539 49.2018 35.7003 49.263 35.5206 49.263ZM37.4903 56.263V55.5599L40.8965 51.1849V51.1224H37.5997V50.263H42.084V50.9974L38.7715 55.3412V55.4037H42.1934V56.263H37.4903ZM45.9571 56.388C45.379 56.388 44.8803 56.2604 44.461 56.0052C44.0443 55.7474 43.7227 55.388 43.4962 54.9271C43.2722 54.4636 43.1602 53.9245 43.1602 53.3099C43.1602 52.6953 43.2722 52.1537 43.4962 51.6849C43.7227 51.2136 44.0378 50.8464 44.4415 50.5834C44.8477 50.3177 45.3217 50.1849 45.8633 50.1849C46.1758 50.1849 46.4844 50.237 46.7891 50.3412C47.0938 50.4453 47.3712 50.6146 47.6212 50.849C47.8712 51.0808 48.0704 51.388 48.2188 51.7709C48.3672 52.1537 48.4415 52.625 48.4415 53.1849V53.5755H43.8165V52.7787H47.504C47.504 52.4401 47.4363 52.138 47.3008 51.8724C47.168 51.6068 46.9779 51.3972 46.7305 51.2435C46.4857 51.0899 46.1967 51.013 45.8633 51.013C45.4962 51.013 45.1784 51.1042 44.9102 51.2865C44.6446 51.4662 44.4402 51.7005 44.2969 51.9896C44.1537 52.2787 44.0821 52.5886 44.0821 52.9193V53.4505C44.0821 53.9037 44.1602 54.2878 44.3165 54.6029C44.4753 54.9154 44.6954 55.1537 44.9766 55.3177C45.2579 55.4792 45.5847 55.5599 45.9571 55.5599C46.1993 55.5599 46.418 55.5261 46.6133 55.4584C46.8113 55.388 46.9818 55.2839 47.1251 55.1459C47.2683 55.0052 47.379 54.8308 47.4571 54.6224L48.3477 54.8724C48.254 55.1745 48.0964 55.4401 47.8751 55.6693C47.6537 55.8959 47.3803 56.0729 47.0547 56.2005C46.7292 56.3255 46.3633 56.388 45.9571 56.388Z" fill="#8F8F91"/>
<path d="M119.935 6.90956C119.849 6.64654 119.735 6.41086 119.595 6.20253C119.457 5.99159 119.291 5.8119 119.099 5.66347C118.909 5.51503 118.692 5.40175 118.45 5.32362C118.208 5.2455 117.942 5.20644 117.653 5.20644C117.179 5.20644 116.748 5.32883 116.36 5.57362C115.972 5.81842 115.664 6.17909 115.435 6.65566C115.205 7.13222 115.091 7.71685 115.091 8.40956C115.091 9.10227 115.207 9.6869 115.438 10.1635C115.67 10.64 115.984 11.0007 116.38 11.2455C116.776 11.4903 117.221 11.6127 117.716 11.6127C118.174 11.6127 118.578 11.515 118.927 11.3197C119.278 11.1218 119.552 10.8432 119.747 10.4838C119.945 10.1218 120.044 9.69602 120.044 9.20644L120.341 9.26894H117.935V8.40956H120.981V9.26894C120.981 9.92779 120.841 10.5007 120.56 10.9877C120.281 11.4747 119.896 11.8523 119.403 12.1205C118.914 12.3861 118.351 12.5189 117.716 12.5189C117.007 12.5189 116.385 12.3523 115.849 12.0189C115.315 11.6856 114.898 11.2116 114.599 10.5971C114.302 9.98248 114.153 9.25331 114.153 8.40956C114.153 7.77675 114.238 7.20774 114.407 6.70253C114.579 6.19472 114.821 5.76243 115.134 5.40565C115.446 5.04888 115.816 4.77545 116.243 4.58534C116.67 4.39524 117.14 4.30019 117.653 4.30019C118.075 4.30019 118.468 4.36399 118.833 4.49159C119.2 4.61659 119.527 4.79498 119.813 5.02675C120.103 5.25591 120.343 5.53065 120.536 5.85097C120.729 6.16868 120.862 6.52154 120.935 6.90956H119.935ZM122.516 12.4096V6.40956H123.406V7.31581H123.469C123.578 7.01894 123.776 6.77805 124.063 6.59315C124.349 6.40826 124.672 6.31581 125.031 6.31581C125.099 6.31581 125.184 6.31711 125.285 6.31972C125.387 6.32232 125.464 6.32623 125.516 6.33144V7.26894C125.484 7.26112 125.413 7.2494 125.301 7.23378C125.191 7.21555 125.076 7.20644 124.953 7.20644C124.661 7.20644 124.401 7.26763 124.172 7.39003C123.945 7.50982 123.766 7.67649 123.633 7.89003C123.503 8.10097 123.438 8.34185 123.438 8.61269V12.4096H122.516ZM128.863 12.5346C128.322 12.5346 127.846 12.4057 127.438 12.1478C127.031 11.89 126.714 11.5294 126.484 11.0658C126.258 10.6023 126.145 10.0606 126.145 9.44081C126.145 8.81581 126.258 8.27024 126.484 7.80409C126.714 7.33795 127.031 6.97597 127.438 6.71815C127.846 6.46034 128.322 6.33144 128.863 6.33144C129.405 6.33144 129.879 6.46034 130.285 6.71815C130.694 6.97597 131.012 7.33795 131.238 7.80409C131.467 8.27024 131.582 8.81581 131.582 9.44081C131.582 10.0606 131.467 10.6023 131.238 11.0658C131.012 11.5294 130.694 11.89 130.285 12.1478C129.879 12.4057 129.405 12.5346 128.863 12.5346ZM128.863 11.7064C129.275 11.7064 129.613 11.601 129.879 11.39C130.145 11.1791 130.341 10.9017 130.469 10.558C130.596 10.2142 130.66 9.84185 130.66 9.44081C130.66 9.03977 130.596 8.66607 130.469 8.31972C130.341 7.97336 130.145 7.69342 129.879 7.47987C129.613 7.26633 129.275 7.15956 128.863 7.15956C128.452 7.15956 128.113 7.26633 127.848 7.47987C127.582 7.69342 127.385 7.97336 127.258 8.31972C127.13 8.66607 127.066 9.03977 127.066 9.44081C127.066 9.84185 127.13 10.2142 127.258 10.558C127.385 10.9017 127.582 11.1791 127.848 11.39C128.113 11.601 128.452 11.7064 128.863 11.7064ZM134.145 12.4096L132.316 6.40956H133.285L134.582 11.0033H134.645L135.926 6.40956H136.91L138.176 10.9877H138.238L139.535 6.40956H140.504L138.676 12.4096H137.77L136.457 7.80019H136.363L135.051 12.4096H134.145ZM144.332 6.40956V7.19081H141.223V6.40956H144.332ZM142.129 4.97206H143.051V10.6908C143.051 10.9512 143.089 11.1465 143.164 11.2767C143.242 11.4044 143.341 11.4903 143.461 11.5346C143.583 11.5762 143.712 11.5971 143.848 11.5971C143.949 11.5971 144.033 11.5919 144.098 11.5814C144.163 11.5684 144.215 11.558 144.254 11.5502L144.441 12.3783C144.379 12.4017 144.292 12.4252 144.18 12.4486C144.068 12.4747 143.926 12.4877 143.754 12.4877C143.493 12.4877 143.238 12.4317 142.988 12.3197C142.741 12.2077 142.535 12.0372 142.371 11.808C142.21 11.5788 142.129 11.2898 142.129 10.9408V4.97206ZM146.77 8.80019V12.4096H145.848V4.40956H146.77V7.34706H146.848C146.988 7.03717 147.199 6.79107 147.48 6.60878C147.764 6.42388 148.142 6.33144 148.613 6.33144C149.022 6.33144 149.38 6.41347 149.688 6.57753C149.995 6.73899 150.233 6.98769 150.402 7.32362C150.574 7.65696 150.66 8.08144 150.66 8.59706V12.4096H149.738V8.65956C149.738 8.183 149.615 7.81451 149.367 7.55409C149.122 7.29107 148.783 7.15956 148.348 7.15956C148.046 7.15956 147.775 7.22336 147.535 7.35097C147.298 7.47857 147.111 7.66477 146.973 7.90956C146.837 8.15435 146.77 8.45123 146.77 8.80019Z" fill="#8F8F91"/>
<path d="M217.969 48.263H219.125L221.844 54.9037H221.938L224.656 48.263H225.813V56.263H224.906V50.1849H224.828L222.328 56.263H221.453L218.953 50.1849H218.875V56.263H217.969V48.263ZM229.396 56.4037C229.015 56.4037 228.67 56.3321 228.36 56.1888C228.05 56.043 227.804 55.8334 227.622 55.5599C227.44 55.2839 227.349 54.9505 227.349 54.5599C227.349 54.2162 227.416 53.9375 227.552 53.724C227.687 53.5078 227.868 53.3386 228.095 53.2162C228.321 53.0938 228.571 53.0026 228.845 52.9427C229.121 52.8802 229.398 52.8308 229.677 52.7943C230.041 52.7474 230.337 52.7123 230.563 52.6888C230.793 52.6628 230.959 52.6198 231.063 52.5599C231.17 52.5 231.224 52.3959 231.224 52.2474V52.2162C231.224 51.8308 231.118 51.5313 230.907 51.3177C230.699 51.1042 230.382 50.9974 229.958 50.9974C229.518 50.9974 229.173 51.0938 228.923 51.2865C228.673 51.4792 228.497 51.6849 228.396 51.9037L227.521 51.5912C227.677 51.2266 227.885 50.9427 228.146 50.7396C228.409 50.5339 228.695 50.3907 229.005 50.3099C229.317 50.2266 229.625 50.1849 229.927 50.1849C230.119 50.1849 230.341 50.2084 230.591 50.2552C230.843 50.2995 231.087 50.392 231.321 50.5326C231.558 50.6732 231.755 50.8854 231.911 51.1693C232.067 51.4532 232.146 51.8334 232.146 52.3099V56.263H231.224V55.4505H231.177C231.114 55.5808 231.01 55.7201 230.864 55.8685C230.718 56.017 230.524 56.1433 230.282 56.2474C230.04 56.3516 229.744 56.4037 229.396 56.4037ZM229.536 55.5755C229.901 55.5755 230.208 55.5039 230.458 55.3607C230.711 55.2175 230.901 55.0326 231.028 54.806C231.159 54.5795 231.224 54.3412 231.224 54.0912V53.2474C231.185 53.2943 231.099 53.3373 230.966 53.3763C230.836 53.4128 230.685 53.4453 230.513 53.474C230.343 53.5 230.178 53.5235 230.017 53.5443C229.858 53.5625 229.729 53.5782 229.63 53.5912C229.39 53.6224 229.166 53.6732 228.958 53.7435C228.752 53.8112 228.586 53.9141 228.458 54.0521C228.333 54.1875 228.271 54.3724 228.271 54.6068C228.271 54.9271 228.389 55.1693 228.626 55.3334C228.866 55.4948 229.169 55.5755 229.536 55.5755ZM233.828 56.263V50.263H234.719V51.1693H234.781C234.891 50.8724 235.089 50.6315 235.375 50.4466C235.661 50.2617 235.984 50.1693 236.344 50.1693C236.411 50.1693 236.496 50.1706 236.598 50.1732C236.699 50.1758 236.776 50.1797 236.828 50.1849V51.1224C236.797 51.1146 236.725 51.1029 236.613 51.0873C236.504 51.069 236.388 51.0599 236.266 51.0599C235.974 51.0599 235.714 51.1211 235.484 51.2435C235.258 51.3633 235.078 51.53 234.945 51.7435C234.815 51.9545 234.75 52.1953 234.75 52.4662V56.263H233.828ZM240.16 58.638C239.715 58.638 239.332 58.5808 239.012 58.4662C238.691 58.3542 238.424 58.2058 238.211 58.0209C238 57.8386 237.832 57.6433 237.707 57.4349L238.441 56.9193C238.525 57.0287 238.63 57.1537 238.758 57.2943C238.885 57.4375 239.06 57.5612 239.281 57.6654C239.505 57.7722 239.798 57.8255 240.16 57.8255C240.645 57.8255 241.044 57.7084 241.359 57.474C241.674 57.2396 241.832 56.8724 241.832 56.3724V55.1537H241.754C241.686 55.263 241.59 55.3985 241.465 55.5599C241.342 55.7188 241.165 55.8607 240.934 55.9857C240.704 56.1081 240.395 56.1693 240.004 56.1693C239.52 56.1693 239.085 56.0547 238.699 55.8255C238.316 55.5964 238.013 55.263 237.789 54.8255C237.568 54.388 237.457 53.8568 237.457 53.2318C237.457 52.6172 237.565 52.0821 237.781 51.6263C237.997 51.168 238.298 50.8138 238.684 50.5638C239.069 50.3112 239.514 50.1849 240.02 50.1849C240.41 50.1849 240.72 50.25 240.949 50.3802C241.181 50.5078 241.358 50.6537 241.48 50.8177C241.605 50.9792 241.702 51.112 241.77 51.2162H241.863V50.263H242.754V56.4349C242.754 56.9505 242.637 57.3698 242.402 57.6927C242.171 58.0183 241.858 58.2565 241.465 58.4076C241.074 58.5612 240.639 58.638 240.16 58.638ZM240.129 55.3412C240.499 55.3412 240.811 55.2565 241.066 55.0873C241.322 54.918 241.516 54.6745 241.648 54.3568C241.781 54.0391 241.848 53.6589 241.848 53.2162C241.848 52.7839 241.783 52.4024 241.652 52.0716C241.522 51.7409 241.329 51.4818 241.074 51.2943C240.819 51.1068 240.504 51.013 240.129 51.013C239.738 51.013 239.413 51.112 239.152 51.3099C238.895 51.5078 238.701 51.7735 238.57 52.1068C238.443 52.4401 238.379 52.8099 238.379 53.2162C238.379 53.6328 238.444 54.0013 238.574 54.3216C238.707 54.6393 238.902 54.8893 239.16 55.0716C239.421 55.2513 239.743 55.3412 240.129 55.3412ZM244.441 56.263V50.263H245.363V56.263H244.441ZM244.91 49.263C244.73 49.263 244.576 49.2018 244.445 49.0795C244.318 48.9571 244.254 48.8099 244.254 48.638C244.254 48.4662 244.318 48.319 244.445 48.1966C244.576 48.0742 244.73 48.013 244.91 48.013C245.09 48.013 245.243 48.0742 245.371 48.1966C245.501 48.319 245.566 48.4662 245.566 48.638C245.566 48.8099 245.501 48.9571 245.371 49.0795C245.243 49.2018 245.09 49.263 244.91 49.263ZM247.974 52.6537V56.263H247.052V50.263H247.942V51.2005H248.021C248.161 50.8959 248.375 50.6511 248.661 50.4662C248.948 50.2787 249.317 50.1849 249.771 50.1849C250.177 50.1849 250.532 50.2683 250.837 50.4349C251.142 50.599 251.379 50.849 251.548 51.1849C251.717 51.5183 251.802 51.9401 251.802 52.4505V56.263H250.88V52.513C250.88 52.0417 250.757 51.6745 250.513 51.4115C250.268 51.1459 249.932 51.013 249.505 51.013C249.211 51.013 248.948 51.0768 248.716 51.2045C248.487 51.3321 248.306 51.5183 248.173 51.763C248.04 52.0078 247.974 52.3047 247.974 52.6537ZM257.736 51.6068L256.908 51.8412C256.856 51.7032 256.779 51.569 256.678 51.4388C256.579 51.306 256.443 51.1966 256.271 51.1107C256.1 51.0248 255.88 50.9818 255.611 50.9818C255.244 50.9818 254.938 51.0664 254.693 51.2357C254.451 51.4024 254.33 51.6146 254.33 51.8724C254.33 52.1016 254.413 52.2826 254.58 52.4154C254.747 52.5482 255.007 52.6589 255.361 52.7474L256.252 52.9662C256.788 53.0964 257.188 53.2956 257.451 53.5638C257.714 53.8295 257.846 54.1719 257.846 54.5912C257.846 54.9349 257.747 55.2422 257.549 55.513C257.354 55.7839 257.08 55.9974 256.729 56.1537C256.377 56.3099 255.968 56.388 255.502 56.388C254.89 56.388 254.383 56.2552 253.982 55.9896C253.581 55.724 253.327 55.336 253.221 54.8255L254.096 54.6068C254.179 54.9297 254.337 55.1719 254.568 55.3334C254.803 55.4948 255.109 55.5755 255.486 55.5755C255.916 55.5755 256.257 55.4844 256.51 55.3021C256.765 55.1172 256.893 54.8959 256.893 54.638C256.893 54.4297 256.82 54.2552 256.674 54.1146C256.528 53.9714 256.304 53.8646 256.002 53.7943L255.002 53.5599C254.452 53.4297 254.049 53.2279 253.791 52.9545C253.536 52.6784 253.408 52.3334 253.408 51.9193C253.408 51.5808 253.503 51.2813 253.693 51.0209C253.886 50.7604 254.148 50.556 254.479 50.4076C254.812 50.2591 255.189 50.1849 255.611 50.1849C256.205 50.1849 256.671 50.3151 257.01 50.5755C257.351 50.836 257.593 51.1797 257.736 51.6068Z" fill="#8F8F91"/>
<path opacity="0.3" d="M92.5 131.97L90.5 89.1363L132.5 81.9974H183.5L207 141.149L166.5 194.181L104.5 184.492L92.5 131.97Z" fill="#A0A0A1" stroke="#A0A0A1"/>
<ellipse cx="92.5" cy="133.5" rx="2.5" ry="2.54963" fill="#8F8F91"/>
<ellipse cx="104.5" cy="184.493" rx="2.5" ry="2.54963" fill="#8F8F91"/>
<ellipse cx="166.5" cy="193.671" rx="2.5" ry="2.54963" fill="#A0A0A1"/>
<ellipse cx="206.5" cy="140.639" rx="2.5" ry="2.54963" fill="#8F8F91"/>
<ellipse cx="183.5" cy="82.5072" rx="2.5" ry="2.54963" fill="#8F8F91"/>
<ellipse cx="132.5" cy="81.4876" rx="2.5" ry="2.54963" fill="#8F8F91"/>
<ellipse cx="90.5" cy="89.6466" rx="2.5" ry="2.54963" fill="#8F8F91"/>
<path opacity="0.3" d="M66.5041 117.633L64.0579 65.2414L115.43 56.5094H177.81L206.554 128.86L157.017 193.726L81.1818 181.875L66.5041 117.633Z" fill="#58585A" stroke="#58585A"/>
<ellipse cx="66.5041" cy="119.505" rx="3.05785" ry="3.11856" fill="#58585A"/>
<ellipse cx="81.1819" cy="181.875" rx="3.05785" ry="3.11856" fill="#58585A"/>
<ellipse cx="157.017" cy="193.102" rx="3.05785" ry="3.11856" fill="#58585A"/>
<ellipse cx="205.942" cy="128.237" rx="3.05785" ry="3.11856" fill="#58585A"/>
<ellipse cx="177.81" cy="57.1335" rx="3.05785" ry="3.11856" fill="#58585A"/>
<ellipse cx="115.43" cy="55.886" rx="3.05785" ry="3.11856" fill="#8F8F91"/>
<ellipse cx="64.0579" cy="65.8653" rx="3.05785" ry="3.11856" fill="#58585A"/>
<path d="M81.5 136.05L83 84.0372L132.5 33.0446L175 89.1364L207 141.149L157 173.784L100 194.691L81.5 136.05Z" fill="#209464" fill-opacity="0.3" stroke="#209464"/>
<path d="M80.5 133.49C81.5953 133.49 82.5 134.399 82.5 135.54C82.4999 136.681 81.5953 137.59 80.5 137.59C79.4047 137.59 78.5001 136.681 78.5 135.54C78.5 134.399 79.4047 133.49 80.5 133.49Z" fill="#209464" stroke="#209464"/>
<path d="M99.5 191.622C100.595 191.622 101.5 192.53 101.5 193.671C101.5 194.813 100.595 195.721 99.5 195.721C98.4047 195.721 97.5001 194.813 97.5 193.671C97.5 192.53 98.4047 191.622 99.5 191.622Z" fill="#209464" stroke="#209464"/>
<path d="M156.5 171.224C157.595 171.224 158.5 172.133 158.5 173.274C158.5 174.415 157.595 175.324 156.5 175.324C155.405 175.324 154.5 174.415 154.5 173.274C154.5 172.133 155.405 171.224 156.5 171.224Z" fill="#209464" stroke="#209464"/>
<path d="M206.5 138.589C207.595 138.589 208.5 139.498 208.5 140.639C208.5 141.78 207.595 142.689 206.5 142.689C205.405 142.689 204.5 141.78 204.5 140.639C204.5 139.498 205.405 138.589 206.5 138.589Z" fill="#209464" stroke="#209464"/>
<path d="M174.5 86.5768C175.595 86.5768 176.5 87.4853 176.5 88.6266C176.5 89.7678 175.595 90.6764 174.5 90.6764C173.405 90.6764 172.5 89.7678 172.5 88.6266C172.5 87.4853 173.405 86.5768 174.5 86.5768Z" fill="#209464" stroke="#209464"/>
<path d="M82.5 81.4777C83.5953 81.4777 84.5 82.3862 84.5 83.5275C84.4999 84.6687 83.5953 85.5773 82.5 85.5773C81.4047 85.5773 80.5001 84.6687 80.5 83.5275C80.5 82.3862 81.4047 81.4777 82.5 81.4777Z" fill="#209464" stroke="#209464"/>
<circle cx="131" cy="30.8856" r="6" transform="rotate(-90 131 30.8856)" fill="#E2F0EB"/>
<circle cx="131" cy="30.8856" r="3" transform="rotate(-90 131 30.8856)" fill="#209464"/>
</svg>
