<svg width="284" height="15" viewBox="0 0 284 15" fill="none" xmlns="http://www.w3.org/2000/svg">
<rect x="-6.10352e-05" y="3.27307" width="8" height="8" rx="2" fill="#209464"/>
<path d="M18.8394 6.3654H17.7315C17.6889 6.12866 17.6096 5.92032 17.4935 5.7404C17.3775 5.56048 17.2355 5.40778 17.0674 5.2823C16.8993 5.15683 16.7111 5.06213 16.5028 4.99821C16.2968 4.93429 16.0778 4.90233 15.8458 4.90233C15.4268 4.90233 15.0515 5.00768 14.7201 5.21838C14.391 5.42908 14.1306 5.73803 13.9389 6.14523C13.7495 6.55243 13.6548 7.04959 13.6548 7.63671C13.6548 8.22856 13.7495 8.72809 13.9389 9.13529C14.1306 9.54248 14.3922 9.85025 14.7237 10.0586C15.0551 10.2669 15.428 10.3711 15.8423 10.3711C16.0719 10.3711 16.2897 10.3403 16.4957 10.2788C16.704 10.2148 16.8922 10.1213 17.0603 9.99821C17.2284 9.87511 17.3704 9.72478 17.4864 9.54722C17.6048 9.36729 17.6865 9.16133 17.7315 8.92932L18.8394 8.93287C18.7802 9.29035 18.6654 9.61943 18.495 9.92009C18.3269 10.2184 18.1103 10.4764 17.8451 10.6942C17.5823 10.9097 17.2817 11.0766 16.9431 11.1949C16.6046 11.3133 16.2353 11.3725 15.8352 11.3725C15.2054 11.3725 14.6444 11.2234 14.1519 10.9251C13.6595 10.6244 13.2712 10.1947 12.9872 9.636C12.7054 9.07729 12.5646 8.41086 12.5646 7.63671C12.5646 6.86019 12.7066 6.19376 12.9907 5.63742C13.2748 5.07871 13.6631 4.6502 14.1555 4.35191C14.6479 4.05124 15.2078 3.90091 15.8352 3.90091C16.2211 3.90091 16.5809 3.95655 16.9147 4.06782C17.2509 4.17672 17.5527 4.3377 17.8203 4.55077C18.0878 4.76147 18.3091 5.01952 18.4843 5.32492C18.6595 5.62795 18.7779 5.97478 18.8394 6.3654ZM22.3648 11.3832C21.8535 11.3832 21.4072 11.266 21.026 11.0316C20.6449 10.7972 20.349 10.4693 20.1383 10.0479C19.9276 9.62653 19.8222 9.1341 19.8222 8.57066C19.8222 8.00484 19.9276 7.51005 20.1383 7.08628C20.349 6.66251 20.6449 6.33344 21.026 6.09907C21.4072 5.86469 21.8535 5.7475 22.3648 5.7475C22.8762 5.7475 23.3224 5.86469 23.7036 6.09907C24.0848 6.33344 24.3807 6.66251 24.5914 7.08628C24.8021 7.51005 24.9074 8.00484 24.9074 8.57066C24.9074 9.1341 24.8021 9.62653 24.5914 10.0479C24.3807 10.4693 24.0848 10.7972 23.7036 11.0316C23.3224 11.266 22.8762 11.3832 22.3648 11.3832ZM22.3684 10.4918C22.6998 10.4918 22.9744 10.4042 23.1922 10.229C23.41 10.0538 23.571 9.82066 23.6752 9.52946C23.7817 9.23827 23.835 8.91748 23.835 8.56711C23.835 8.21909 23.7817 7.89949 23.6752 7.6083C23.571 7.31474 23.41 7.07918 23.1922 6.90162C22.9744 6.72407 22.6998 6.63529 22.3684 6.63529C22.0346 6.63529 21.7576 6.72407 21.5374 6.90162C21.3196 7.07918 21.1574 7.31474 21.0509 7.6083C20.9467 7.89949 20.8946 8.21909 20.8946 8.56711C20.8946 8.91748 20.9467 9.23827 21.0509 9.52946C21.1574 9.82066 21.3196 10.0538 21.5374 10.229C21.7576 10.4042 22.0346 10.4918 22.3684 10.4918ZM26.0926 11.2731V5.81853H27.1118V6.70631H27.1793C27.2929 6.40565 27.4788 6.17127 27.7368 6.00319C27.9948 5.83273 28.3038 5.7475 28.6636 5.7475C29.0282 5.7475 29.3336 5.83273 29.5798 6.00319C29.8284 6.17364 30.0119 6.40801 30.1303 6.70631H30.1871C30.3173 6.41512 30.5244 6.18311 30.8085 6.01029C31.0926 5.8351 31.4312 5.7475 31.8242 5.7475C32.3189 5.7475 32.7226 5.90257 33.0351 6.2127C33.35 6.52283 33.5074 6.9904 33.5074 7.6154V11.2731H32.4456V7.71483C32.4456 7.34551 32.345 7.078 32.1438 6.91228C31.9425 6.74656 31.7022 6.6637 31.4229 6.6637C31.0772 6.6637 30.8085 6.77023 30.6168 6.9833C30.425 7.194 30.3291 7.46507 30.3291 7.79651V11.2731H29.2709V7.64736C29.2709 7.35143 29.1786 7.11351 28.9939 6.93358C28.8092 6.75366 28.5689 6.6637 28.273 6.6637C28.0718 6.6637 27.8859 6.71696 27.7155 6.8235C27.5474 6.92766 27.4113 7.07326 27.3071 7.26029C27.2053 7.44731 27.1544 7.66393 27.1544 7.91015V11.2731H26.0926ZM34.9305 13.3185V5.81853H35.9674V6.70276H36.0562C36.1178 6.58912 36.2066 6.45773 36.3226 6.30858C36.4386 6.15943 36.5995 6.02923 36.8055 5.91796C37.0115 5.80432 37.2837 5.7475 37.6223 5.7475C38.0626 5.7475 38.4556 5.85877 38.8013 6.08131C39.1469 6.30385 39.418 6.62463 39.6145 7.04367C39.8133 7.4627 39.9128 7.96696 39.9128 8.55645C39.9128 9.14594 39.8145 9.65139 39.618 10.0728C39.4215 10.4918 39.1516 10.815 38.8084 11.0422C38.4651 11.2672 38.0733 11.3796 37.6329 11.3796C37.3015 11.3796 37.0304 11.324 36.8197 11.2127C36.6114 11.1014 36.448 10.9712 36.3297 10.8221C36.2113 10.6729 36.1201 10.5404 36.0562 10.4243H35.9923V13.3185H34.9305ZM35.971 8.5458C35.971 8.92932 36.0266 9.2655 36.1379 9.55432C36.2492 9.84315 36.4102 10.0692 36.6209 10.2326C36.8316 10.3936 37.0896 10.4741 37.395 10.4741C37.7122 10.4741 37.9774 10.39 38.1905 10.2219C38.4035 10.0515 38.5645 9.82066 38.6734 9.52946C38.7847 9.23827 38.8403 8.91038 38.8403 8.5458C38.8403 8.18595 38.7859 7.8628 38.677 7.57634C38.5704 7.28988 38.4094 7.06379 38.194 6.89807C37.9809 6.73235 37.7146 6.64949 37.395 6.64949C37.0872 6.64949 36.8268 6.7288 36.6138 6.88742C36.4031 7.04604 36.2433 7.26739 36.1343 7.55148C36.0254 7.83557 35.971 8.16701 35.971 8.5458ZM42.6897 11.3938C42.3441 11.3938 42.0316 11.3299 41.7522 11.202C41.4729 11.0718 41.2515 10.8836 41.0882 10.6374C40.9272 10.3912 40.8467 10.0894 40.8467 9.73188C40.8467 9.42411 40.9059 9.1708 41.0243 8.97193C41.1426 8.77307 41.3024 8.61564 41.5037 8.49963C41.7049 8.38363 41.9298 8.29604 42.1784 8.23685C42.427 8.17766 42.6803 8.13268 42.9383 8.10191C43.265 8.06403 43.5302 8.03325 43.7338 8.00958C43.9374 7.98354 44.0853 7.94211 44.1777 7.88529C44.27 7.82847 44.3162 7.73614 44.3162 7.6083V7.58344C44.3162 7.27331 44.2286 7.03301 44.0534 6.86256C43.8806 6.69211 43.6225 6.60688 43.2792 6.60688C42.9218 6.60688 42.64 6.68619 42.4341 6.8448C42.2305 7.00105 42.0896 7.17506 42.0115 7.36682L41.0136 7.13955C41.132 6.80811 41.3048 6.54059 41.5321 6.33699C41.7617 6.13103 42.0257 5.98188 42.324 5.88955C42.6223 5.79485 42.936 5.7475 43.265 5.7475C43.4828 5.7475 43.7137 5.77354 43.9575 5.82563C44.2037 5.87534 44.4334 5.96767 44.6464 6.10262C44.8619 6.23756 45.0382 6.4305 45.1755 6.68145C45.3129 6.93003 45.3815 7.25318 45.3815 7.65091V11.2731H44.3446V10.5273H44.302C44.2333 10.6646 44.1303 10.7996 43.993 10.9322C43.8557 11.0647 43.6793 11.1748 43.4639 11.2624C43.2485 11.35 42.9904 11.3938 42.6897 11.3938ZM42.9206 10.5415C43.2141 10.5415 43.4651 10.4835 43.6734 10.3675C43.8841 10.2515 44.0439 10.1 44.1528 9.91299C44.2641 9.72359 44.3197 9.52118 44.3197 9.30574V8.60262C44.2818 8.6405 44.2084 8.67601 44.0995 8.70915C43.993 8.73993 43.8711 8.76715 43.7338 8.79083C43.5965 8.81213 43.4627 8.83226 43.3325 8.8512C43.2023 8.86777 43.0934 8.88197 43.0058 8.89381C42.7998 8.91985 42.6116 8.96365 42.4412 9.0252C42.2731 9.08675 42.1381 9.17553 42.0363 9.29154C41.9369 9.40517 41.8872 9.55669 41.8872 9.74608C41.8872 10.0089 41.9843 10.2077 42.1784 10.3427C42.3725 10.4752 42.6199 10.5415 42.9206 10.5415ZM47.8575 8.03443V11.2731H46.7957V5.81853H47.8149V6.70631H47.8824C48.0079 6.41748 48.2044 6.18548 48.4719 6.01029C48.7418 5.8351 49.0815 5.7475 49.4911 5.7475C49.8627 5.7475 50.1883 5.82563 50.4676 5.98188C50.747 6.13576 50.9636 6.3654 51.1175 6.6708C51.2714 6.9762 51.3483 7.3538 51.3483 7.80361V11.2731H50.2865V7.93145C50.2865 7.53609 50.1835 7.22714 49.9776 7.00461C49.7716 6.7797 49.4887 6.66725 49.1288 6.66725C48.8826 6.66725 48.6636 6.72051 48.4719 6.82705C48.2825 6.93358 48.1322 7.08983 48.0209 7.2958C47.912 7.4994 47.8575 7.74561 47.8575 8.03443ZM53.2482 13.3185C53.0895 13.3185 52.9451 13.3055 52.8149 13.2795C52.6847 13.2558 52.5877 13.2297 52.5237 13.2013L52.7794 12.3313C52.9735 12.3834 53.1464 12.4059 53.2979 12.3988C53.4494 12.3917 53.5832 12.3349 53.6992 12.2283C53.8175 12.1218 53.9217 11.9478 54.0117 11.7063L54.143 11.3441L52.1473 5.81853H53.2837L54.6651 10.0515H54.7219L56.1033 5.81853H57.2432L54.9953 12.0011C54.8912 12.2851 54.7586 12.5254 54.5976 12.7219C54.4366 12.9208 54.2448 13.0699 54.0223 13.1694C53.7998 13.2688 53.5417 13.3185 53.2482 13.3185Z" fill="#8F8F91"/>
<rect x="74" y="3.27307" width="8" height="8" rx="2" fill="#58585A"/>
<path d="M86.799 4.00034H88.1307L90.446 9.65375H90.5312L92.8466 4.00034H94.1783V11.2731H93.1342V6.01029H93.0668L90.9219 11.2624H90.0554L87.9105 6.00674H87.843V11.2731H86.799V4.00034ZM95.6884 11.2731V5.81853H96.7502V11.2731H95.6884ZM96.2246 4.97691C96.04 4.97691 95.8813 4.91535 95.7488 4.79225C95.6185 4.66677 95.5534 4.51763 95.5534 4.3448C95.5534 4.16961 95.6185 4.02047 95.7488 3.89736C95.8813 3.77189 96.04 3.70915 96.2246 3.70915C96.4093 3.70915 96.5667 3.77189 96.6969 3.89736C96.8295 4.02047 96.8958 4.16961 96.8958 4.3448C96.8958 4.51763 96.8295 4.66677 96.6969 4.79225C96.5667 4.91535 96.4093 4.97691 96.2246 4.97691ZM100.476 11.3832C99.9483 11.3832 99.4937 11.2636 99.1126 11.0245C98.7338 10.783 98.4426 10.4504 98.239 10.0266C98.0354 9.60285 97.9336 9.11753 97.9336 8.57066C97.9336 8.01668 98.0378 7.52781 98.2461 7.10404C98.4544 6.6779 98.748 6.34528 99.1268 6.10617C99.5056 5.86706 99.9518 5.7475 100.466 5.7475C100.88 5.7475 101.249 5.82444 101.574 5.97833C101.898 6.12984 102.159 6.34291 102.358 6.61753C102.56 6.89215 102.679 7.21294 102.717 7.57989H101.684C101.627 7.32421 101.497 7.10404 101.293 6.91938C101.092 6.73472 100.822 6.64239 100.483 6.64239C100.187 6.64239 99.9281 6.72051 99.7056 6.87676C99.4854 7.03065 99.3138 7.25082 99.1907 7.53728C99.0676 7.82137 99.006 8.15754 99.006 8.5458C99.006 8.94353 99.0664 9.2868 99.1871 9.57563C99.3079 9.86445 99.4783 10.0882 99.6985 10.2468C99.921 10.4054 100.183 10.4847 100.483 10.4847C100.685 10.4847 100.867 10.448 101.03 10.3746C101.196 10.2989 101.334 10.1912 101.446 10.0515C101.559 9.9118 101.639 9.74372 101.684 9.54722H102.717C102.679 9.89997 102.564 10.2148 102.373 10.4918C102.181 10.7688 101.924 10.9866 101.602 11.1452C101.282 11.3038 100.907 11.3832 100.476 11.3832ZM103.852 11.2731V5.81853H104.879V6.685H104.936C105.035 6.39144 105.21 6.16062 105.461 5.99253C105.714 5.82208 106.001 5.73685 106.32 5.73685C106.387 5.73685 106.465 5.73922 106.555 5.74395C106.647 5.74869 106.719 5.75461 106.771 5.76171V6.77733C106.729 6.7655 106.653 6.75247 106.544 6.73827C106.435 6.7217 106.326 6.71341 106.218 6.71341C105.967 6.71341 105.743 6.76668 105.546 6.87321C105.352 6.97738 105.198 7.12298 105.085 7.31C104.971 7.49466 104.914 7.70536 104.914 7.94211V11.2731H103.852ZM109.793 11.3832C109.281 11.3832 108.835 11.266 108.454 11.0316C108.073 10.7972 107.777 10.4693 107.566 10.0479C107.355 9.62653 107.25 9.1341 107.25 8.57066C107.25 8.00484 107.355 7.51005 107.566 7.08628C107.777 6.66251 108.073 6.33344 108.454 6.09907C108.835 5.86469 109.281 5.7475 109.793 5.7475C110.304 5.7475 110.75 5.86469 111.131 6.09907C111.513 6.33344 111.808 6.66251 112.019 7.08628C112.23 7.51005 112.335 8.00484 112.335 8.57066C112.335 9.1341 112.23 9.62653 112.019 10.0479C111.808 10.4693 111.513 10.7972 111.131 11.0316C110.75 11.266 110.304 11.3832 109.793 11.3832ZM109.796 10.4918C110.128 10.4918 110.402 10.4042 110.62 10.229C110.838 10.0538 110.999 9.82066 111.103 9.52946C111.21 9.23827 111.263 8.91748 111.263 8.56711C111.263 8.21909 111.21 7.89949 111.103 7.6083C110.999 7.31474 110.838 7.07918 110.62 6.90162C110.402 6.72407 110.128 6.63529 109.796 6.63529C109.462 6.63529 109.185 6.72407 108.965 6.90162C108.747 7.07918 108.585 7.31474 108.479 7.6083C108.375 7.89949 108.322 8.21909 108.322 8.56711C108.322 8.91748 108.375 9.23827 108.479 9.52946C108.585 9.82066 108.747 10.0538 108.965 10.229C109.185 10.4042 109.462 10.4918 109.796 10.4918ZM117.608 7.1502L116.645 7.32066C116.605 7.19755 116.541 7.08036 116.454 6.96909C116.368 6.85782 116.252 6.76668 116.106 6.69566C115.959 6.62463 115.775 6.58912 115.555 6.58912C115.255 6.58912 115.004 6.65659 114.802 6.79154C114.601 6.92411 114.501 7.09575 114.501 7.30645C114.501 7.48874 114.568 7.63552 114.703 7.74679C114.838 7.85806 115.056 7.94921 115.356 8.02023L116.223 8.21909C116.725 8.3351 117.099 8.51384 117.345 8.75532C117.591 8.99679 117.714 9.31048 117.714 9.69637C117.714 10.0231 117.62 10.3143 117.43 10.5699C117.243 10.8233 116.982 11.0221 116.645 11.1665C116.312 11.311 115.925 11.3832 115.484 11.3832C114.873 11.3832 114.375 11.2529 113.989 10.9925C113.603 10.7297 113.367 10.3569 113.279 9.87392L114.305 9.71767C114.369 9.98519 114.501 10.1876 114.699 10.3249C114.898 10.4599 115.157 10.5273 115.477 10.5273C115.825 10.5273 116.103 10.4551 116.312 10.3107C116.52 10.1639 116.624 9.98519 116.624 9.77449C116.624 9.60404 116.56 9.46081 116.432 9.3448C116.307 9.2288 116.114 9.14121 115.854 9.08202L114.93 8.87961C114.421 8.7636 114.045 8.57894 113.801 8.32563C113.559 8.07231 113.439 7.75153 113.439 7.36327C113.439 7.0413 113.529 6.75958 113.709 6.5181C113.889 6.27662 114.137 6.08841 114.454 5.95347C114.772 5.81616 115.135 5.7475 115.545 5.7475C116.134 5.7475 116.598 5.87534 116.937 6.13103C117.275 6.38434 117.499 6.72407 117.608 7.1502ZM121.233 11.3832C120.695 11.3832 120.232 11.2683 119.844 11.0387C119.458 10.8067 119.16 10.4812 118.949 10.0621C118.741 9.64073 118.637 9.14712 118.637 8.58131C118.637 8.0226 118.741 7.53017 118.949 7.10404C119.16 6.6779 119.453 6.34528 119.83 6.10617C120.209 5.86706 120.651 5.7475 121.158 5.7475C121.466 5.7475 121.764 5.7984 122.053 5.9002C122.342 6.002 122.601 6.1618 122.831 6.37961C123.06 6.59741 123.241 6.88032 123.374 7.22833C123.507 7.57397 123.573 7.99419 123.573 8.48898V8.8654H119.237V8.06995H122.532C122.532 7.79059 122.475 7.54319 122.362 7.32776C122.248 7.10996 122.088 6.93832 121.882 6.81284C121.679 6.68737 121.44 6.62463 121.165 6.62463C120.867 6.62463 120.606 6.69802 120.384 6.8448C120.164 6.98922 119.993 7.17861 119.873 7.41299C119.754 7.64499 119.695 7.89712 119.695 8.16938V8.79083C119.695 9.15541 119.759 9.46554 119.887 9.72122C120.017 9.97691 120.198 10.1722 120.43 10.3072C120.662 10.4397 120.933 10.506 121.243 10.506C121.444 10.506 121.628 10.4776 121.794 10.4208C121.959 10.3616 122.103 10.274 122.223 10.158C122.344 10.042 122.436 9.89878 122.5 9.72833L123.505 9.90943C123.425 10.2054 123.28 10.4646 123.072 10.6871C122.866 10.9073 122.607 11.0789 122.294 11.202C121.984 11.3228 121.63 11.3832 121.233 11.3832ZM127.048 11.3832C126.521 11.3832 126.066 11.2636 125.685 11.0245C125.306 10.783 125.015 10.4504 124.811 10.0266C124.608 9.60285 124.506 9.11753 124.506 8.57066C124.506 8.01668 124.61 7.52781 124.818 7.10404C125.027 6.6779 125.32 6.34528 125.699 6.10617C126.078 5.86706 126.524 5.7475 127.038 5.7475C127.452 5.7475 127.821 5.82444 128.146 5.97833C128.47 6.12984 128.732 6.34291 128.931 6.61753C129.132 6.89215 129.251 7.21294 129.289 7.57989H128.256C128.199 7.32421 128.069 7.10404 127.865 6.91938C127.664 6.73472 127.394 6.64239 127.056 6.64239C126.76 6.64239 126.5 6.72051 126.278 6.87676C126.058 7.03065 125.886 7.25082 125.763 7.53728C125.64 7.82137 125.578 8.15754 125.578 8.5458C125.578 8.94353 125.639 9.2868 125.759 9.57563C125.88 9.86445 126.051 10.0882 126.271 10.2468C126.493 10.4054 126.755 10.4847 127.056 10.4847C127.257 10.4847 127.439 10.448 127.602 10.3746C127.768 10.2989 127.907 10.1912 128.018 10.0515C128.132 9.9118 128.211 9.74372 128.256 9.54722H129.289C129.251 9.89997 129.137 10.2148 128.945 10.4918C128.753 10.7688 128.496 10.9866 128.174 11.1452C127.855 11.3038 127.479 11.3832 127.048 11.3832ZM132.971 5.81853V6.6708H129.991V5.81853H132.971ZM130.79 4.51171H131.852V9.67151C131.852 9.87747 131.883 10.0325 131.945 10.1367C132.006 10.2385 132.085 10.3083 132.183 10.3462C132.282 10.3817 132.39 10.3995 132.506 10.3995C132.591 10.3995 132.665 10.3936 132.729 10.3817C132.793 10.3699 132.843 10.3604 132.879 10.3533L133.07 11.2305C133.009 11.2541 132.921 11.2778 132.808 11.3015C132.694 11.3275 132.552 11.3417 132.381 11.3441C132.102 11.3488 131.842 11.2991 131.6 11.1949C131.359 11.0908 131.163 10.9298 131.014 10.712C130.865 10.4942 130.79 10.2208 130.79 9.89168V4.51171ZM136.384 11.3832C135.873 11.3832 135.427 11.266 135.046 11.0316C134.664 10.7972 134.369 10.4693 134.158 10.0479C133.947 9.62653 133.842 9.1341 133.842 8.57066C133.842 8.00484 133.947 7.51005 134.158 7.08628C134.369 6.66251 134.664 6.33344 135.046 6.09907C135.427 5.86469 135.873 5.7475 136.384 5.7475C136.896 5.7475 137.342 5.86469 137.723 6.09907C138.104 6.33344 138.4 6.66251 138.611 7.08628C138.822 7.51005 138.927 8.00484 138.927 8.57066C138.927 9.1341 138.822 9.62653 138.611 10.0479C138.4 10.4693 138.104 10.7972 137.723 11.0316C137.342 11.266 136.896 11.3832 136.384 11.3832ZM136.388 10.4918C136.719 10.4918 136.994 10.4042 137.212 10.229C137.43 10.0538 137.591 9.82066 137.695 9.52946C137.801 9.23827 137.855 8.91748 137.855 8.56711C137.855 8.21909 137.801 7.89949 137.695 7.6083C137.591 7.31474 137.43 7.07918 137.212 6.90162C136.994 6.72407 136.719 6.63529 136.388 6.63529C136.054 6.63529 135.777 6.72407 135.557 6.90162C135.339 7.07918 135.177 7.31474 135.07 7.6083C134.966 7.89949 134.914 8.21909 134.914 8.56711C134.914 8.91748 134.966 9.23827 135.07 9.52946C135.177 9.82066 135.339 10.0538 135.557 10.229C135.777 10.4042 136.054 10.4918 136.388 10.4918ZM140.112 11.2731V5.81853H141.138V6.685H141.195C141.295 6.39144 141.47 6.16062 141.721 5.99253C141.974 5.82208 142.261 5.73685 142.58 5.73685C142.647 5.73685 142.725 5.73922 142.815 5.74395C142.907 5.74869 142.979 5.75461 143.031 5.76171V6.77733C142.989 6.7655 142.913 6.75247 142.804 6.73827C142.695 6.7217 142.586 6.71341 142.477 6.71341C142.226 6.71341 142.003 6.76668 141.806 6.87321C141.612 6.97738 141.458 7.12298 141.344 7.31C141.231 7.49466 141.174 7.70536 141.174 7.94211V11.2731H140.112Z" fill="#8F8F91"/>
<rect x="160" y="3.27307" width="8" height="8" rx="2" fill="#8F8F91"/>
<path d="M172.799 11.2731V4.00034H173.896V7.16086H177.522V4.00034H178.623V11.2731H177.522V8.10191H173.896V11.2731H172.799ZM180.136 11.2731V5.81853H181.197V11.2731H180.136ZM180.672 4.97691C180.487 4.97691 180.329 4.91535 180.196 4.79225C180.066 4.66677 180.001 4.51763 180.001 4.3448C180.001 4.16961 180.066 4.02047 180.196 3.89736C180.329 3.77189 180.487 3.70915 180.672 3.70915C180.857 3.70915 181.014 3.77189 181.144 3.89736C181.277 4.02047 181.343 4.16961 181.343 4.3448C181.343 4.51763 181.277 4.66677 181.144 4.79225C181.014 4.91535 180.857 4.97691 180.672 4.97691ZM184.913 13.4322C184.48 13.4322 184.107 13.3753 183.794 13.2617C183.484 13.1481 183.231 12.9977 183.034 12.8107C182.838 12.6237 182.691 12.4189 182.594 12.1964L183.507 11.8199C183.57 11.9241 183.656 12.0342 183.762 12.1502C183.871 12.2686 184.018 12.3692 184.203 12.452C184.39 12.5349 184.63 12.5763 184.923 12.5763C185.326 12.5763 185.659 12.4781 185.921 12.2816C186.184 12.0875 186.316 11.7773 186.316 11.3512V10.2788H186.248C186.184 10.3948 186.092 10.5238 185.971 10.6658C185.853 10.8079 185.689 10.931 185.481 11.0351C185.273 11.1393 185.002 11.1914 184.668 11.1914C184.237 11.1914 183.849 11.0908 183.503 10.8895C183.16 10.686 182.887 10.3865 182.686 9.99111C182.487 9.59338 182.388 9.10451 182.388 8.52449C182.388 7.94447 182.486 7.44731 182.683 7.03301C182.882 6.61872 183.154 6.30148 183.499 6.08131C183.845 5.85877 184.237 5.7475 184.675 5.7475C185.013 5.7475 185.287 5.80432 185.495 5.91796C185.704 6.02923 185.866 6.15943 185.982 6.30858C186.1 6.45773 186.191 6.58912 186.255 6.70276H186.333V5.81853H187.374V11.3938C187.374 11.8626 187.265 12.2473 187.047 12.5479C186.829 12.8486 186.535 13.0711 186.163 13.2155C185.794 13.36 185.377 13.4322 184.913 13.4322ZM184.902 10.3107C185.208 10.3107 185.466 10.2397 185.676 10.0976C185.889 9.95323 186.05 9.74727 186.159 9.47975C186.271 9.20986 186.326 8.88671 186.326 8.51029C186.326 8.14334 186.272 7.82018 186.163 7.54083C186.054 7.26147 185.894 7.04367 185.683 6.88742C185.473 6.7288 185.212 6.64949 184.902 6.64949C184.583 6.64949 184.316 6.73235 184.103 6.89807C183.89 7.06142 183.729 7.28396 183.62 7.56568C183.514 7.84741 183.46 8.16228 183.46 8.51029C183.46 8.86777 183.515 9.18145 183.624 9.45134C183.733 9.72122 183.894 9.93193 184.107 10.0834C184.322 10.235 184.587 10.3107 184.902 10.3107ZM189.86 8.03443V11.2731H188.798V4.00034H189.845V6.70631H189.913C190.041 6.41275 190.236 6.17956 190.499 6.00674C190.762 5.83391 191.105 5.7475 191.529 5.7475C191.903 5.7475 192.229 5.82444 192.509 5.97833C192.79 6.13221 193.008 6.36185 193.162 6.66725C193.318 6.97028 193.396 7.34907 193.396 7.80361V11.2731H192.335V7.93145C192.335 7.53136 192.232 7.22122 192.026 7.00105C191.82 6.77852 191.533 6.66725 191.166 6.66725C190.915 6.66725 190.691 6.72051 190.492 6.82705C190.295 6.93358 190.14 7.08983 190.026 7.2958C189.915 7.4994 189.86 7.74561 189.86 8.03443ZM199.747 13.4322C199.314 13.4322 198.941 13.3753 198.628 13.2617C198.318 13.1481 198.065 12.9977 197.868 12.8107C197.672 12.6237 197.525 12.4189 197.428 12.1964L198.341 11.8199C198.404 11.9241 198.49 12.0342 198.596 12.1502C198.705 12.2686 198.852 12.3692 199.037 12.452C199.224 12.5349 199.464 12.5763 199.757 12.5763C200.16 12.5763 200.493 12.4781 200.755 12.2816C201.018 12.0875 201.15 11.7773 201.15 11.3512V10.2788H201.082C201.018 10.3948 200.926 10.5238 200.805 10.6658C200.687 10.8079 200.523 10.931 200.315 11.0351C200.107 11.1393 199.836 11.1914 199.502 11.1914C199.071 11.1914 198.683 11.0908 198.337 10.8895C197.994 10.686 197.721 10.3865 197.52 9.99111C197.321 9.59338 197.222 9.10451 197.222 8.52449C197.222 7.94447 197.32 7.44731 197.517 7.03301C197.716 6.61872 197.988 6.30148 198.333 6.08131C198.679 5.85877 199.071 5.7475 199.509 5.7475C199.847 5.7475 200.121 5.80432 200.329 5.91796C200.538 6.02923 200.7 6.15943 200.816 6.30858C200.934 6.45773 201.025 6.58912 201.089 6.70276H201.167V5.81853H202.208V11.3938C202.208 11.8626 202.099 12.2473 201.881 12.5479C201.663 12.8486 201.368 13.0711 200.997 13.2155C200.627 13.36 200.211 13.4322 199.747 13.4322ZM199.736 10.3107C200.042 10.3107 200.3 10.2397 200.51 10.0976C200.723 9.95323 200.884 9.74727 200.993 9.47975C201.105 9.20986 201.16 8.88671 201.16 8.51029C201.16 8.14334 201.106 7.82018 200.997 7.54083C200.888 7.26147 200.728 7.04367 200.517 6.88742C200.307 6.7288 200.046 6.64949 199.736 6.64949C199.417 6.64949 199.15 6.73235 198.937 6.89807C198.724 7.06142 198.563 7.28396 198.454 7.56568C198.348 7.84741 198.294 8.16228 198.294 8.51029C198.294 8.86777 198.349 9.18145 198.458 9.45134C198.567 9.72122 198.728 9.93193 198.941 10.0834C199.156 10.235 199.421 10.3107 199.736 10.3107ZM203.632 11.2731V5.81853H204.658V6.685H204.715C204.814 6.39144 204.989 6.16062 205.24 5.99253C205.494 5.82208 205.78 5.73685 206.1 5.73685C206.166 5.73685 206.244 5.73922 206.334 5.74395C206.426 5.74869 206.499 5.75461 206.551 5.76171V6.77733C206.508 6.7655 206.432 6.75247 206.324 6.73827C206.215 6.7217 206.106 6.71341 205.997 6.71341C205.746 6.71341 205.522 6.76668 205.326 6.87321C205.132 6.97738 204.978 7.12298 204.864 7.31C204.75 7.49466 204.694 7.70536 204.694 7.94211V11.2731H203.632ZM209.572 11.3832C209.061 11.3832 208.614 11.266 208.233 11.0316C207.852 10.7972 207.556 10.4693 207.345 10.0479C207.135 9.62653 207.029 9.1341 207.029 8.57066C207.029 8.00484 207.135 7.51005 207.345 7.08628C207.556 6.66251 207.852 6.33344 208.233 6.09907C208.614 5.86469 209.061 5.7475 209.572 5.7475C210.083 5.7475 210.53 5.86469 210.911 6.09907C211.292 6.33344 211.588 6.66251 211.798 7.08628C212.009 7.51005 212.115 8.00484 212.115 8.57066C212.115 9.1341 212.009 9.62653 211.798 10.0479C211.588 10.4693 211.292 10.7972 210.911 11.0316C210.53 11.266 210.083 11.3832 209.572 11.3832ZM209.575 10.4918C209.907 10.4918 210.182 10.4042 210.399 10.229C210.617 10.0538 210.778 9.82066 210.882 9.52946C210.989 9.23827 211.042 8.91748 211.042 8.56711C211.042 8.21909 210.989 7.89949 210.882 7.6083C210.778 7.31474 210.617 7.07918 210.399 6.90162C210.182 6.72407 209.907 6.63529 209.575 6.63529C209.242 6.63529 208.965 6.72407 208.744 6.90162C208.527 7.07918 208.365 7.31474 208.258 7.6083C208.154 7.89949 208.102 8.21909 208.102 8.56711C208.102 8.91748 208.154 9.23827 208.258 9.52946C208.365 9.82066 208.527 10.0538 208.744 10.229C208.965 10.4042 209.242 10.4918 209.575 10.4918ZM214.316 11.2731L212.711 5.81853H213.808L214.877 9.82421H214.931L216.003 5.81853H217.1L218.166 9.80645H218.219L219.281 5.81853H220.378L218.776 11.2731H217.693L216.585 7.33486H216.504L215.396 11.2731H214.316ZM223.932 5.81853V6.6708H220.952V5.81853H223.932ZM221.751 4.51171H222.813V9.67151C222.813 9.87747 222.844 10.0325 222.906 10.1367C222.967 10.2385 223.046 10.3083 223.143 10.3462C223.243 10.3817 223.351 10.3995 223.467 10.3995C223.552 10.3995 223.626 10.3936 223.69 10.3817C223.754 10.3699 223.804 10.3604 223.839 10.3533L224.031 11.2305C223.97 11.2541 223.882 11.2778 223.768 11.3015C223.655 11.3275 223.513 11.3417 223.342 11.3441C223.063 11.3488 222.803 11.2991 222.561 11.1949C222.32 11.0908 222.124 10.9298 221.975 10.712C221.826 10.4942 221.751 10.2208 221.751 9.89168V4.51171ZM226.285 8.03443V11.2731H225.224V4.00034H226.271V6.70631H226.339C226.466 6.41275 226.662 6.17956 226.925 6.00674C227.187 5.83391 227.531 5.7475 227.954 5.7475C228.328 5.7475 228.655 5.82444 228.934 5.97833C229.216 6.13221 229.434 6.36185 229.588 6.66725C229.744 6.97028 229.822 7.34907 229.822 7.80361V11.2731H228.76V7.93145C228.76 7.53136 228.657 7.22122 228.452 7.00105C228.246 6.77852 227.959 6.66725 227.592 6.66725C227.341 6.66725 227.116 6.72051 226.917 6.82705C226.721 6.93358 226.566 7.08983 226.452 7.2958C226.341 7.4994 226.285 7.74561 226.285 8.03443ZM237.938 5.91086C237.9 5.57468 237.743 5.31426 237.469 5.12961C237.194 4.94258 236.848 4.84907 236.432 4.84907C236.134 4.84907 235.875 4.89641 235.658 4.99111C235.44 5.08344 235.271 5.21128 235.15 5.37463C235.031 5.53562 234.972 5.71909 234.972 5.92506C234.972 6.09788 235.013 6.24703 235.093 6.3725C235.176 6.49798 235.284 6.60333 235.416 6.68855C235.551 6.77141 235.696 6.84125 235.849 6.89807C236.003 6.95252 236.151 6.9975 236.293 7.03301L237.004 7.21767C237.236 7.27449 237.473 7.35143 237.717 7.4485C237.961 7.54556 238.187 7.6734 238.396 7.83202C238.604 7.99064 238.772 8.18713 238.9 8.42151C239.03 8.65588 239.095 8.93642 239.095 9.26313C239.095 9.67506 238.989 10.0408 238.776 10.3604C238.565 10.68 238.258 10.9322 237.856 11.1168C237.456 11.3015 236.972 11.3938 236.403 11.3938C235.859 11.3938 235.388 11.3074 234.99 11.1346C234.592 10.9618 234.281 10.7167 234.056 10.3995C233.831 10.0799 233.707 9.7011 233.683 9.26313H234.784C234.805 9.52591 234.891 9.7449 235.04 9.92009C235.191 10.0929 235.384 10.2219 235.619 10.3072C235.855 10.39 236.115 10.4315 236.396 10.4315C236.706 10.4315 236.982 10.3829 237.224 10.2859C237.468 10.1864 237.659 10.0491 237.799 9.87392C237.939 9.69637 238.009 9.48922 238.009 9.25247C238.009 9.03704 237.947 8.86067 237.824 8.72336C237.703 8.58604 237.539 8.47241 237.33 8.38245C237.124 8.29248 236.891 8.21318 236.631 8.14452L235.771 7.91015C235.189 7.75153 234.727 7.51834 234.386 7.21057C234.048 6.90281 233.879 6.49561 233.879 5.98898C233.879 5.56995 233.992 5.20418 234.219 4.89168C234.447 4.57918 234.754 4.33652 235.143 4.1637C235.531 3.98851 235.969 3.90091 236.457 3.90091C236.949 3.90091 237.384 3.98732 237.76 4.16015C238.139 4.33297 238.437 4.57089 238.655 4.87392C238.873 5.17459 238.986 5.52023 238.996 5.91086H237.938ZM240.406 4.00034H241.738L244.053 9.65375H244.139L246.454 4.00034H247.786V11.2731H246.742V6.01029H246.674L244.529 11.2624H243.663L241.518 6.00674H241.45V11.2731H240.406V4.00034ZM249.381 11.2731V4.00034H253.941V4.94495H250.478V7.16086H253.703V8.10191H250.478V10.3285H253.983V11.2731H249.381ZM257.968 11.2731V5.81853H259.029V11.2731H257.968ZM258.504 4.97691C258.319 4.97691 258.161 4.91535 258.028 4.79225C257.898 4.66677 257.833 4.51763 257.833 4.3448C257.833 4.16961 257.898 4.02047 258.028 3.89736C258.161 3.77189 258.319 3.70915 258.504 3.70915C258.689 3.70915 258.846 3.77189 258.976 3.89736C259.109 4.02047 259.175 4.16961 259.175 4.3448C259.175 4.51763 259.109 4.66677 258.976 4.79225C258.846 4.91535 258.689 4.97691 258.504 4.97691ZM261.52 8.03443V11.2731H260.458V5.81853H261.477V6.70631H261.545C261.67 6.41748 261.867 6.18548 262.134 6.01029C262.404 5.8351 262.744 5.7475 263.153 5.7475C263.525 5.7475 263.85 5.82563 264.13 5.98188C264.409 6.13576 264.626 6.3654 264.78 6.6708C264.934 6.9762 265.01 7.3538 265.01 7.80361V11.2731H263.949V7.93145C263.949 7.53609 263.846 7.22714 263.64 7.00461C263.434 6.7797 263.151 6.66725 262.791 6.66725C262.545 6.66725 262.326 6.72051 262.134 6.82705C261.945 6.93358 261.794 7.08983 261.683 7.2958C261.574 7.4994 261.52 7.74561 261.52 8.03443ZM268.476 11.3796C268.036 11.3796 267.643 11.2672 267.297 11.0422C266.954 10.815 266.684 10.4918 266.488 10.0728C266.294 9.65139 266.197 9.14594 266.197 8.55645C266.197 7.96696 266.295 7.4627 266.491 7.04367C266.69 6.62463 266.962 6.30385 267.308 6.08131C267.654 5.85877 268.046 5.7475 268.483 5.7475C268.822 5.7475 269.094 5.80432 269.3 5.91796C269.509 6.02923 269.67 6.15943 269.783 6.30858C269.899 6.45773 269.989 6.58912 270.053 6.70276H270.117V4.00034H271.179V11.2731H270.142V10.4243H270.053C269.989 10.5404 269.897 10.6729 269.776 10.8221C269.658 10.9712 269.494 11.1014 269.286 11.2127C269.078 11.324 268.808 11.3796 268.476 11.3796ZM268.711 10.4741C269.016 10.4741 269.274 10.3936 269.485 10.2326C269.698 10.0692 269.859 9.84315 269.968 9.55432C270.079 9.2655 270.135 8.92932 270.135 8.5458C270.135 8.16701 270.08 7.83557 269.971 7.55148C269.863 7.26739 269.703 7.04604 269.492 6.88742C269.281 6.7288 269.021 6.64949 268.711 6.64949C268.391 6.64949 268.125 6.73235 267.912 6.89807C267.699 7.06379 267.538 7.28988 267.429 7.57634C267.322 7.8628 267.269 8.18595 267.269 8.5458C267.269 8.91038 267.323 9.23827 267.432 9.52946C267.541 9.82066 267.702 10.0515 267.915 10.2219C268.131 10.39 268.396 10.4741 268.711 10.4741ZM275.045 11.3832C274.508 11.3832 274.045 11.2683 273.657 11.0387C273.271 10.8067 272.972 10.4812 272.762 10.0621C272.553 9.64073 272.449 9.14712 272.449 8.58131C272.449 8.0226 272.553 7.53017 272.762 7.10404C272.972 6.6779 273.266 6.34528 273.642 6.10617C274.021 5.86706 274.464 5.7475 274.971 5.7475C275.278 5.7475 275.577 5.7984 275.865 5.9002C276.154 6.002 276.413 6.1618 276.643 6.37961C276.873 6.59741 277.054 6.88032 277.186 7.22833C277.319 7.57397 277.385 7.99419 277.385 8.48898V8.8654H273.049V8.06995H276.345C276.345 7.79059 276.288 7.54319 276.174 7.32776C276.061 7.10996 275.901 6.93832 275.695 6.81284C275.491 6.68737 275.252 6.62463 274.978 6.62463C274.679 6.62463 274.419 6.69802 274.196 6.8448C273.976 6.98922 273.806 7.17861 273.685 7.41299C273.567 7.64499 273.507 7.89712 273.507 8.16938V8.79083C273.507 9.15541 273.571 9.46554 273.699 9.72122C273.829 9.97691 274.011 10.1722 274.243 10.3072C274.475 10.4397 274.746 10.506 275.056 10.506C275.257 10.506 275.44 10.4776 275.606 10.4208C275.772 10.3616 275.915 10.274 276.036 10.158C276.157 10.042 276.249 9.89878 276.313 9.72833L277.318 9.90943C277.237 10.2054 277.093 10.4646 276.885 10.6871C276.679 10.9073 276.419 11.0789 276.107 11.202C275.797 11.3228 275.443 11.3832 275.045 11.3832ZM279.275 5.81853L280.478 7.94211L281.693 5.81853H282.854L281.153 8.5458L282.868 11.2731H281.707L280.478 9.23472L279.253 11.2731H278.088L279.786 8.5458L278.11 5.81853H279.275Z" fill="#8F8F91"/>
</svg>
