<svg width="122" height="20" viewBox="0 0 122 20" fill="none" xmlns="http://www.w3.org/2000/svg">
<g clip-path="url(#clip0_2077_272)">
<path d="M54.4361 4.66468C52.4351 4.66468 51.3446 5.78894 50.8043 6.76527C50.054 5.41418 49.0235 4.66468 47.3627 4.66468C45.4118 4.66468 44.5714 5.80866 44.1212 6.76527V4.90136H42.1002V15.6607H44.2712V10.0887C44.2712 8.18539 45.2617 6.72582 46.9125 6.72582C48.4632 6.72582 49.2336 7.65284 49.2336 9.88164V15.6607H51.3846V9.4773C51.6247 7.8698 52.5652 6.72582 54.0259 6.72582C55.5766 6.72582 56.347 7.65284 56.347 9.88164V15.6607H58.498V9.49702C58.498 6.06507 56.7572 4.67454 54.4361 4.67454V4.66468Z" fill="#18181B"/>
<path d="M65.5714 9.20119C64.1507 8.84616 63.6205 8.501 63.6205 7.74163C63.6205 7.08088 64.2908 6.59764 65.1712 6.59764C66.0516 6.59764 66.762 6.8935 67.3823 7.44577L68.863 6.09468C67.8725 5.18739 66.6119 4.67457 65.1012 4.67457C63.0002 4.67457 61.4894 6.02565 61.4894 7.74163C61.4894 9.90139 63.0402 10.6016 65.0311 11.1736C66.3217 11.5582 67.2022 11.8541 67.2022 12.7022C67.2022 13.4615 66.3618 13.9546 65.2512 13.9546C64.2207 13.9546 63.2303 13.4911 62.61 12.7022L61.0892 14.0533C62.0097 15.2367 63.4504 15.8974 65.2612 15.8974C67.6924 15.8974 69.3632 14.5661 69.3632 12.6134C69.3632 10.4142 67.6024 9.71401 65.5814 9.20119H65.5714Z" fill="#18181B"/>
<path d="M76.977 6.70612C78.2676 6.70612 79.208 7.31756 79.8383 8.2939L81.6392 7.13019C80.6287 5.60159 79.0179 4.67457 76.977 4.67457C73.6854 4.67457 71.2242 7.14991 71.2242 10.286C71.2242 13.4221 73.6954 15.8974 76.977 15.8974C79.0179 15.8974 80.6287 14.9704 81.6392 13.4418L79.8383 12.2978C79.218 13.2742 78.2676 13.8659 76.977 13.8659C74.916 13.8659 73.4153 12.2584 73.4153 10.286C73.4153 8.31362 74.916 6.70612 76.977 6.70612Z" fill="#18181B"/>
<path d="M89.0726 4.66469C85.811 4.66469 83.3198 7.14004 83.3198 10.2761C83.3198 13.4122 85.811 15.8876 89.0726 15.8876C92.3341 15.8876 94.8253 13.4122 94.8253 10.2761C94.8253 7.14004 92.3141 4.66469 89.0726 4.66469ZM89.0726 13.856C87.0116 13.856 85.5109 12.2485 85.5109 10.2761C85.5109 8.30375 87.0116 6.69625 89.0726 6.69625C91.1336 6.69625 92.6343 8.32347 92.6343 10.2761C92.6343 12.2288 91.1136 13.856 89.0726 13.856Z" fill="#18181B"/>
<path d="M103.63 4.66469C101.399 4.66469 100.258 5.6213 99.5676 6.54832V4.90138H97.6167V20H99.7677V14.1519C100.558 15.0592 101.679 15.8876 103.63 15.8876C106.611 15.8876 109.102 13.4122 109.102 10.2761C109.102 7.14004 106.611 4.66469 103.63 4.66469ZM103.369 13.856C101.308 13.856 99.7777 12.2485 99.7777 10.2761C99.7777 8.30375 101.298 6.69625 103.369 6.69625C105.44 6.69625 106.931 8.32347 106.931 10.2761C106.931 12.2288 105.41 13.856 103.369 13.856Z" fill="#18181B"/>
<path d="M121.818 9.90139C121.818 7.00198 119.967 4.67457 116.616 4.67457C113.264 4.67457 110.863 7.14991 110.863 10.286C110.863 13.4221 113.354 15.8974 116.616 15.8974C118.337 15.8974 119.707 15.3452 121.018 14.2012L119.727 12.7614C118.587 13.6095 117.946 13.9053 116.636 13.9053C114.915 13.9053 113.524 12.8008 113.134 11.1736H121.658C121.748 10.9369 121.808 10.3057 121.808 9.90139H121.818ZM113.164 9.28995C113.574 7.7219 114.925 6.61737 116.626 6.61737C118.517 6.61737 119.507 7.76135 119.697 9.28995H113.164Z" fill="#18181B"/>
<path d="M33.2558 0C32.2353 0 31.4049 0.81854 31.4049 1.82446C31.4049 2.83037 32.2353 3.64891 33.2558 3.64891C34.2763 3.64891 35.1067 2.83037 35.1067 1.82446C35.1067 0.81854 34.2763 0 33.2558 0Z" fill="#E91C11"/>
<path d="M33.2559 5.96652C32.4355 5.96652 31.7652 6.62727 31.7652 7.43595C31.7652 8.24462 32.4355 8.90537 33.2559 8.90537C34.0763 8.90537 34.7466 8.24462 34.7466 7.43595C34.7466 6.62727 34.0763 5.96652 33.2559 5.96652Z" fill="#E91C11"/>
<path d="M33.3259 12.2188C32.7056 12.2188 32.2053 12.7119 32.2053 13.3234C32.2053 13.9348 32.7056 14.4279 33.3259 14.4279C33.9462 14.4279 34.4464 13.9348 34.4464 13.3234C34.4464 12.7119 33.9462 12.2188 33.3259 12.2188Z" fill="#E91C11"/>
<path d="M29.7328 7.94176C30.124 7.01084 29.6755 5.94359 28.7311 5.55799C27.7867 5.17239 26.704 5.61446 26.3128 6.54538C25.9216 7.4763 26.3701 8.54355 27.3145 8.92915C28.2589 9.31475 29.3416 8.87268 29.7328 7.94176Z" fill="#E91C11"/>
<path d="M28.0234 11.4005C27.203 11.4005 26.5327 12.0612 26.5327 12.8699C26.5327 13.6786 27.203 14.3393 28.0234 14.3393C28.8438 14.3393 29.5141 13.6786 29.5141 12.8699C29.5141 12.0612 28.8438 11.4005 28.0234 11.4005Z" fill="#18181B"/>
<path d="M28.0235 17.3374C27.3832 17.3374 26.8629 17.8502 26.8629 18.4813C26.8629 19.1125 27.3832 19.6253 28.0235 19.6253C28.6638 19.6253 29.184 19.1125 29.184 18.4813C29.184 17.8502 28.6638 17.3374 28.0235 17.3374Z" fill="#18181B"/>
<path d="M22.7808 10.858C21.7603 10.858 20.9299 11.6765 20.9299 12.6825C20.9299 13.6884 21.7603 14.5069 22.7808 14.5069C23.8013 14.5069 24.6317 13.6884 24.6317 12.6825C24.6317 11.6765 23.8013 10.858 22.7808 10.858Z" fill="#E91C11"/>
<path d="M22.7809 16.8245C21.9605 16.8245 21.2902 17.4853 21.2902 18.2939C21.2902 19.1026 21.9605 19.7634 22.7809 19.7634C23.6013 19.7634 24.2716 19.1026 24.2716 18.2939C24.2716 17.4853 23.6013 16.8245 22.7809 16.8245Z" fill="#18181B"/>
<path d="M17.5483 16.2919C16.5278 16.2919 15.6974 17.1105 15.6974 18.1164C15.6974 19.1223 16.5278 19.9408 17.5483 19.9408C18.5688 19.9408 19.3992 19.1223 19.3992 18.1164C19.3992 17.1105 18.5688 16.2919 17.5483 16.2919Z" fill="#E91C11"/>
<path d="M1.85088 0C0.830397 0 0 0.81854 0 1.82446C0 2.83037 0.830397 3.64891 1.85088 3.64891C2.87137 3.64891 3.70177 2.83037 3.70177 1.82446C3.70177 0.81854 2.87137 0 1.85088 0Z" fill="#E91C11"/>
<path d="M1.85099 5.96652C1.0306 5.96652 0.360279 6.62727 0.360279 7.43595C0.360279 8.24462 1.0306 8.90537 1.85099 8.90537C2.67138 8.90537 3.3417 8.24462 3.3417 7.43595C3.3417 6.62727 2.67138 5.96652 1.85099 5.96652Z" fill="#E91C11"/>
<path d="M1.85083 11.9034C1.21052 11.9034 0.690271 12.4162 0.690271 13.0474C0.690271 13.6786 1.21052 14.1914 1.85083 14.1914C2.49113 14.1914 3.01138 13.6786 3.01138 13.0474C3.01138 12.4162 2.49113 11.9034 1.85083 11.9034Z" fill="#E91C11"/>
<path d="M7.08336 5.43393C6.06288 5.43393 5.23248 6.25247 5.23248 7.25839C5.23248 8.26431 6.06288 9.08285 7.08336 9.08285C8.10385 9.08285 8.93425 8.26431 8.93425 7.25839C8.93425 6.25247 8.10385 5.43393 7.08336 5.43393Z" fill="#E91C11"/>
<path d="M7.08347 11.4005C6.26308 11.4005 5.59276 12.0612 5.59276 12.8699C5.59276 13.6786 6.26308 14.3393 7.08347 14.3393C7.90386 14.3393 8.57418 13.6786 8.57418 12.8699C8.57418 12.0612 7.90386 11.4005 7.08347 11.4005Z" fill="#18181B"/>
<path d="M7.0833 17.3374C6.443 17.3374 5.92275 17.8502 5.92275 18.4813C5.92275 19.1125 6.443 19.6253 7.0833 19.6253C7.72361 19.6253 8.24386 19.1125 8.24386 18.4813C8.24386 17.8502 7.72361 17.3374 7.0833 17.3374Z" fill="#18181B"/>
<path d="M12.3158 10.858C11.2954 10.858 10.465 11.6765 10.465 12.6825C10.465 13.6884 11.2954 14.5069 12.3158 14.5069C13.3363 14.5069 14.1667 13.6884 14.1667 12.6825C14.1667 11.6765 13.3363 10.858 12.3158 10.858Z" fill="#E91C11"/>
<path d="M12.316 16.8245C11.4956 16.8245 10.8252 17.4853 10.8252 18.2939C10.8252 19.1026 11.4956 19.7634 12.316 19.7634C13.1363 19.7634 13.8067 19.1026 13.8067 18.2939C13.8067 17.4853 13.1363 16.8245 12.316 16.8245Z" fill="#18181B"/>
<path d="M1.85083 17.3865C1.21052 17.3865 0.690271 17.8993 0.690271 18.5305C0.690271 19.1616 1.21052 19.6744 1.85083 19.6744C2.49113 19.6744 3.01138 19.1616 3.01138 18.5305C3.01138 17.8993 2.49113 17.3865 1.85083 17.3865Z" fill="#E91C11"/>
<path d="M33.3259 17.4951C32.7056 17.4951 32.2053 17.9882 32.2053 18.5996C32.2053 19.211 32.7056 19.7041 33.3259 19.7041C33.9462 19.7041 34.4464 19.211 34.4464 18.5996C34.4464 17.9882 33.9462 17.4951 33.3259 17.4951Z" fill="#E91C11"/>
</g>
<defs>
<clipPath id="clip0_2077_272">
<rect width="121.818" height="20" fill="white"/>
</clipPath>
</defs>
</svg>
