<svg width="16" height="17" viewBox="0 0 16 17" fill="none" xmlns="http://www.w3.org/2000/svg">
<path d="M14 7.27221H1.99999M10.6667 1.93887V4.60554M5.33332 1.93887V4.60554M5.19999 15.2722H10.8C11.9201 15.2722 12.4801 15.2722 12.908 15.0542C13.2843 14.8625 13.5903 14.5565 13.782 14.1802C14 13.7524 14 13.1923 14 12.0722V6.47221C14 5.3521 14 4.79205 13.782 4.36423C13.5903 3.9879 13.2843 3.68194 12.908 3.49019C12.4801 3.27221 11.9201 3.27221 10.8 3.27221H5.19999C4.07989 3.27221 3.51983 3.27221 3.09201 3.49019C2.71569 3.68194 2.40972 3.9879 2.21798 4.36423C1.99999 4.79205 1.99999 5.3521 1.99999 6.47221V12.0722C1.99999 13.1923 1.99999 13.7524 2.21798 14.1802C2.40972 14.5565 2.71569 14.8625 3.09201 15.0542C3.51983 15.2722 4.07989 15.2722 5.19999 15.2722Z" stroke="#626266" stroke-width="1.33333" stroke-linecap="round" stroke-linejoin="round"/>
</svg>
