<svg width="16" height="17" viewBox="0 0 16 17" fill="none" xmlns="http://www.w3.org/2000/svg">
<path d="M3.33333 10.1298C2.09909 10.6743 1.33333 11.433 1.33333 12.2722C1.33333 13.9291 4.3181 15.2722 8 15.2722C11.6819 15.2722 14.6667 13.9291 14.6667 12.2722C14.6667 11.433 13.9009 10.6743 12.6667 10.1298M12 5.93887C12 8.64801 9 9.93887 8 11.9389C7 9.93887 4 8.64801 4 5.93887C4 3.72973 5.79086 1.93887 8 1.93887C10.2091 1.93887 12 3.72973 12 5.93887ZM8.66667 5.93887C8.66667 6.30706 8.36819 6.60554 8 6.60554C7.63181 6.60554 7.33333 6.30706 7.33333 5.93887C7.33333 5.57068 7.63181 5.27221 8 5.27221C8.36819 5.27221 8.66667 5.57068 8.66667 5.93887Z" stroke="#626266" stroke-width="1.33333" stroke-linecap="round" stroke-linejoin="round"/>
</svg>
