<svg width="16" height="17" viewBox="0 0 16 17" fill="none" xmlns="http://www.w3.org/2000/svg">
<path d="M4.66666 15.0421V7.70874M1.33333 9.04207V13.7087C1.33333 14.4451 1.93028 15.0421 2.66666 15.0421H11.6175C12.6046 15.0421 13.4441 14.3219 13.5942 13.3462L14.3122 8.67952C14.4986 7.468 13.5612 6.37541 12.3354 6.37541H10C9.63181 6.37541 9.33333 6.07693 9.33333 5.70874V3.35263C9.33333 2.44474 8.59733 1.70874 7.68944 1.70874C7.47289 1.70874 7.27665 1.83627 7.1887 2.03416L4.84262 7.31283C4.73562 7.55358 4.49687 7.70874 4.23341 7.70874H2.66666C1.93028 7.70874 1.33333 8.30569 1.33333 9.04207Z" stroke="#18181B" stroke-width="1.33333" stroke-linecap="round" stroke-linejoin="round"/>
</svg>
